%TF.GenerationSoftware,KiCad,Pcbnew,7.0.2*%
%TF.CreationDate,2024-02-22T17:56:03+01:00*%
%TF.ProjectId,flowsense,666c6f77-7365-46e7-9365-2e6b69636164,rev?*%
%TF.SameCoordinates,Original*%
%TF.FileFunction,Copper,L2,Bot*%
%TF.FilePolarity,Positive*%
%FSLAX46Y46*%
G04 Gerber Fmt 4.6, Leading zero omitted, Abs format (unit mm)*
G04 Created by KiCad (PCBNEW 7.0.2) date 2024-02-22 17:56:03*
%MOMM*%
%LPD*%
G01*
G04 APERTURE LIST*
G04 Aperture macros list*
%AMRoundRect*
0 Rectangle with rounded corners*
0 $1 Rounding radius*
0 $2 $3 $4 $5 $6 $7 $8 $9 X,Y pos of 4 corners*
0 Add a 4 corners polygon primitive as box body*
4,1,4,$2,$3,$4,$5,$6,$7,$8,$9,$2,$3,0*
0 Add four circle primitives for the rounded corners*
1,1,$1+$1,$2,$3*
1,1,$1+$1,$4,$5*
1,1,$1+$1,$6,$7*
1,1,$1+$1,$8,$9*
0 Add four rect primitives between the rounded corners*
20,1,$1+$1,$2,$3,$4,$5,0*
20,1,$1+$1,$4,$5,$6,$7,0*
20,1,$1+$1,$6,$7,$8,$9,0*
20,1,$1+$1,$8,$9,$2,$3,0*%
G04 Aperture macros list end*
%TA.AperFunction,ComponentPad*%
%ADD10R,1.700000X1.700000*%
%TD*%
%TA.AperFunction,ComponentPad*%
%ADD11O,1.700000X1.700000*%
%TD*%
%TA.AperFunction,ComponentPad*%
%ADD12C,1.400000*%
%TD*%
%TA.AperFunction,ComponentPad*%
%ADD13O,1.400000X1.400000*%
%TD*%
%TA.AperFunction,SMDPad,CuDef*%
%ADD14RoundRect,0.250001X-0.462499X-0.624999X0.462499X-0.624999X0.462499X0.624999X-0.462499X0.624999X0*%
%TD*%
%TA.AperFunction,SMDPad,CuDef*%
%ADD15R,1.350000X0.400000*%
%TD*%
%TA.AperFunction,ComponentPad*%
%ADD16O,1.900000X1.200000*%
%TD*%
%TA.AperFunction,SMDPad,CuDef*%
%ADD17R,1.900000X1.200000*%
%TD*%
%TA.AperFunction,ComponentPad*%
%ADD18C,1.450000*%
%TD*%
%TA.AperFunction,SMDPad,CuDef*%
%ADD19R,1.900000X1.500000*%
%TD*%
%TA.AperFunction,SMDPad,CuDef*%
%ADD20RoundRect,0.062500X-0.062500X0.375000X-0.062500X-0.375000X0.062500X-0.375000X0.062500X0.375000X0*%
%TD*%
%TA.AperFunction,SMDPad,CuDef*%
%ADD21RoundRect,0.062500X-0.375000X0.062500X-0.375000X-0.062500X0.375000X-0.062500X0.375000X0.062500X0*%
%TD*%
%TA.AperFunction,SMDPad,CuDef*%
%ADD22R,1.600000X1.600000*%
%TD*%
%TA.AperFunction,SMDPad,CuDef*%
%ADD23C,1.500000*%
%TD*%
%TA.AperFunction,SMDPad,CuDef*%
%ADD24RoundRect,0.250001X0.462499X0.624999X-0.462499X0.624999X-0.462499X-0.624999X0.462499X-0.624999X0*%
%TD*%
%TA.AperFunction,ComponentPad*%
%ADD25RoundRect,0.250000X-0.625000X0.350000X-0.625000X-0.350000X0.625000X-0.350000X0.625000X0.350000X0*%
%TD*%
%TA.AperFunction,ComponentPad*%
%ADD26O,1.750000X1.200000*%
%TD*%
%TA.AperFunction,SMDPad,CuDef*%
%ADD27R,3.400000X0.980000*%
%TD*%
%TA.AperFunction,ComponentPad*%
%ADD28R,1.200000X1.200000*%
%TD*%
%TA.AperFunction,ComponentPad*%
%ADD29C,1.200000*%
%TD*%
%TA.AperFunction,SMDPad,CuDef*%
%ADD30R,0.280000X0.280000*%
%TD*%
%TA.AperFunction,SMDPad,CuDef*%
%ADD31O,0.850000X0.280000*%
%TD*%
%TA.AperFunction,ComponentPad*%
%ADD32C,0.600000*%
%TD*%
%TA.AperFunction,SMDPad,CuDef*%
%ADD33R,0.680000X1.050000*%
%TD*%
%TA.AperFunction,SMDPad,CuDef*%
%ADD34R,0.260000X0.500000*%
%TD*%
%TA.AperFunction,SMDPad,CuDef*%
%ADD35R,0.280000X0.700000*%
%TD*%
%TA.AperFunction,SMDPad,CuDef*%
%ADD36R,1.650000X2.400000*%
%TD*%
%TA.AperFunction,ViaPad*%
%ADD37C,0.800000*%
%TD*%
%TA.AperFunction,Conductor*%
%ADD38C,0.250000*%
%TD*%
G04 APERTURE END LIST*
D10*
%TO.P,J1,1,Pin_1*%
%TO.N,unconnected-(J1-Pin_1-Pad1)*%
X64008000Y-39624000D03*
D11*
%TO.P,J1,2,Pin_2*%
%TO.N,+5V*%
X66548000Y-39624000D03*
%TO.P,J1,3,Pin_3*%
%TO.N,Net-(D_REC1-A)*%
X64008000Y-42164000D03*
%TO.P,J1,4,Pin_4*%
%TO.N,+5V*%
X66548000Y-42164000D03*
%TO.P,J1,5,Pin_5*%
%TO.N,unconnected-(J1-Pin_5-Pad5)*%
X64008000Y-44704000D03*
%TO.P,J1,6,Pin_6*%
%TO.N,GND*%
X66548000Y-44704000D03*
%TO.P,J1,7,Pin_7*%
%TO.N,unconnected-(J1-Pin_7-Pad7)*%
X64008000Y-47244000D03*
%TO.P,J1,8,Pin_8*%
%TO.N,unconnected-(J1-Pin_8-Pad8)*%
X66548000Y-47244000D03*
%TO.P,J1,9,Pin_9*%
%TO.N,GND*%
X64008000Y-49784000D03*
%TO.P,J1,10,Pin_10*%
%TO.N,unconnected-(J1-Pin_10-Pad10)*%
X66548000Y-49784000D03*
%TO.P,J1,11,Pin_11*%
%TO.N,unconnected-(J1-Pin_11-Pad11)*%
X64008000Y-52324000D03*
%TO.P,J1,12,Pin_12*%
%TO.N,unconnected-(J1-Pin_12-Pad12)*%
X66548000Y-52324000D03*
%TO.P,J1,13,Pin_13*%
%TO.N,unconnected-(J1-Pin_13-Pad13)*%
X64008000Y-54864000D03*
%TO.P,J1,14,Pin_14*%
%TO.N,GND*%
X66548000Y-54864000D03*
%TO.P,J1,15,Pin_15*%
%TO.N,unconnected-(J1-Pin_15-Pad15)*%
X64008000Y-57404000D03*
%TO.P,J1,16,Pin_16*%
%TO.N,unconnected-(J1-Pin_16-Pad16)*%
X66548000Y-57404000D03*
%TO.P,J1,17,Pin_17*%
%TO.N,unconnected-(J1-Pin_17-Pad17)*%
X64008000Y-59944000D03*
%TO.P,J1,18,Pin_18*%
%TO.N,unconnected-(J1-Pin_18-Pad18)*%
X66548000Y-59944000D03*
%TO.P,J1,19,Pin_19*%
%TO.N,unconnected-(J1-Pin_19-Pad19)*%
X64008000Y-62484000D03*
%TO.P,J1,20,Pin_20*%
%TO.N,GND*%
X66548000Y-62484000D03*
%TO.P,J1,21,Pin_21*%
%TO.N,unconnected-(J1-Pin_21-Pad21)*%
X64008000Y-65024000D03*
%TO.P,J1,22,Pin_22*%
%TO.N,unconnected-(J1-Pin_22-Pad22)*%
X66548000Y-65024000D03*
%TO.P,J1,23,Pin_23*%
%TO.N,unconnected-(J1-Pin_23-Pad23)*%
X64008000Y-67564000D03*
%TO.P,J1,24,Pin_24*%
%TO.N,unconnected-(J1-Pin_24-Pad24)*%
X66548000Y-67564000D03*
%TO.P,J1,25,Pin_25*%
%TO.N,GND*%
X64008000Y-70104000D03*
%TO.P,J1,26,Pin_26*%
%TO.N,unconnected-(J1-Pin_26-Pad26)*%
X66548000Y-70104000D03*
%TO.P,J1,27,Pin_27*%
%TO.N,unconnected-(J1-Pin_27-Pad27)*%
X64008000Y-72644000D03*
%TO.P,J1,28,Pin_28*%
%TO.N,unconnected-(J1-Pin_28-Pad28)*%
X66548000Y-72644000D03*
%TO.P,J1,29,Pin_29*%
%TO.N,unconnected-(J1-Pin_29-Pad29)*%
X64008000Y-75184000D03*
%TO.P,J1,30,Pin_30*%
%TO.N,GND*%
X66548000Y-75184000D03*
%TO.P,J1,31,Pin_31*%
%TO.N,unconnected-(J1-Pin_31-Pad31)*%
X64008000Y-77724000D03*
%TO.P,J1,32,Pin_32*%
%TO.N,unconnected-(J1-Pin_32-Pad32)*%
X66548000Y-77724000D03*
%TO.P,J1,33,Pin_33*%
%TO.N,unconnected-(J1-Pin_33-Pad33)*%
X64008000Y-80264000D03*
%TO.P,J1,34,Pin_34*%
%TO.N,GND*%
X66548000Y-80264000D03*
%TO.P,J1,35,Pin_35*%
%TO.N,unconnected-(J1-Pin_35-Pad35)*%
X64008000Y-82804000D03*
%TO.P,J1,36,Pin_36*%
%TO.N,unconnected-(J1-Pin_36-Pad36)*%
X66548000Y-82804000D03*
%TO.P,J1,37,Pin_37*%
%TO.N,unconnected-(J1-Pin_37-Pad37)*%
X64008000Y-85344000D03*
%TO.P,J1,38,Pin_38*%
%TO.N,unconnected-(J1-Pin_38-Pad38)*%
X66548000Y-85344000D03*
%TO.P,J1,39,Pin_39*%
%TO.N,GND*%
X64008000Y-87884000D03*
%TO.P,J1,40,Pin_40*%
%TO.N,unconnected-(J1-Pin_40-Pad40)*%
X66548000Y-87884000D03*
%TD*%
D12*
%TO.P,R8,1*%
%TO.N,Net-(U2-FB)*%
X73660000Y-45000000D03*
D13*
%TO.P,R8,2*%
%TO.N,GND*%
X71120000Y-45000000D03*
%TD*%
D14*
%TO.P,D2,1,K*%
%TO.N,Net-(D2-K)*%
X76490500Y-35052000D03*
%TO.P,D2,2,A*%
%TO.N,Net-(D2-A)*%
X79465500Y-35052000D03*
%TD*%
D12*
%TO.P,R6,1*%
%TO.N,Net-(U2-PG)*%
X73660000Y-42672000D03*
D13*
%TO.P,R6,2*%
%TO.N,+5V*%
X71120000Y-42672000D03*
%TD*%
D14*
%TO.P,D1,1,K*%
%TO.N,Net-(D1-K)*%
X71207300Y-35052000D03*
%TO.P,D1,2,A*%
%TO.N,Net-(D1-A)*%
X74182300Y-35052000D03*
%TD*%
D12*
%TO.P,R4,1*%
%TO.N,VDD*%
X69850000Y-58420000D03*
D13*
%TO.P,R4,2*%
%TO.N,Net-(D2-A)*%
X69850000Y-55880000D03*
%TD*%
D15*
%TO.P,J3,1,VBUS*%
%TO.N,+5V*%
X82136000Y-40015000D03*
%TO.P,J3,2,D-*%
%TO.N,unconnected-(J3-D--Pad2)*%
X82136000Y-40665000D03*
%TO.P,J3,3,D+*%
%TO.N,unconnected-(J3-D+-Pad3)*%
X82136000Y-41315000D03*
%TO.P,J3,4,ID*%
%TO.N,unconnected-(J3-ID-Pad4)*%
X82136000Y-41965000D03*
%TO.P,J3,5,GND*%
%TO.N,GND*%
X82136000Y-42615000D03*
D16*
%TO.P,J3,6,Shield*%
X84836000Y-37815000D03*
D17*
X84836000Y-38415000D03*
D18*
X82136000Y-38815000D03*
D19*
X84836000Y-40315000D03*
X84836000Y-42315000D03*
D18*
X82136000Y-43815000D03*
D17*
X84836000Y-44215000D03*
D16*
X84836000Y-44815000D03*
%TD*%
D20*
%TO.P,U1,1,TS*%
%TO.N,Net-(U1-TS)*%
X74687500Y-52562500D03*
%TO.P,U1,2,BAT*%
%TO.N,+BATT*%
X75187500Y-52562500D03*
%TO.P,U1,3,BAT*%
X75687500Y-52562500D03*
%TO.P,U1,4,~{CE}*%
%TO.N,GND*%
X76187500Y-52562500D03*
D21*
%TO.P,U1,5,EN2*%
%TO.N,VDD*%
X76875000Y-53250000D03*
%TO.P,U1,6,EN1*%
%TO.N,GND*%
X76875000Y-53750000D03*
%TO.P,U1,7,~{PGOOD}*%
%TO.N,Net-(D2-K)*%
X76875000Y-54250000D03*
%TO.P,U1,8,VSS*%
%TO.N,GND*%
X76875000Y-54750000D03*
D20*
%TO.P,U1,9,~{CHG}*%
%TO.N,Net-(D1-K)*%
X76187500Y-55437500D03*
%TO.P,U1,10,OUT*%
%TO.N,Net-(U2-EN)*%
X75687500Y-55437500D03*
%TO.P,U1,11,OUT*%
X75187500Y-55437500D03*
%TO.P,U1,12,ILIM*%
%TO.N,Net-(U1-ILIM)*%
X74687500Y-55437500D03*
D21*
%TO.P,U1,13,IN*%
%TO.N,VDD*%
X74000000Y-54750000D03*
%TO.P,U1,14,TMR*%
%TO.N,unconnected-(U1-TMR-Pad14)*%
X74000000Y-54250000D03*
%TO.P,U1,15,ITERM*%
%TO.N,unconnected-(U1-ITERM-Pad15)*%
X74000000Y-53750000D03*
%TO.P,U1,16,ISET*%
%TO.N,Net-(U1-ISET)*%
X74000000Y-53250000D03*
D22*
%TO.P,U1,17,VSS*%
%TO.N,GND*%
X75437500Y-54000000D03*
%TD*%
D12*
%TO.P,R2,1*%
%TO.N,GND*%
X73660000Y-49530000D03*
D13*
%TO.P,R2,2*%
%TO.N,Net-(U1-ISET)*%
X71120000Y-49530000D03*
%TD*%
D23*
%TO.P,TP4,1,1*%
%TO.N,+BATT*%
X78841600Y-51765200D03*
%TD*%
D12*
%TO.P,R3,1*%
%TO.N,VDD*%
X69723000Y-60833000D03*
D13*
%TO.P,R3,2*%
%TO.N,Net-(D1-A)*%
X72263000Y-60833000D03*
%TD*%
D12*
%TO.P,R1,1*%
%TO.N,GND*%
X72136000Y-58420000D03*
D13*
%TO.P,R1,2*%
%TO.N,Net-(U1-ILIM)*%
X72136000Y-55880000D03*
%TD*%
D12*
%TO.P,R5,1*%
%TO.N,Net-(U1-TS)*%
X73660000Y-47244000D03*
D13*
%TO.P,R5,2*%
%TO.N,GND*%
X71120000Y-47244000D03*
%TD*%
D24*
%TO.P,D_REC,1,K*%
%TO.N,GND*%
X84975000Y-35000000D03*
%TO.P,D_REC,2,A*%
%TO.N,Net-(D_REC1-A)*%
X82000000Y-35000000D03*
%TD*%
D25*
%TO.P,BATT,1,Pin_1*%
%TO.N,GND*%
X82804000Y-48292000D03*
D26*
%TO.P,BATT,2,Pin_2*%
%TO.N,+BATT*%
X82804000Y-50292000D03*
%TD*%
D25*
%TO.P,SOLAR,1,Pin_1*%
%TO.N,GND*%
X82804000Y-55302400D03*
D26*
%TO.P,SOLAR,2,Pin_2*%
%TO.N,VDD*%
X82804000Y-57302400D03*
%TD*%
D12*
%TO.P,R7,1*%
%TO.N,+5V*%
X69747600Y-53695600D03*
D13*
%TO.P,R7,2*%
%TO.N,Net-(U2-FB)*%
X72287600Y-53695600D03*
%TD*%
D27*
%TO.P,L1,1,1*%
%TO.N,Net-(U2-EN)*%
X77266800Y-44619000D03*
%TO.P,L1,2,2*%
%TO.N,Net-(L1-Pad2)*%
X77266800Y-42249000D03*
%TD*%
D28*
%TO.P,C1,1*%
%TO.N,+BATT*%
X77165200Y-48260000D03*
D29*
%TO.P,C1,2*%
%TO.N,GND*%
X79165200Y-48260000D03*
%TD*%
D23*
%TO.P,+5v,1,1*%
%TO.N,+5V*%
X77250000Y-38500000D03*
%TD*%
D30*
%TO.P,U2,1,SW*%
%TO.N,Net-(L1-Pad2)*%
X75170000Y-38116000D03*
D31*
X74885000Y-38116000D03*
D30*
%TO.P,U2,2,SW*%
X75170000Y-38616000D03*
D31*
X74885000Y-38616000D03*
D30*
%TO.P,U2,3,VOUT*%
%TO.N,+5V*%
X75170000Y-39116000D03*
D31*
X74885000Y-39116000D03*
D30*
%TO.P,U2,4,VOUT*%
X75170000Y-39616000D03*
D31*
X74885000Y-39616000D03*
D30*
%TO.P,U2,5,PG*%
%TO.N,Net-(U2-PG)*%
X75170000Y-40116000D03*
D31*
X74885000Y-40116000D03*
%TO.P,U2,6,SS*%
%TO.N,GND*%
X71935000Y-40116000D03*
D30*
X71650000Y-40116000D03*
D31*
%TO.P,U2,7,FB*%
%TO.N,Net-(U2-FB)*%
X71935000Y-39616000D03*
D30*
X71650000Y-39616000D03*
D31*
%TO.P,U2,8,HYS*%
%TO.N,unconnected-(U2-HYS-Pad8)*%
X71935000Y-39116000D03*
D30*
X71650000Y-39116000D03*
D31*
%TO.P,U2,9,EN*%
%TO.N,Net-(U2-EN)*%
X71935000Y-38616000D03*
D30*
X71650000Y-38616000D03*
D31*
%TO.P,U2,10,VIN*%
X71935000Y-38116000D03*
D30*
X71650000Y-38116000D03*
D32*
%TO.P,U2,11,GND*%
%TO.N,GND*%
X73910000Y-39866000D03*
X73910000Y-38366000D03*
D33*
X73860000Y-39751000D03*
X73860000Y-38481000D03*
D34*
X73660000Y-40746000D03*
D35*
X73660000Y-40666000D03*
X73660000Y-37566000D03*
D34*
X73660000Y-37486000D03*
D32*
X73410000Y-39116000D03*
D36*
X73410000Y-39116000D03*
D34*
X73160000Y-40746000D03*
D35*
X73160000Y-40666000D03*
X73160000Y-37566000D03*
D34*
X73160000Y-37486000D03*
D33*
X72960000Y-39751000D03*
X72960000Y-38481000D03*
D32*
X72910000Y-39866000D03*
X72910000Y-38366000D03*
%TD*%
D23*
%TO.P,GND,1,1*%
%TO.N,GND*%
X78994000Y-61061600D03*
%TD*%
%TO.P,VDD,1,1*%
%TO.N,VDD*%
X74777600Y-60858400D03*
%TD*%
D37*
%TO.N,GND*%
X78028800Y-55118000D03*
X79760299Y-54453301D03*
X76873700Y-51460400D03*
%TO.N,VDD*%
X79988300Y-53480153D03*
X77271000Y-59445000D03*
%TO.N,Net-(D1-K)*%
X70358000Y-36677600D03*
X73304400Y-56896000D03*
%TO.N,Net-(D1-A)*%
X72542400Y-35102800D03*
%TO.N,+5V*%
X75946000Y-36576000D03*
%TO.N,Net-(D2-K)*%
X79502000Y-38862000D03*
X80010000Y-44958000D03*
%TO.N,Net-(D2-A)*%
X80903982Y-44511010D03*
X80501503Y-38862000D03*
%TO.N,Net-(U2-EN)*%
X75184000Y-57150000D03*
X75539600Y-46177200D03*
%TO.N,Net-(L1-Pad2)*%
X77724000Y-40640000D03*
X75946000Y-38100000D03*
%TO.N,Net-(U1-TS)*%
X74839342Y-50636060D03*
%TO.N,Net-(U2-FB)*%
X70395500Y-39624000D03*
%TD*%
D38*
%TO.N,GND*%
X77660800Y-54750000D02*
X76875000Y-54750000D01*
X79760299Y-54453301D02*
X79056998Y-53750000D01*
X76875000Y-53750000D02*
X75687500Y-53750000D01*
X76187500Y-52562500D02*
X76187500Y-52146600D01*
X76187500Y-52146600D02*
X76873700Y-51460400D01*
X79056998Y-53750000D02*
X76875000Y-53750000D01*
X81887300Y-55401700D02*
X81889600Y-55404000D01*
X78028800Y-55118000D02*
X77660800Y-54750000D01*
%TO.N,+BATT*%
X77165200Y-49377600D02*
X77165200Y-48260000D01*
X75184000Y-51316000D02*
X75500000Y-51000000D01*
X75184000Y-52559000D02*
X75184000Y-51316000D01*
X77165200Y-49334800D02*
X75500000Y-51000000D01*
X78841600Y-51054000D02*
X77165200Y-49377600D01*
X77165200Y-48260000D02*
X77165200Y-49334800D01*
X78841600Y-51765200D02*
X78841600Y-51054000D01*
X75187500Y-52562500D02*
X75184000Y-52559000D01*
X75687500Y-51187500D02*
X75500000Y-51000000D01*
X75687500Y-52562500D02*
X75687500Y-51187500D01*
%TO.N,VDD*%
X69850000Y-60706000D02*
X69723000Y-60833000D01*
X70748000Y-61858000D02*
X69723000Y-60833000D01*
X68825000Y-57395000D02*
X69850000Y-58420000D01*
X71742000Y-54750000D02*
X71461800Y-55030200D01*
X71461800Y-55030200D02*
X70473400Y-55030200D01*
X68825000Y-55455431D02*
X68825000Y-57395000D01*
X69425431Y-54855000D02*
X68825000Y-55455431D01*
X74000000Y-54750000D02*
X71742000Y-54750000D01*
X69850000Y-58420000D02*
X69850000Y-60706000D01*
X74777600Y-60858400D02*
X73778000Y-61858000D01*
X79746547Y-53238400D02*
X76886600Y-53238400D01*
X76886600Y-53238400D02*
X76875000Y-53250000D01*
X73778000Y-61858000D02*
X70748000Y-61858000D01*
X79988300Y-53480153D02*
X79746547Y-53238400D01*
X74777600Y-60858400D02*
X76191000Y-59445000D01*
X70473400Y-55030200D02*
X70298200Y-54855000D01*
X70298200Y-54855000D02*
X69425431Y-54855000D01*
X76191000Y-59445000D02*
X77271000Y-59445000D01*
X76875000Y-53250000D02*
X76937400Y-53187600D01*
%TO.N,Net-(D1-K)*%
X73304400Y-56896000D02*
X74283400Y-57875000D01*
X71207300Y-35052000D02*
X71207300Y-35828300D01*
X75484305Y-57875000D02*
X76187500Y-57171805D01*
X76187500Y-57171805D02*
X76187500Y-55437500D01*
X71207300Y-35828300D02*
X70358000Y-36677600D01*
X74283400Y-57875000D02*
X75484305Y-57875000D01*
X76191714Y-55880000D02*
X76187500Y-55437500D01*
%TO.N,Net-(D1-A)*%
X72593200Y-35052000D02*
X74182300Y-35052000D01*
X72263000Y-60833000D02*
X72771000Y-60833000D01*
X72542400Y-35102800D02*
X72593200Y-35052000D01*
%TO.N,Net-(D_REC1-A)*%
X80800000Y-33800000D02*
X67482000Y-33800000D01*
X82000000Y-35000000D02*
X80800000Y-33800000D01*
X62833000Y-38449000D02*
X62833000Y-40989000D01*
X62833000Y-40989000D02*
X64008000Y-42164000D01*
X67482000Y-33800000D02*
X62833000Y-38449000D01*
%TO.N,+5V*%
X77250000Y-38500000D02*
X77250000Y-37880000D01*
X67056000Y-42672000D02*
X66548000Y-42164000D01*
X78765000Y-40015000D02*
X82136000Y-40015000D01*
X77250000Y-38500000D02*
X78765000Y-40015000D01*
X74885000Y-39116000D02*
X76634000Y-39116000D01*
X71120000Y-42672000D02*
X67056000Y-42672000D01*
X77250000Y-37880000D02*
X75946000Y-36576000D01*
X76134000Y-39616000D02*
X76634000Y-39116000D01*
X74885000Y-39616000D02*
X76134000Y-39616000D01*
X76634000Y-39116000D02*
X77250000Y-38500000D01*
%TO.N,Net-(D2-K)*%
X78532400Y-54250000D02*
X76875000Y-54250000D01*
X80010000Y-44958000D02*
X80712800Y-45660800D01*
X76490500Y-35850500D02*
X76490500Y-35052000D01*
X79806800Y-55524400D02*
X78532400Y-54250000D01*
X76490500Y-35284500D02*
X76490500Y-35052000D01*
X76200000Y-35575000D02*
X76490500Y-35284500D01*
X79502000Y-38862000D02*
X76490500Y-35850500D01*
X80712800Y-45660800D02*
X80712800Y-54618400D01*
X80712800Y-54618400D02*
X79806800Y-55524400D01*
%TO.N,Net-(D2-A)*%
X70875000Y-58784600D02*
X71535400Y-59445000D01*
X78051300Y-58102500D02*
X81162800Y-54991000D01*
X71535400Y-59445000D02*
X75479800Y-59445000D01*
X81162800Y-44769828D02*
X80903982Y-44511010D01*
X79465500Y-37555500D02*
X80501503Y-38591503D01*
X75479800Y-59445000D02*
X76822300Y-58102500D01*
X80501503Y-38591503D02*
X80501503Y-38862000D01*
X69850000Y-55880000D02*
X70875000Y-56905000D01*
X81162800Y-54991000D02*
X81162800Y-44769828D01*
X76822300Y-58102500D02*
X78051300Y-58102500D01*
X79465500Y-35052000D02*
X79465500Y-37555500D01*
X70875000Y-56905000D02*
X70875000Y-58784600D01*
%TO.N,Net-(U2-EN)*%
X75184000Y-57150000D02*
X75687500Y-56646500D01*
X75184000Y-56344200D02*
X75187500Y-56340700D01*
X76589800Y-43942000D02*
X77266800Y-44619000D01*
X75687500Y-56646500D02*
X75687500Y-55437500D01*
X75187500Y-56340700D02*
X75187500Y-55437500D01*
X73480431Y-43942000D02*
X76589800Y-43942000D01*
X71650000Y-38116000D02*
X70878195Y-38116000D01*
X69670500Y-39952500D02*
X71365000Y-41647000D01*
X71610000Y-41647000D02*
X72635000Y-42672000D01*
X71365000Y-41647000D02*
X71610000Y-41647000D01*
X72635000Y-43096569D02*
X73480431Y-43942000D01*
X75708600Y-46177200D02*
X77266800Y-44619000D01*
X70620000Y-38616000D02*
X70612000Y-38608000D01*
X71650000Y-38616000D02*
X70620000Y-38616000D01*
X69670500Y-39323695D02*
X69670500Y-39952500D01*
X70612000Y-38608000D02*
X70386195Y-38608000D01*
X75539600Y-46177200D02*
X75708600Y-46177200D01*
X70386195Y-38608000D02*
X69670500Y-39323695D01*
X72635000Y-42672000D02*
X72635000Y-43096569D01*
X70878195Y-38116000D02*
X70386195Y-38608000D01*
X75184000Y-57150000D02*
X75184000Y-56344200D01*
%TO.N,Net-(L1-Pad2)*%
X75930000Y-38116000D02*
X75946000Y-38100000D01*
X77266800Y-41097200D02*
X77724000Y-40640000D01*
X77266800Y-42249000D02*
X77266800Y-41097200D01*
X75170000Y-38116000D02*
X75930000Y-38116000D01*
X75430000Y-38616000D02*
X75946000Y-38100000D01*
X75170000Y-38616000D02*
X75430000Y-38616000D01*
%TO.N,Net-(U1-ILIM)*%
X74687500Y-55437500D02*
X74687500Y-56427300D01*
X74523600Y-56591200D02*
X73812400Y-55880000D01*
X74687500Y-56427300D02*
X74523600Y-56591200D01*
X73812400Y-55880000D02*
X72136000Y-55880000D01*
%TO.N,Net-(U1-ISET)*%
X74000000Y-53250000D02*
X73417600Y-53250000D01*
X73417600Y-53250000D02*
X71120000Y-50952400D01*
X71120000Y-50952400D02*
X71120000Y-49530000D01*
%TO.N,Net-(U1-TS)*%
X74687500Y-50787902D02*
X74839342Y-50636060D01*
X74687500Y-52562500D02*
X74687500Y-50787902D01*
%TO.N,Net-(U2-PG)*%
X74885000Y-40116000D02*
X76438000Y-40116000D01*
X76708000Y-40386000D02*
X76708000Y-40894000D01*
X76438000Y-40116000D02*
X76708000Y-40386000D01*
X76708000Y-40894000D02*
X75438000Y-40894000D01*
X75438000Y-40894000D02*
X73660000Y-42672000D01*
%TO.N,Net-(U2-FB)*%
X70395500Y-39624000D02*
X71642000Y-39624000D01*
X71642000Y-39624000D02*
X71650000Y-39616000D01*
%TD*%
%TA.AperFunction,Conductor*%
%TO.N,GND*%
G36*
X86302539Y-32328985D02*
G01*
X86348294Y-32381789D01*
X86359500Y-32433300D01*
X86359500Y-34004611D01*
X86339815Y-34071650D01*
X86287011Y-34117405D01*
X86217853Y-34127349D01*
X86154297Y-34098324D01*
X86132821Y-34066144D01*
X86129466Y-34068214D01*
X86029816Y-33906655D01*
X85905844Y-33782683D01*
X85756621Y-33690642D01*
X85590195Y-33635493D01*
X85490608Y-33625319D01*
X85484331Y-33625000D01*
X85225000Y-33625000D01*
X85225000Y-36375000D01*
X85484331Y-36375000D01*
X85490608Y-36374680D01*
X85590195Y-36364506D01*
X85756621Y-36309357D01*
X85905844Y-36217316D01*
X86029816Y-36093344D01*
X86129466Y-35931786D01*
X86133221Y-35934102D01*
X86157563Y-35898942D01*
X86222078Y-35872117D01*
X86290854Y-35884429D01*
X86342056Y-35931970D01*
X86359500Y-35995388D01*
X86359500Y-37178676D01*
X86339815Y-37245715D01*
X86287011Y-37291470D01*
X86217853Y-37301414D01*
X86154297Y-37272389D01*
X86134493Y-37250604D01*
X86021105Y-37091376D01*
X85869066Y-36946407D01*
X85692344Y-36832833D01*
X85497314Y-36754755D01*
X85291038Y-36715000D01*
X85086000Y-36715000D01*
X85086000Y-37515000D01*
X84586000Y-37515000D01*
X84586000Y-36715000D01*
X84436550Y-36715000D01*
X84430640Y-36715281D01*
X84276879Y-36729964D01*
X84075312Y-36789149D01*
X83888587Y-36885412D01*
X83723461Y-37015269D01*
X83585888Y-37174036D01*
X83480853Y-37355963D01*
X83412143Y-37554488D01*
X83410631Y-37564999D01*
X83410632Y-37565000D01*
X84319889Y-37565000D01*
X84280390Y-37589457D01*
X84212799Y-37678962D01*
X84182105Y-37786840D01*
X84192454Y-37898521D01*
X84242448Y-37998922D01*
X84314931Y-38065000D01*
X83386000Y-38065000D01*
X83386000Y-38071185D01*
X83366315Y-38138224D01*
X83313511Y-38183979D01*
X83244353Y-38193923D01*
X83180797Y-38164898D01*
X83161408Y-38143399D01*
X83161173Y-38143378D01*
X82555804Y-38748746D01*
X82545238Y-38682031D01*
X82484118Y-38562077D01*
X82388923Y-38466882D01*
X82268969Y-38405762D01*
X82202251Y-38395195D01*
X82807620Y-37789825D01*
X82750837Y-37750066D01*
X82556576Y-37659480D01*
X82349529Y-37604002D01*
X82135999Y-37585320D01*
X81922470Y-37604002D01*
X81715422Y-37659480D01*
X81521161Y-37750066D01*
X81464378Y-37789824D01*
X82069748Y-38395194D01*
X82003031Y-38405762D01*
X81883077Y-38466882D01*
X81787882Y-38562077D01*
X81726762Y-38682031D01*
X81716195Y-38748748D01*
X81110825Y-38143378D01*
X81097749Y-38144523D01*
X81029249Y-38130757D01*
X81014064Y-38121318D01*
X80954233Y-38077849D01*
X80954229Y-38077847D01*
X80827790Y-38021552D01*
X80790545Y-37995954D01*
X80127319Y-37332727D01*
X80093834Y-37271404D01*
X80091000Y-37245046D01*
X80091000Y-36503159D01*
X80110685Y-36436120D01*
X80163489Y-36390365D01*
X80175996Y-36385453D01*
X80207541Y-36375000D01*
X80247334Y-36361814D01*
X80331639Y-36309814D01*
X80396655Y-36269711D01*
X80520711Y-36145655D01*
X80612814Y-35996334D01*
X80624209Y-35961946D01*
X80663980Y-35904500D01*
X80728496Y-35877676D01*
X80797272Y-35889990D01*
X80847453Y-35935851D01*
X80944788Y-36093655D01*
X81068844Y-36217711D01*
X81218163Y-36309813D01*
X81384702Y-36364999D01*
X81484359Y-36375180D01*
X81484360Y-36375180D01*
X81487492Y-36375500D01*
X81490641Y-36375500D01*
X82509359Y-36375500D01*
X82512508Y-36375500D01*
X82615297Y-36364999D01*
X82781834Y-36309814D01*
X82782642Y-36309316D01*
X82931155Y-36217711D01*
X83055211Y-36093655D01*
X83147313Y-35944336D01*
X83147385Y-35944121D01*
X83202499Y-35777797D01*
X83213000Y-35675008D01*
X83213000Y-35250000D01*
X83762500Y-35250000D01*
X83762500Y-35671830D01*
X83762819Y-35678108D01*
X83772993Y-35777695D01*
X83828142Y-35944121D01*
X83920183Y-36093344D01*
X84044155Y-36217316D01*
X84193378Y-36309357D01*
X84359804Y-36364506D01*
X84459391Y-36374680D01*
X84465669Y-36375000D01*
X84725000Y-36375000D01*
X84725000Y-35250000D01*
X83762500Y-35250000D01*
X83213000Y-35250000D01*
X83213000Y-34750000D01*
X83762500Y-34750000D01*
X84725000Y-34750000D01*
X84725000Y-33625000D01*
X84465669Y-33625000D01*
X84459391Y-33625319D01*
X84359804Y-33635493D01*
X84193378Y-33690642D01*
X84044155Y-33782683D01*
X83920183Y-33906655D01*
X83828142Y-34055878D01*
X83772993Y-34222304D01*
X83762819Y-34321891D01*
X83762500Y-34328169D01*
X83762500Y-34750000D01*
X83213000Y-34750000D01*
X83213000Y-34324992D01*
X83202499Y-34222203D01*
X83171067Y-34127349D01*
X83147313Y-34055663D01*
X83055211Y-33906344D01*
X82931155Y-33782288D01*
X82781836Y-33690186D01*
X82615297Y-33635000D01*
X82515640Y-33624819D01*
X82515621Y-33624818D01*
X82512508Y-33624500D01*
X82509359Y-33624500D01*
X81560453Y-33624500D01*
X81493414Y-33604815D01*
X81472772Y-33588181D01*
X81300802Y-33416211D01*
X81287906Y-33400113D01*
X81236775Y-33352098D01*
X81233978Y-33349387D01*
X81217227Y-33332636D01*
X81214471Y-33329880D01*
X81211290Y-33327412D01*
X81202422Y-33319837D01*
X81170582Y-33289938D01*
X81153024Y-33280285D01*
X81136764Y-33269604D01*
X81120936Y-33257327D01*
X81080851Y-33239980D01*
X81070361Y-33234841D01*
X81032091Y-33213802D01*
X81012691Y-33208821D01*
X80994284Y-33202519D01*
X80975897Y-33194562D01*
X80932758Y-33187729D01*
X80921324Y-33185361D01*
X80879019Y-33174500D01*
X80858984Y-33174500D01*
X80839586Y-33172973D01*
X80832162Y-33171797D01*
X80819805Y-33169840D01*
X80819804Y-33169840D01*
X80794468Y-33172235D01*
X80776325Y-33173950D01*
X80764656Y-33174500D01*
X67564744Y-33174500D01*
X67544237Y-33172235D01*
X67474127Y-33174439D01*
X67470232Y-33174500D01*
X67442650Y-33174500D01*
X67438805Y-33174985D01*
X67438780Y-33174987D01*
X67438653Y-33175004D01*
X67427033Y-33175918D01*
X67383369Y-33177290D01*
X67364129Y-33182880D01*
X67345081Y-33186825D01*
X67325209Y-33189335D01*
X67284599Y-33205413D01*
X67273554Y-33209194D01*
X67231610Y-33221381D01*
X67214365Y-33231579D01*
X67196904Y-33240133D01*
X67178267Y-33247512D01*
X67142931Y-33273185D01*
X67133174Y-33279595D01*
X67095580Y-33301829D01*
X67081413Y-33315996D01*
X67066624Y-33328626D01*
X67050413Y-33340404D01*
X67022572Y-33374058D01*
X67014711Y-33382697D01*
X62449208Y-37948199D01*
X62433110Y-37961096D01*
X62385096Y-38012225D01*
X62382392Y-38015016D01*
X62365628Y-38031780D01*
X62365621Y-38031787D01*
X62362880Y-38034529D01*
X62360499Y-38037597D01*
X62360490Y-38037608D01*
X62360411Y-38037711D01*
X62352842Y-38046572D01*
X62322935Y-38078420D01*
X62313285Y-38095974D01*
X62302609Y-38112228D01*
X62290326Y-38128063D01*
X62272975Y-38168158D01*
X62267838Y-38178644D01*
X62246802Y-38216907D01*
X62241821Y-38236309D01*
X62235520Y-38254711D01*
X62227561Y-38273102D01*
X62220728Y-38316242D01*
X62218360Y-38327674D01*
X62207500Y-38369977D01*
X62207500Y-38390016D01*
X62205973Y-38409414D01*
X62204851Y-38416501D01*
X62202840Y-38429196D01*
X62206950Y-38472673D01*
X62207500Y-38484343D01*
X62207500Y-40906256D01*
X62205235Y-40926766D01*
X62207439Y-40996872D01*
X62207500Y-41000767D01*
X62207500Y-41028350D01*
X62207988Y-41032219D01*
X62207989Y-41032225D01*
X62208004Y-41032343D01*
X62208918Y-41043967D01*
X62210290Y-41087626D01*
X62215879Y-41106860D01*
X62219825Y-41125916D01*
X62222335Y-41145792D01*
X62238414Y-41186404D01*
X62242197Y-41197451D01*
X62254382Y-41239391D01*
X62264580Y-41256635D01*
X62273136Y-41274100D01*
X62280514Y-41292732D01*
X62280515Y-41292733D01*
X62306180Y-41328059D01*
X62312593Y-41337822D01*
X62334826Y-41375416D01*
X62334829Y-41375419D01*
X62334830Y-41375420D01*
X62348995Y-41389585D01*
X62361627Y-41404375D01*
X62373406Y-41420587D01*
X62407058Y-41448426D01*
X62415699Y-41456289D01*
X62667762Y-41708352D01*
X62701247Y-41769675D01*
X62699856Y-41828126D01*
X62672936Y-41928593D01*
X62652340Y-42164000D01*
X62672936Y-42399407D01*
X62705931Y-42522545D01*
X62734097Y-42627663D01*
X62833965Y-42841830D01*
X62969505Y-43035401D01*
X63136599Y-43202495D01*
X63322160Y-43332426D01*
X63365783Y-43387002D01*
X63372976Y-43456501D01*
X63341454Y-43518855D01*
X63322158Y-43535575D01*
X63158936Y-43649865D01*
X63136595Y-43665508D01*
X62969505Y-43832598D01*
X62833965Y-44026170D01*
X62734097Y-44240336D01*
X62672936Y-44468592D01*
X62652340Y-44704000D01*
X62672936Y-44939407D01*
X62701144Y-45044679D01*
X62734097Y-45167663D01*
X62833965Y-45381830D01*
X62969505Y-45575401D01*
X63136599Y-45742495D01*
X63322160Y-45872426D01*
X63365783Y-45927002D01*
X63372976Y-45996501D01*
X63341454Y-46058855D01*
X63322158Y-46075575D01*
X63142151Y-46201618D01*
X63136595Y-46205508D01*
X62969505Y-46372598D01*
X62833965Y-46566170D01*
X62734097Y-46780336D01*
X62672936Y-47008592D01*
X62652340Y-47243999D01*
X62672936Y-47479407D01*
X62711379Y-47622877D01*
X62734097Y-47707663D01*
X62833965Y-47921830D01*
X62969505Y-48115401D01*
X63136599Y-48282495D01*
X63322596Y-48412732D01*
X63366219Y-48467307D01*
X63373412Y-48536806D01*
X63341890Y-48599160D01*
X63322595Y-48615880D01*
X63136919Y-48745892D01*
X62969890Y-48912921D01*
X62834400Y-49106421D01*
X62734569Y-49320507D01*
X62677364Y-49533999D01*
X62677364Y-49534000D01*
X63574314Y-49534000D01*
X63548507Y-49574156D01*
X63508000Y-49712111D01*
X63508000Y-49855889D01*
X63548507Y-49993844D01*
X63574314Y-50034000D01*
X62677364Y-50034000D01*
X62734569Y-50247492D01*
X62834399Y-50461576D01*
X62969893Y-50655081D01*
X63136918Y-50822106D01*
X63322595Y-50952119D01*
X63366219Y-51006696D01*
X63373412Y-51076195D01*
X63341890Y-51138549D01*
X63322595Y-51155269D01*
X63191701Y-51246922D01*
X63152155Y-51274613D01*
X63136595Y-51285508D01*
X62969505Y-51452598D01*
X62833965Y-51646170D01*
X62734097Y-51860336D01*
X62672936Y-52088592D01*
X62652340Y-52323999D01*
X62672936Y-52559407D01*
X62694261Y-52638991D01*
X62734097Y-52787663D01*
X62833965Y-53001830D01*
X62969505Y-53195401D01*
X63136599Y-53362495D01*
X63322160Y-53492426D01*
X63365783Y-53547002D01*
X63372976Y-53616501D01*
X63341454Y-53678855D01*
X63322159Y-53695575D01*
X63136595Y-53825508D01*
X62969505Y-53992598D01*
X62833965Y-54186170D01*
X62734097Y-54400336D01*
X62672936Y-54628592D01*
X62652340Y-54864000D01*
X62672936Y-55099407D01*
X62706144Y-55223339D01*
X62734097Y-55327663D01*
X62833965Y-55541830D01*
X62969505Y-55735401D01*
X63136599Y-55902495D01*
X63322160Y-56032426D01*
X63365783Y-56087002D01*
X63372976Y-56156501D01*
X63341454Y-56218855D01*
X63322158Y-56235575D01*
X63201892Y-56319787D01*
X63136595Y-56365508D01*
X62969505Y-56532598D01*
X62833965Y-56726170D01*
X62734097Y-56940336D01*
X62672936Y-57168592D01*
X62652340Y-57403999D01*
X62672936Y-57639407D01*
X62714782Y-57795579D01*
X62734097Y-57867663D01*
X62833965Y-58081830D01*
X62969505Y-58275401D01*
X63136599Y-58442495D01*
X63322160Y-58572426D01*
X63365783Y-58627002D01*
X63372976Y-58696501D01*
X63341454Y-58758855D01*
X63322159Y-58775575D01*
X63136595Y-58905508D01*
X62969505Y-59072598D01*
X62833965Y-59266170D01*
X62734097Y-59480336D01*
X62672936Y-59708592D01*
X62652340Y-59944000D01*
X62672936Y-60179407D01*
X62706895Y-60306144D01*
X62734097Y-60407663D01*
X62833965Y-60621830D01*
X62969505Y-60815401D01*
X63136599Y-60982495D01*
X63322160Y-61112426D01*
X63365783Y-61167002D01*
X63372976Y-61236501D01*
X63341454Y-61298855D01*
X63322158Y-61315575D01*
X63179947Y-61415153D01*
X63136595Y-61445508D01*
X62969505Y-61612598D01*
X62833965Y-61806170D01*
X62734097Y-62020336D01*
X62672936Y-62248592D01*
X62652340Y-62483999D01*
X62672936Y-62719407D01*
X62698496Y-62814798D01*
X62734097Y-62947663D01*
X62833965Y-63161830D01*
X62969505Y-63355401D01*
X63136599Y-63522495D01*
X63322160Y-63652426D01*
X63365783Y-63707002D01*
X63372976Y-63776501D01*
X63341454Y-63838855D01*
X63322159Y-63855575D01*
X63136595Y-63985508D01*
X62969505Y-64152598D01*
X62833965Y-64346170D01*
X62734097Y-64560336D01*
X62672936Y-64788592D01*
X62652340Y-65024000D01*
X62672936Y-65259407D01*
X62717709Y-65426502D01*
X62734097Y-65487663D01*
X62833965Y-65701830D01*
X62969505Y-65895401D01*
X63136599Y-66062495D01*
X63322160Y-66192426D01*
X63365783Y-66247002D01*
X63372976Y-66316501D01*
X63341454Y-66378855D01*
X63322159Y-66395575D01*
X63136595Y-66525508D01*
X62969505Y-66692598D01*
X62833965Y-66886170D01*
X62734097Y-67100336D01*
X62672936Y-67328592D01*
X62652340Y-67564000D01*
X62672936Y-67799407D01*
X62717709Y-67966502D01*
X62734097Y-68027663D01*
X62833965Y-68241830D01*
X62969505Y-68435401D01*
X63136599Y-68602495D01*
X63322596Y-68732732D01*
X63366219Y-68787307D01*
X63373412Y-68856806D01*
X63341890Y-68919160D01*
X63322595Y-68935880D01*
X63136919Y-69065892D01*
X62969890Y-69232921D01*
X62834400Y-69426421D01*
X62734569Y-69640507D01*
X62677364Y-69853999D01*
X62677364Y-69854000D01*
X63574314Y-69854000D01*
X63548507Y-69894156D01*
X63508000Y-70032111D01*
X63508000Y-70175889D01*
X63548507Y-70313844D01*
X63574314Y-70354000D01*
X62677364Y-70354000D01*
X62734569Y-70567492D01*
X62834399Y-70781576D01*
X62969893Y-70975081D01*
X63136918Y-71142106D01*
X63322595Y-71272119D01*
X63366219Y-71326696D01*
X63373412Y-71396195D01*
X63341890Y-71458549D01*
X63322595Y-71475269D01*
X63136595Y-71605508D01*
X62969505Y-71772598D01*
X62833965Y-71966170D01*
X62734097Y-72180336D01*
X62672936Y-72408592D01*
X62652340Y-72644000D01*
X62672936Y-72879407D01*
X62717709Y-73046501D01*
X62734097Y-73107663D01*
X62833965Y-73321830D01*
X62969505Y-73515401D01*
X63136599Y-73682495D01*
X63322160Y-73812426D01*
X63365783Y-73867002D01*
X63372976Y-73936501D01*
X63341454Y-73998855D01*
X63322159Y-74015575D01*
X63136595Y-74145508D01*
X62969505Y-74312598D01*
X62833965Y-74506170D01*
X62734097Y-74720336D01*
X62672936Y-74948592D01*
X62652340Y-75183999D01*
X62672936Y-75419407D01*
X62698496Y-75514798D01*
X62734097Y-75647663D01*
X62833965Y-75861830D01*
X62969505Y-76055401D01*
X63136599Y-76222495D01*
X63322160Y-76352426D01*
X63365783Y-76407002D01*
X63372976Y-76476501D01*
X63341454Y-76538855D01*
X63322159Y-76555575D01*
X63136595Y-76685508D01*
X62969505Y-76852598D01*
X62833965Y-77046170D01*
X62734097Y-77260336D01*
X62672936Y-77488592D01*
X62652340Y-77724000D01*
X62672936Y-77959407D01*
X62717709Y-78126501D01*
X62734097Y-78187663D01*
X62833965Y-78401830D01*
X62969505Y-78595401D01*
X63136599Y-78762495D01*
X63322160Y-78892426D01*
X63365783Y-78947002D01*
X63372976Y-79016501D01*
X63341454Y-79078855D01*
X63322159Y-79095575D01*
X63136595Y-79225508D01*
X62969505Y-79392598D01*
X62833965Y-79586170D01*
X62734097Y-79800336D01*
X62672936Y-80028592D01*
X62652340Y-80263999D01*
X62672936Y-80499407D01*
X62698496Y-80594798D01*
X62734097Y-80727663D01*
X62833965Y-80941830D01*
X62969505Y-81135401D01*
X63136599Y-81302495D01*
X63322160Y-81432426D01*
X63365783Y-81487002D01*
X63372976Y-81556501D01*
X63341454Y-81618855D01*
X63322159Y-81635575D01*
X63136595Y-81765508D01*
X62969505Y-81932598D01*
X62833965Y-82126170D01*
X62734097Y-82340336D01*
X62672936Y-82568592D01*
X62652340Y-82804000D01*
X62672936Y-83039407D01*
X62717709Y-83206501D01*
X62734097Y-83267663D01*
X62833965Y-83481830D01*
X62969505Y-83675401D01*
X63136599Y-83842495D01*
X63322160Y-83972426D01*
X63365783Y-84027002D01*
X63372976Y-84096501D01*
X63341454Y-84158855D01*
X63322159Y-84175575D01*
X63136595Y-84305508D01*
X62969505Y-84472598D01*
X62833965Y-84666170D01*
X62734097Y-84880336D01*
X62672936Y-85108592D01*
X62652340Y-85343999D01*
X62672936Y-85579407D01*
X62717709Y-85746501D01*
X62734097Y-85807663D01*
X62833965Y-86021830D01*
X62969505Y-86215401D01*
X63136599Y-86382495D01*
X63322596Y-86512732D01*
X63366219Y-86567307D01*
X63373412Y-86636806D01*
X63341890Y-86699160D01*
X63322595Y-86715880D01*
X63136919Y-86845892D01*
X62969890Y-87012921D01*
X62834400Y-87206421D01*
X62734569Y-87420507D01*
X62677364Y-87633999D01*
X62677364Y-87634000D01*
X63574314Y-87634000D01*
X63548507Y-87674156D01*
X63508000Y-87812111D01*
X63508000Y-87955889D01*
X63548507Y-88093844D01*
X63574314Y-88134000D01*
X62677364Y-88134000D01*
X62734569Y-88347492D01*
X62834399Y-88561576D01*
X62969893Y-88755081D01*
X63136918Y-88922106D01*
X63330423Y-89057600D01*
X63544509Y-89157430D01*
X63758000Y-89214634D01*
X63758000Y-88319501D01*
X63865685Y-88368680D01*
X63972237Y-88384000D01*
X64043763Y-88384000D01*
X64150315Y-88368680D01*
X64257999Y-88319501D01*
X64257999Y-89214633D01*
X64471491Y-89157430D01*
X64685576Y-89057600D01*
X64879081Y-88922106D01*
X65046109Y-88755078D01*
X65176119Y-88569405D01*
X65230696Y-88525780D01*
X65300194Y-88518586D01*
X65362549Y-88550109D01*
X65379265Y-88569400D01*
X65509505Y-88755401D01*
X65676599Y-88922495D01*
X65870170Y-89058035D01*
X66084337Y-89157903D01*
X66296059Y-89214633D01*
X66312592Y-89219063D01*
X66547999Y-89239659D01*
X66547999Y-89239658D01*
X66548000Y-89239659D01*
X66783408Y-89219063D01*
X67011663Y-89157903D01*
X67225830Y-89058035D01*
X67419401Y-88922495D01*
X67586495Y-88755401D01*
X67722035Y-88561830D01*
X67821903Y-88347663D01*
X67883063Y-88119408D01*
X67903659Y-87884000D01*
X67883063Y-87648592D01*
X67821903Y-87420337D01*
X67722035Y-87206171D01*
X67586495Y-87012599D01*
X67419401Y-86845505D01*
X67233839Y-86715573D01*
X67190216Y-86660998D01*
X67183022Y-86591500D01*
X67214545Y-86529145D01*
X67233837Y-86512428D01*
X67419401Y-86382495D01*
X67586495Y-86215401D01*
X67722035Y-86021830D01*
X67821903Y-85807663D01*
X67883063Y-85579408D01*
X67903659Y-85344000D01*
X67883063Y-85108592D01*
X67821903Y-84880337D01*
X67722035Y-84666171D01*
X67586495Y-84472599D01*
X67419401Y-84305505D01*
X67233839Y-84175573D01*
X67190215Y-84120997D01*
X67183023Y-84051498D01*
X67214545Y-83989144D01*
X67233831Y-83972432D01*
X67419401Y-83842495D01*
X67586495Y-83675401D01*
X67722035Y-83481830D01*
X67821903Y-83267663D01*
X67883063Y-83039408D01*
X67903659Y-82804000D01*
X67883063Y-82568592D01*
X67821903Y-82340337D01*
X67722035Y-82126171D01*
X67586495Y-81932599D01*
X67419401Y-81765505D01*
X67233402Y-81635267D01*
X67189780Y-81580692D01*
X67182587Y-81511193D01*
X67214109Y-81448839D01*
X67233405Y-81432119D01*
X67419078Y-81302109D01*
X67586106Y-81135081D01*
X67721600Y-80941576D01*
X67821430Y-80727492D01*
X67878636Y-80514000D01*
X66981686Y-80514000D01*
X67007493Y-80473844D01*
X67048000Y-80335889D01*
X67048000Y-80192111D01*
X67007493Y-80054156D01*
X66981686Y-80014000D01*
X67878636Y-80014000D01*
X67878635Y-80013999D01*
X67821430Y-79800507D01*
X67721599Y-79586421D01*
X67586109Y-79392921D01*
X67419081Y-79225893D01*
X67233404Y-79095880D01*
X67189780Y-79041303D01*
X67182587Y-78971804D01*
X67214109Y-78909450D01*
X67233399Y-78892734D01*
X67419401Y-78762495D01*
X67586495Y-78595401D01*
X67722035Y-78401830D01*
X67821903Y-78187663D01*
X67883063Y-77959408D01*
X67903659Y-77724000D01*
X67883063Y-77488592D01*
X67821903Y-77260337D01*
X67722035Y-77046171D01*
X67586495Y-76852599D01*
X67419401Y-76685505D01*
X67233402Y-76555267D01*
X67189780Y-76500692D01*
X67182587Y-76431193D01*
X67214109Y-76368839D01*
X67233405Y-76352119D01*
X67419078Y-76222109D01*
X67586106Y-76055081D01*
X67721600Y-75861576D01*
X67821430Y-75647492D01*
X67878636Y-75434000D01*
X66981686Y-75434000D01*
X67007493Y-75393844D01*
X67048000Y-75255889D01*
X67048000Y-75112111D01*
X67007493Y-74974156D01*
X66981686Y-74934000D01*
X67878636Y-74934000D01*
X67878635Y-74933999D01*
X67821430Y-74720507D01*
X67721599Y-74506421D01*
X67586109Y-74312921D01*
X67419081Y-74145893D01*
X67233404Y-74015880D01*
X67189780Y-73961303D01*
X67182587Y-73891804D01*
X67214109Y-73829450D01*
X67233399Y-73812734D01*
X67419401Y-73682495D01*
X67586495Y-73515401D01*
X67722035Y-73321830D01*
X67821903Y-73107663D01*
X67883063Y-72879408D01*
X67903659Y-72644000D01*
X67883063Y-72408592D01*
X67821903Y-72180337D01*
X67722035Y-71966171D01*
X67586495Y-71772599D01*
X67419401Y-71605505D01*
X67233839Y-71475573D01*
X67190216Y-71420998D01*
X67183022Y-71351500D01*
X67214545Y-71289145D01*
X67233837Y-71272428D01*
X67419401Y-71142495D01*
X67586495Y-70975401D01*
X67722035Y-70781830D01*
X67821903Y-70567663D01*
X67883063Y-70339408D01*
X67903659Y-70104000D01*
X67883063Y-69868592D01*
X67821903Y-69640337D01*
X67722035Y-69426171D01*
X67586495Y-69232599D01*
X67419401Y-69065505D01*
X67233839Y-68935573D01*
X67190216Y-68880998D01*
X67183022Y-68811500D01*
X67214545Y-68749145D01*
X67233837Y-68732428D01*
X67419401Y-68602495D01*
X67586495Y-68435401D01*
X67722035Y-68241830D01*
X67821903Y-68027663D01*
X67883063Y-67799408D01*
X67903659Y-67564000D01*
X67883063Y-67328592D01*
X67821903Y-67100337D01*
X67722035Y-66886171D01*
X67586495Y-66692599D01*
X67419401Y-66525505D01*
X67233839Y-66395573D01*
X67190216Y-66340998D01*
X67183022Y-66271500D01*
X67214545Y-66209145D01*
X67233837Y-66192428D01*
X67419401Y-66062495D01*
X67586495Y-65895401D01*
X67722035Y-65701830D01*
X67821903Y-65487663D01*
X67883063Y-65259408D01*
X67903659Y-65024000D01*
X67883063Y-64788592D01*
X67821903Y-64560337D01*
X67722035Y-64346171D01*
X67586495Y-64152599D01*
X67419401Y-63985505D01*
X67233402Y-63855267D01*
X67189780Y-63800692D01*
X67182587Y-63731193D01*
X67214109Y-63668839D01*
X67233405Y-63652119D01*
X67419078Y-63522109D01*
X67586106Y-63355081D01*
X67721600Y-63161576D01*
X67821430Y-62947492D01*
X67878636Y-62734000D01*
X66981686Y-62734000D01*
X67007493Y-62693844D01*
X67048000Y-62555889D01*
X67048000Y-62412111D01*
X67007493Y-62274156D01*
X66981686Y-62234000D01*
X67878636Y-62234000D01*
X67878635Y-62233999D01*
X67821430Y-62020507D01*
X67721599Y-61806421D01*
X67586109Y-61612921D01*
X67419081Y-61445893D01*
X67233404Y-61315880D01*
X67189780Y-61261303D01*
X67182587Y-61191804D01*
X67214109Y-61129450D01*
X67233399Y-61112734D01*
X67419401Y-60982495D01*
X67586495Y-60815401D01*
X67722035Y-60621830D01*
X67821903Y-60407663D01*
X67883063Y-60179408D01*
X67903659Y-59944000D01*
X67901347Y-59917580D01*
X67883063Y-59708592D01*
X67862877Y-59633256D01*
X67821903Y-59480337D01*
X67722035Y-59266171D01*
X67586495Y-59072599D01*
X67419401Y-58905505D01*
X67233839Y-58775573D01*
X67190216Y-58720998D01*
X67183022Y-58651500D01*
X67214545Y-58589145D01*
X67233837Y-58572428D01*
X67419401Y-58442495D01*
X67586495Y-58275401D01*
X67722035Y-58081830D01*
X67821903Y-57867663D01*
X67883063Y-57639408D01*
X67903659Y-57404000D01*
X67883063Y-57168592D01*
X67821903Y-56940337D01*
X67722035Y-56726171D01*
X67586495Y-56532599D01*
X67419401Y-56365505D01*
X67233402Y-56235267D01*
X67189780Y-56180692D01*
X67182587Y-56111193D01*
X67214109Y-56048839D01*
X67233405Y-56032119D01*
X67419078Y-55902109D01*
X67586106Y-55735081D01*
X67721600Y-55541576D01*
X67821430Y-55327492D01*
X67878636Y-55114000D01*
X66981686Y-55114000D01*
X67007493Y-55073844D01*
X67048000Y-54935889D01*
X67048000Y-54792111D01*
X67007493Y-54654156D01*
X66981686Y-54614000D01*
X67878636Y-54614000D01*
X67878635Y-54613999D01*
X67821430Y-54400507D01*
X67721599Y-54186421D01*
X67586109Y-53992921D01*
X67419081Y-53825893D01*
X67233404Y-53695880D01*
X67189780Y-53641303D01*
X67182587Y-53571804D01*
X67214109Y-53509450D01*
X67233399Y-53492734D01*
X67419401Y-53362495D01*
X67586495Y-53195401D01*
X67722035Y-53001830D01*
X67821903Y-52787663D01*
X67883063Y-52559408D01*
X67903659Y-52324000D01*
X67883063Y-52088592D01*
X67821903Y-51860337D01*
X67722035Y-51646171D01*
X67586495Y-51452599D01*
X67419401Y-51285505D01*
X67233839Y-51155573D01*
X67190216Y-51100998D01*
X67183022Y-51031500D01*
X67214545Y-50969145D01*
X67233837Y-50952428D01*
X67419401Y-50822495D01*
X67586495Y-50655401D01*
X67722035Y-50461830D01*
X67821903Y-50247663D01*
X67883063Y-50019408D01*
X67903659Y-49784000D01*
X67883063Y-49548592D01*
X67821903Y-49320337D01*
X67722035Y-49106171D01*
X67586495Y-48912599D01*
X67419401Y-48745505D01*
X67233839Y-48615573D01*
X67190216Y-48560998D01*
X67183022Y-48491500D01*
X67214545Y-48429145D01*
X67233837Y-48412428D01*
X67419401Y-48282495D01*
X67586495Y-48115401D01*
X67722035Y-47921830D01*
X67821903Y-47707663D01*
X67883063Y-47479408D01*
X67903659Y-47244000D01*
X67883063Y-47008592D01*
X67821903Y-46780337D01*
X67722035Y-46566171D01*
X67586495Y-46372599D01*
X67419401Y-46205505D01*
X67233402Y-46075267D01*
X67189780Y-46020692D01*
X67182587Y-45951193D01*
X67214109Y-45888839D01*
X67233405Y-45872119D01*
X67419078Y-45742109D01*
X67586106Y-45575081D01*
X67721600Y-45381576D01*
X67782956Y-45250000D01*
X69943505Y-45250000D01*
X69996240Y-45435351D01*
X70095365Y-45634422D01*
X70229390Y-45811899D01*
X70393737Y-45961721D01*
X70482325Y-46016573D01*
X70528960Y-46068602D01*
X70540064Y-46137583D01*
X70512110Y-46201618D01*
X70482325Y-46227427D01*
X70393737Y-46282278D01*
X70229390Y-46432100D01*
X70095365Y-46609577D01*
X69996240Y-46808648D01*
X69943505Y-46994000D01*
X70870000Y-46994000D01*
X70870000Y-45250000D01*
X69943505Y-45250000D01*
X67782956Y-45250000D01*
X67821430Y-45167492D01*
X67878636Y-44954000D01*
X66981686Y-44954000D01*
X67007493Y-44913844D01*
X67048000Y-44775889D01*
X67048000Y-44632111D01*
X67007493Y-44494156D01*
X66981686Y-44454000D01*
X67878636Y-44454000D01*
X67878635Y-44453999D01*
X67821430Y-44240507D01*
X67721599Y-44026421D01*
X67586109Y-43832921D01*
X67419081Y-43665893D01*
X67233404Y-43535880D01*
X67189780Y-43481303D01*
X67182587Y-43411804D01*
X67214109Y-43349450D01*
X67233406Y-43332730D01*
X67251698Y-43319921D01*
X67317905Y-43297597D01*
X67322817Y-43297500D01*
X70026258Y-43297500D01*
X70093297Y-43317185D01*
X70125212Y-43346773D01*
X70229019Y-43484237D01*
X70393437Y-43634124D01*
X70549682Y-43730866D01*
X70596318Y-43782894D01*
X70607422Y-43851875D01*
X70579469Y-43915910D01*
X70549683Y-43941720D01*
X70393737Y-44038278D01*
X70229390Y-44188100D01*
X70095365Y-44365577D01*
X69996240Y-44564648D01*
X69943505Y-44750000D01*
X70874419Y-44750000D01*
X70822940Y-44805921D01*
X70776018Y-44912892D01*
X70766372Y-45029302D01*
X70795047Y-45142538D01*
X70858936Y-45240327D01*
X70951115Y-45312072D01*
X71061595Y-45350000D01*
X71149005Y-45350000D01*
X71235216Y-45335614D01*
X71337947Y-45280019D01*
X71370000Y-45245200D01*
X71370000Y-46995061D01*
X71288885Y-46931928D01*
X71178405Y-46894000D01*
X71090995Y-46894000D01*
X71004784Y-46908386D01*
X70902053Y-46963981D01*
X70822940Y-47049921D01*
X70776018Y-47156892D01*
X70766372Y-47273302D01*
X70795047Y-47386538D01*
X70858936Y-47484327D01*
X70871364Y-47494000D01*
X69943505Y-47494000D01*
X69996240Y-47679351D01*
X70095365Y-47878422D01*
X70229390Y-48055899D01*
X70393737Y-48205721D01*
X70515767Y-48281279D01*
X70562402Y-48333307D01*
X70573506Y-48402289D01*
X70545553Y-48466323D01*
X70515767Y-48492133D01*
X70393435Y-48567877D01*
X70229019Y-48717762D01*
X70094941Y-48895311D01*
X69995769Y-49094473D01*
X69934885Y-49308462D01*
X69914357Y-49530000D01*
X69934885Y-49751537D01*
X69995769Y-49965526D01*
X70094941Y-50164688D01*
X70229019Y-50342237D01*
X70360204Y-50461827D01*
X70393438Y-50492124D01*
X70435776Y-50518338D01*
X70482412Y-50570364D01*
X70494500Y-50623765D01*
X70494500Y-50869656D01*
X70492235Y-50890166D01*
X70494439Y-50960272D01*
X70494500Y-50964167D01*
X70494500Y-50991750D01*
X70494988Y-50995619D01*
X70494989Y-50995625D01*
X70495004Y-50995743D01*
X70495918Y-51007367D01*
X70497290Y-51051026D01*
X70502879Y-51070260D01*
X70506825Y-51089316D01*
X70509335Y-51109192D01*
X70525414Y-51149804D01*
X70529197Y-51160851D01*
X70541382Y-51202791D01*
X70551580Y-51220035D01*
X70560136Y-51237500D01*
X70567514Y-51256132D01*
X70567515Y-51256133D01*
X70593180Y-51291459D01*
X70599593Y-51301222D01*
X70621826Y-51338816D01*
X70621829Y-51338819D01*
X70621830Y-51338820D01*
X70635995Y-51352985D01*
X70648627Y-51367775D01*
X70660406Y-51383987D01*
X70694058Y-51411826D01*
X70702699Y-51419689D01*
X71731625Y-52448616D01*
X71765110Y-52509939D01*
X71760126Y-52579631D01*
X71718254Y-52635564D01*
X71709222Y-52641724D01*
X71561035Y-52733477D01*
X71396619Y-52883362D01*
X71262541Y-53060911D01*
X71163369Y-53260073D01*
X71136866Y-53353225D01*
X71099587Y-53412319D01*
X71036277Y-53441876D01*
X70967038Y-53432514D01*
X70913851Y-53387204D01*
X70898334Y-53353225D01*
X70871830Y-53260073D01*
X70772658Y-53060911D01*
X70638580Y-52883362D01*
X70474162Y-52733475D01*
X70285004Y-52616354D01*
X70192655Y-52580578D01*
X70077540Y-52535982D01*
X69858843Y-52495100D01*
X69636357Y-52495100D01*
X69417660Y-52535982D01*
X69210195Y-52616354D01*
X69021037Y-52733475D01*
X68856619Y-52883362D01*
X68722541Y-53060911D01*
X68623369Y-53260073D01*
X68562485Y-53474062D01*
X68541957Y-53695600D01*
X68562485Y-53917137D01*
X68623369Y-54131126D01*
X68722541Y-54330288D01*
X68722542Y-54330289D01*
X68778734Y-54404700D01*
X68805096Y-54439608D01*
X68829788Y-54504969D01*
X68815223Y-54573304D01*
X68793823Y-54602016D01*
X68441208Y-54954630D01*
X68425110Y-54967527D01*
X68377096Y-55018656D01*
X68374392Y-55021447D01*
X68357628Y-55038211D01*
X68357621Y-55038218D01*
X68354880Y-55040960D01*
X68352499Y-55044028D01*
X68352490Y-55044039D01*
X68352411Y-55044142D01*
X68344842Y-55053003D01*
X68314935Y-55084851D01*
X68305285Y-55102405D01*
X68294609Y-55118659D01*
X68282326Y-55134494D01*
X68264975Y-55174589D01*
X68259838Y-55185075D01*
X68238802Y-55223338D01*
X68233821Y-55242740D01*
X68227520Y-55261142D01*
X68219561Y-55279533D01*
X68212728Y-55322673D01*
X68210360Y-55334105D01*
X68199500Y-55376408D01*
X68199500Y-55396447D01*
X68197973Y-55415845D01*
X68194840Y-55435625D01*
X68198950Y-55479104D01*
X68199500Y-55490774D01*
X68199500Y-57312256D01*
X68197235Y-57332766D01*
X68199439Y-57402872D01*
X68199500Y-57406767D01*
X68199500Y-57434350D01*
X68199988Y-57438219D01*
X68199989Y-57438225D01*
X68200004Y-57438343D01*
X68200918Y-57449967D01*
X68202290Y-57493626D01*
X68207879Y-57512860D01*
X68211825Y-57531916D01*
X68214335Y-57551792D01*
X68230414Y-57592404D01*
X68234197Y-57603451D01*
X68246382Y-57645391D01*
X68256580Y-57662635D01*
X68265136Y-57680100D01*
X68272514Y-57698732D01*
X68272515Y-57698733D01*
X68298180Y-57734059D01*
X68304593Y-57743822D01*
X68326826Y-57781416D01*
X68326829Y-57781419D01*
X68326830Y-57781420D01*
X68340995Y-57795585D01*
X68353627Y-57810375D01*
X68365406Y-57826587D01*
X68399058Y-57854426D01*
X68407699Y-57862289D01*
X68630854Y-58085444D01*
X68664339Y-58146767D01*
X68663079Y-58186757D01*
X68665945Y-58187023D01*
X68644357Y-58420000D01*
X68664885Y-58641537D01*
X68725769Y-58855526D01*
X68824941Y-59054688D01*
X68959019Y-59232237D01*
X69110086Y-59369952D01*
X69123438Y-59382124D01*
X69165776Y-59408338D01*
X69212412Y-59460364D01*
X69224500Y-59513765D01*
X69224500Y-59660599D01*
X69204815Y-59727638D01*
X69165777Y-59766026D01*
X68996437Y-59870875D01*
X68832019Y-60020762D01*
X68697941Y-60198311D01*
X68598769Y-60397473D01*
X68537885Y-60611462D01*
X68517357Y-60833000D01*
X68537885Y-61054537D01*
X68598769Y-61268526D01*
X68697941Y-61467688D01*
X68832019Y-61645237D01*
X68996437Y-61795124D01*
X69185595Y-61912245D01*
X69185597Y-61912245D01*
X69185599Y-61912247D01*
X69393060Y-61992618D01*
X69611757Y-62033500D01*
X69611759Y-62033500D01*
X69834241Y-62033500D01*
X69834243Y-62033500D01*
X69942427Y-62013276D01*
X70011941Y-62020307D01*
X70052893Y-62047484D01*
X70247196Y-62241787D01*
X70260096Y-62257888D01*
X70311223Y-62305900D01*
X70314020Y-62308611D01*
X70333529Y-62328120D01*
X70336709Y-62330587D01*
X70345571Y-62338155D01*
X70377418Y-62368062D01*
X70394972Y-62377712D01*
X70411236Y-62388396D01*
X70422972Y-62397499D01*
X70427064Y-62400673D01*
X70451909Y-62411424D01*
X70467152Y-62418021D01*
X70477631Y-62423154D01*
X70515908Y-62444197D01*
X70535306Y-62449177D01*
X70553708Y-62455477D01*
X70572104Y-62463438D01*
X70615261Y-62470273D01*
X70626664Y-62472634D01*
X70668981Y-62483500D01*
X70689016Y-62483500D01*
X70708413Y-62485026D01*
X70728196Y-62488160D01*
X70771674Y-62484050D01*
X70783344Y-62483500D01*
X73695256Y-62483500D01*
X73715762Y-62485764D01*
X73718665Y-62485672D01*
X73718667Y-62485673D01*
X73785872Y-62483561D01*
X73789768Y-62483500D01*
X73813448Y-62483500D01*
X73817350Y-62483500D01*
X73821313Y-62482999D01*
X73832962Y-62482080D01*
X73876627Y-62480709D01*
X73895859Y-62475120D01*
X73914918Y-62471174D01*
X73922091Y-62470268D01*
X73934792Y-62468664D01*
X73975407Y-62452582D01*
X73986444Y-62448803D01*
X74028390Y-62436618D01*
X74045629Y-62426422D01*
X74063102Y-62417862D01*
X74081732Y-62410486D01*
X74117064Y-62384814D01*
X74126830Y-62378400D01*
X74144313Y-62368061D01*
X74164420Y-62356170D01*
X74178585Y-62342004D01*
X74193373Y-62329373D01*
X74209587Y-62317594D01*
X74237438Y-62283926D01*
X74245279Y-62275309D01*
X74403602Y-62116986D01*
X74464923Y-62083503D01*
X74523376Y-62084895D01*
X74559621Y-62094607D01*
X74777600Y-62113677D01*
X74879936Y-62104724D01*
X78304426Y-62104724D01*
X78304427Y-62104725D01*
X78366610Y-62148266D01*
X78564840Y-62240702D01*
X78776113Y-62297312D01*
X78994000Y-62316375D01*
X79211886Y-62297312D01*
X79423159Y-62240702D01*
X79621385Y-62148267D01*
X79683572Y-62104724D01*
X78994001Y-61415153D01*
X78994000Y-61415153D01*
X78304426Y-62104724D01*
X74879936Y-62104724D01*
X74995577Y-62094607D01*
X75206930Y-62037975D01*
X75405239Y-61945502D01*
X75584477Y-61819998D01*
X75739198Y-61665277D01*
X75864702Y-61486039D01*
X75957175Y-61287730D01*
X76013807Y-61076377D01*
X76032877Y-60858400D01*
X76013807Y-60640423D01*
X76013807Y-60640421D01*
X76004095Y-60604176D01*
X76005757Y-60534326D01*
X76036184Y-60484404D01*
X76413773Y-60106816D01*
X76475095Y-60073334D01*
X76501453Y-60070500D01*
X76567253Y-60070500D01*
X76634292Y-60090185D01*
X76659400Y-60111526D01*
X76665129Y-60117888D01*
X76818270Y-60229151D01*
X76818271Y-60229151D01*
X76818272Y-60229152D01*
X76991197Y-60306144D01*
X77176352Y-60345500D01*
X77176354Y-60345500D01*
X77365648Y-60345500D01*
X77489083Y-60319262D01*
X77550803Y-60306144D01*
X77620193Y-60275248D01*
X77723727Y-60229153D01*
X77747134Y-60212147D01*
X77790260Y-60180814D01*
X77856064Y-60157335D01*
X77924118Y-60173160D01*
X77972813Y-60223265D01*
X77986689Y-60291743D01*
X77964719Y-60352256D01*
X77907333Y-60434211D01*
X77814897Y-60632440D01*
X77758287Y-60843713D01*
X77739224Y-61061599D01*
X77758287Y-61279486D01*
X77814898Y-61490761D01*
X77907331Y-61688986D01*
X77950873Y-61751171D01*
X77950874Y-61751172D01*
X78640447Y-61061599D01*
X79347553Y-61061599D01*
X80037124Y-61751172D01*
X80080667Y-61688985D01*
X80173102Y-61490759D01*
X80229712Y-61279486D01*
X80248775Y-61061600D01*
X80229712Y-60843713D01*
X80173102Y-60632440D01*
X80080667Y-60434215D01*
X80037123Y-60372027D01*
X79347553Y-61061598D01*
X79347553Y-61061599D01*
X78640447Y-61061599D01*
X79683572Y-60018474D01*
X79683571Y-60018473D01*
X79621386Y-59974931D01*
X79423161Y-59882498D01*
X79211886Y-59825887D01*
X78994000Y-59806824D01*
X78776113Y-59825887D01*
X78564840Y-59882497D01*
X78366612Y-59974933D01*
X78217534Y-60079319D01*
X78151328Y-60101646D01*
X78083561Y-60084636D01*
X78035748Y-60033688D01*
X78023070Y-59964978D01*
X78039024Y-59915744D01*
X78098179Y-59813284D01*
X78126007Y-59727638D01*
X78156674Y-59633256D01*
X78176460Y-59445000D01*
X78156674Y-59256744D01*
X78098179Y-59076716D01*
X78098179Y-59076715D01*
X78003370Y-58912500D01*
X77986897Y-58844599D01*
X78009750Y-58778573D01*
X78064671Y-58735382D01*
X78106860Y-58726561D01*
X78149927Y-58725209D01*
X78169159Y-58719620D01*
X78188218Y-58715674D01*
X78194496Y-58714881D01*
X78208092Y-58713164D01*
X78248707Y-58697082D01*
X78259744Y-58693303D01*
X78301690Y-58681118D01*
X78318929Y-58670922D01*
X78336402Y-58662362D01*
X78355032Y-58654986D01*
X78390364Y-58629314D01*
X78400130Y-58622900D01*
X78437718Y-58600671D01*
X78437717Y-58600671D01*
X78437720Y-58600670D01*
X78451885Y-58586504D01*
X78466673Y-58573873D01*
X78482887Y-58562094D01*
X78510738Y-58528426D01*
X78518579Y-58519809D01*
X81246023Y-55792366D01*
X81307342Y-55758884D01*
X81377034Y-55763868D01*
X81432967Y-55805740D01*
X81451406Y-55841045D01*
X81494643Y-55971523D01*
X81586683Y-56120745D01*
X81710653Y-56244715D01*
X81774158Y-56283885D01*
X81820882Y-56335833D01*
X81832105Y-56404795D01*
X81804261Y-56468878D01*
X81785715Y-56486893D01*
X81766115Y-56502307D01*
X81628479Y-56661145D01*
X81523396Y-56843154D01*
X81454655Y-57041766D01*
X81424746Y-57249796D01*
X81434746Y-57459730D01*
X81484297Y-57663980D01*
X81571602Y-57855152D01*
X81681845Y-58009966D01*
X81693514Y-58026352D01*
X81845622Y-58171386D01*
X81869540Y-58186757D01*
X82022425Y-58285012D01*
X82061580Y-58300687D01*
X82217543Y-58363125D01*
X82331363Y-58385062D01*
X82423914Y-58402900D01*
X82423915Y-58402900D01*
X83128471Y-58402900D01*
X83131425Y-58402900D01*
X83134376Y-58402618D01*
X83134380Y-58402618D01*
X83191644Y-58397149D01*
X83288218Y-58387928D01*
X83489875Y-58328716D01*
X83676682Y-58232411D01*
X83841886Y-58102492D01*
X83979519Y-57943656D01*
X84084604Y-57761644D01*
X84153344Y-57563033D01*
X84183254Y-57355002D01*
X84173254Y-57145070D01*
X84123704Y-56940824D01*
X84119659Y-56931967D01*
X84036397Y-56749647D01*
X83914487Y-56578449D01*
X83811543Y-56480292D01*
X83776608Y-56419783D01*
X83779933Y-56349992D01*
X83820462Y-56293078D01*
X83832018Y-56285009D01*
X83897346Y-56244715D01*
X84021316Y-56120745D01*
X84113357Y-55971522D01*
X84168506Y-55805096D01*
X84178680Y-55705509D01*
X84179000Y-55699231D01*
X84179000Y-55552400D01*
X83083560Y-55552400D01*
X83122278Y-55510341D01*
X83172551Y-55395730D01*
X83182886Y-55271005D01*
X83152163Y-55149681D01*
X83088606Y-55052400D01*
X84178999Y-55052400D01*
X84178999Y-54905570D01*
X84178678Y-54899288D01*
X84168506Y-54799704D01*
X84113357Y-54633277D01*
X84021316Y-54484054D01*
X83897345Y-54360083D01*
X83748122Y-54268042D01*
X83581696Y-54212893D01*
X83482109Y-54202719D01*
X83475832Y-54202400D01*
X83054000Y-54202400D01*
X83054000Y-55021782D01*
X82984948Y-54968037D01*
X82866576Y-54927400D01*
X82772927Y-54927400D01*
X82680554Y-54942814D01*
X82570486Y-55002381D01*
X82554000Y-55020289D01*
X82554000Y-54202400D01*
X82132171Y-54202400D01*
X82125888Y-54202721D01*
X82026302Y-54212893D01*
X81951303Y-54237746D01*
X81881475Y-54240147D01*
X81821433Y-54204416D01*
X81790241Y-54141895D01*
X81788300Y-54120040D01*
X81788300Y-51351237D01*
X81807985Y-51284198D01*
X81860789Y-51238443D01*
X81929947Y-51228499D01*
X81979340Y-51246922D01*
X81994321Y-51256550D01*
X82022428Y-51274613D01*
X82217543Y-51352725D01*
X82346233Y-51377528D01*
X82423914Y-51392500D01*
X82423915Y-51392500D01*
X83128471Y-51392500D01*
X83131425Y-51392500D01*
X83134376Y-51392218D01*
X83134380Y-51392218D01*
X83191644Y-51386749D01*
X83288218Y-51377528D01*
X83489875Y-51318316D01*
X83676682Y-51222011D01*
X83841886Y-51092092D01*
X83979519Y-50933256D01*
X84084604Y-50751244D01*
X84153344Y-50552633D01*
X84183254Y-50344602D01*
X84173254Y-50134670D01*
X84123704Y-49930424D01*
X84102299Y-49883553D01*
X84036397Y-49739247D01*
X83914487Y-49568049D01*
X83811543Y-49469892D01*
X83776608Y-49409383D01*
X83779933Y-49339592D01*
X83820462Y-49282678D01*
X83832018Y-49274609D01*
X83897346Y-49234315D01*
X84021316Y-49110345D01*
X84113357Y-48961122D01*
X84168506Y-48794696D01*
X84178680Y-48695109D01*
X84179000Y-48688831D01*
X84179000Y-48542000D01*
X83083560Y-48542000D01*
X83122278Y-48499941D01*
X83172551Y-48385330D01*
X83182886Y-48260605D01*
X83152163Y-48139281D01*
X83088606Y-48042000D01*
X84178999Y-48042000D01*
X84178999Y-47895170D01*
X84178678Y-47888888D01*
X84168506Y-47789304D01*
X84113357Y-47622877D01*
X84021316Y-47473654D01*
X83897345Y-47349683D01*
X83748122Y-47257642D01*
X83581696Y-47202493D01*
X83482109Y-47192319D01*
X83475832Y-47192000D01*
X83054000Y-47192000D01*
X83054000Y-48011382D01*
X82984948Y-47957637D01*
X82866576Y-47917000D01*
X82772927Y-47917000D01*
X82680554Y-47932414D01*
X82570486Y-47991981D01*
X82554000Y-48009889D01*
X82554000Y-47192000D01*
X82132171Y-47192000D01*
X82125888Y-47192321D01*
X82026302Y-47202493D01*
X81951303Y-47227346D01*
X81881475Y-47229747D01*
X81821433Y-47194016D01*
X81790241Y-47131495D01*
X81788300Y-47109640D01*
X81788300Y-45149581D01*
X81807985Y-45082542D01*
X81860789Y-45036787D01*
X81923108Y-45026053D01*
X82136000Y-45044679D01*
X82349529Y-45025997D01*
X82556578Y-44970518D01*
X82750837Y-44879934D01*
X82807619Y-44840173D01*
X82202251Y-44234805D01*
X82268969Y-44224238D01*
X82388923Y-44163118D01*
X82484118Y-44067923D01*
X82545238Y-43947969D01*
X82555804Y-43881250D01*
X83161174Y-44486620D01*
X83161834Y-44486562D01*
X83215003Y-44444063D01*
X83284501Y-44436871D01*
X83346856Y-44468394D01*
X83382269Y-44528624D01*
X83386000Y-44558812D01*
X83386000Y-44565000D01*
X84319889Y-44565000D01*
X84280390Y-44589457D01*
X84212799Y-44678962D01*
X84182105Y-44786840D01*
X84192454Y-44898521D01*
X84242448Y-44998922D01*
X84314931Y-45065000D01*
X83414742Y-45065000D01*
X83441770Y-45176410D01*
X83529039Y-45367505D01*
X83650892Y-45538621D01*
X83802933Y-45683592D01*
X83979655Y-45797166D01*
X84174685Y-45875244D01*
X84380962Y-45915000D01*
X84586000Y-45915000D01*
X84586000Y-45115000D01*
X85086000Y-45115000D01*
X85086000Y-45915000D01*
X85235450Y-45915000D01*
X85241359Y-45914718D01*
X85395120Y-45900035D01*
X85596687Y-45840850D01*
X85783412Y-45744587D01*
X85948538Y-45614730D01*
X86086112Y-45455961D01*
X86128113Y-45383214D01*
X86178679Y-45334998D01*
X86247286Y-45321774D01*
X86312151Y-45347742D01*
X86352680Y-45404656D01*
X86359500Y-45445213D01*
X86359500Y-91315500D01*
X86339815Y-91382539D01*
X86287011Y-91428294D01*
X86235500Y-91439500D01*
X61719500Y-91439500D01*
X61652461Y-91419815D01*
X61606706Y-91367011D01*
X61595500Y-91315500D01*
X61595500Y-32433300D01*
X61615185Y-32366261D01*
X61667989Y-32320506D01*
X61719500Y-32309300D01*
X86235500Y-32309300D01*
X86302539Y-32328985D01*
G37*
%TD.AperFunction*%
%TA.AperFunction,Conductor*%
G36*
X78288987Y-54895185D02*
G01*
X78309629Y-54911819D01*
X79245828Y-55848018D01*
X79279313Y-55909341D01*
X79274329Y-55979033D01*
X79245828Y-56023380D01*
X77828528Y-57440681D01*
X77767205Y-57474166D01*
X77740847Y-57477000D01*
X76917644Y-57477000D01*
X76850605Y-57457315D01*
X76804850Y-57404511D01*
X76794906Y-57335353D01*
X76795170Y-57333606D01*
X76795303Y-57332766D01*
X76799772Y-57304550D01*
X76802135Y-57293136D01*
X76813000Y-57250824D01*
X76813000Y-57230787D01*
X76814527Y-57211389D01*
X76817660Y-57191609D01*
X76813550Y-57148129D01*
X76813000Y-57136460D01*
X76813000Y-55988146D01*
X76816608Y-55958450D01*
X76817938Y-55953059D01*
X76813519Y-55489054D01*
X76832564Y-55421832D01*
X76884930Y-55375576D01*
X76953990Y-55364975D01*
X76976507Y-55375000D01*
X77282817Y-55375000D01*
X77290889Y-55374470D01*
X77396842Y-55360521D01*
X77533676Y-55303843D01*
X77651180Y-55213680D01*
X77741342Y-55096177D01*
X77801044Y-54952047D01*
X77844885Y-54897644D01*
X77911179Y-54875579D01*
X77915605Y-54875500D01*
X78221948Y-54875500D01*
X78288987Y-54895185D01*
G37*
%TD.AperFunction*%
%TA.AperFunction,Conductor*%
G36*
X79354445Y-45575963D02*
G01*
X79358914Y-45580672D01*
X79404129Y-45630889D01*
X79557269Y-45742151D01*
X79730197Y-45819144D01*
X79915352Y-45858500D01*
X79915354Y-45858500D01*
X79963300Y-45858500D01*
X80030339Y-45878185D01*
X80076094Y-45930989D01*
X80087300Y-45982500D01*
X80087300Y-47640090D01*
X80067615Y-47707129D01*
X80050981Y-47727771D01*
X79518753Y-48259999D01*
X79518753Y-48260000D01*
X80050981Y-48792228D01*
X80084466Y-48853551D01*
X80087300Y-48879909D01*
X80087300Y-50970785D01*
X80067615Y-51037824D01*
X80014811Y-51083579D01*
X79945653Y-51093523D01*
X79882097Y-51064498D01*
X79861725Y-51041909D01*
X79858865Y-51037824D01*
X79803198Y-50958323D01*
X79648477Y-50803602D01*
X79469239Y-50678098D01*
X79270930Y-50585625D01*
X79270929Y-50585624D01*
X79266171Y-50583406D01*
X79230895Y-50558705D01*
X78090679Y-49418489D01*
X78057194Y-49357166D01*
X78062178Y-49287474D01*
X78104048Y-49231542D01*
X78122746Y-49217546D01*
X78140193Y-49194240D01*
X78584510Y-49194240D01*
X78672788Y-49248899D01*
X78862879Y-49322540D01*
X79063272Y-49360000D01*
X79267128Y-49360000D01*
X79467520Y-49322540D01*
X79657611Y-49248899D01*
X79745888Y-49194240D01*
X79165201Y-48613553D01*
X79165200Y-48613553D01*
X78584510Y-49194240D01*
X78140193Y-49194240D01*
X78208996Y-49102331D01*
X78259291Y-48967483D01*
X78265700Y-48907873D01*
X78265699Y-48857306D01*
X78285382Y-48790271D01*
X78302018Y-48769627D01*
X78811647Y-48260000D01*
X78783487Y-48231840D01*
X78861305Y-48231840D01*
X78871654Y-48343521D01*
X78921648Y-48443922D01*
X79004534Y-48519484D01*
X79109120Y-48560000D01*
X79193002Y-48560000D01*
X79275450Y-48544588D01*
X79370810Y-48485543D01*
X79438401Y-48396038D01*
X79469095Y-48288160D01*
X79458746Y-48176479D01*
X79408752Y-48076078D01*
X79325866Y-48000516D01*
X79221280Y-47960000D01*
X79137398Y-47960000D01*
X79054950Y-47975412D01*
X78959590Y-48034457D01*
X78891999Y-48123962D01*
X78861305Y-48231840D01*
X78783487Y-48231840D01*
X78302018Y-47750371D01*
X78268533Y-47689048D01*
X78265699Y-47662690D01*
X78265699Y-47615439D01*
X78265699Y-47612128D01*
X78259291Y-47552517D01*
X78208996Y-47417669D01*
X78140191Y-47325758D01*
X78584510Y-47325758D01*
X79165200Y-47906447D01*
X79165201Y-47906447D01*
X79745888Y-47325758D01*
X79745887Y-47325757D01*
X79657614Y-47271101D01*
X79467520Y-47197459D01*
X79267128Y-47160000D01*
X79063272Y-47160000D01*
X78862879Y-47197459D01*
X78672789Y-47271100D01*
X78584510Y-47325758D01*
X78140191Y-47325758D01*
X78122746Y-47302454D01*
X78007531Y-47216204D01*
X77872683Y-47165909D01*
X77872683Y-47165908D01*
X77816366Y-47159854D01*
X77816365Y-47159853D01*
X77813073Y-47159500D01*
X77809750Y-47159500D01*
X76520639Y-47159500D01*
X76520620Y-47159500D01*
X76517328Y-47159501D01*
X76514048Y-47159853D01*
X76514040Y-47159854D01*
X76457715Y-47165909D01*
X76322869Y-47216204D01*
X76207654Y-47302454D01*
X76121404Y-47417668D01*
X76071110Y-47552515D01*
X76071109Y-47552517D01*
X76064700Y-47612127D01*
X76064700Y-47615448D01*
X76064700Y-47615449D01*
X76064700Y-48904560D01*
X76064700Y-48904578D01*
X76064701Y-48907872D01*
X76065053Y-48911152D01*
X76065054Y-48911159D01*
X76070425Y-48961122D01*
X76071109Y-48967483D01*
X76121404Y-49102331D01*
X76199364Y-49206472D01*
X76218338Y-49231818D01*
X76216708Y-49233037D01*
X76243741Y-49269146D01*
X76248728Y-49338837D01*
X76215246Y-49400162D01*
X76215242Y-49400165D01*
X75635696Y-49979711D01*
X75574373Y-50013196D01*
X75504681Y-50008212D01*
X75455865Y-49975002D01*
X75445212Y-49963170D01*
X75292072Y-49851908D01*
X75119144Y-49774915D01*
X74955655Y-49740165D01*
X74894173Y-49706973D01*
X74860397Y-49645810D01*
X74857965Y-49607433D01*
X74865140Y-49529999D01*
X74844621Y-49308554D01*
X74783762Y-49094654D01*
X74684630Y-48895572D01*
X74668860Y-48874690D01*
X74010987Y-49532564D01*
X74013628Y-49500698D01*
X73984953Y-49387462D01*
X73921064Y-49289673D01*
X73828885Y-49217928D01*
X73718405Y-49180000D01*
X73630995Y-49180000D01*
X73544784Y-49194386D01*
X73442053Y-49249981D01*
X73362940Y-49335921D01*
X73316018Y-49442892D01*
X73306372Y-49559302D01*
X73335047Y-49672538D01*
X73398936Y-49770327D01*
X73491115Y-49842072D01*
X73601595Y-49880000D01*
X73663553Y-49880000D01*
X73660000Y-49883553D01*
X73006672Y-50536879D01*
X73006672Y-50536881D01*
X73122816Y-50608795D01*
X73330198Y-50689135D01*
X73548806Y-50730000D01*
X73771194Y-50730000D01*
X73808368Y-50723051D01*
X73877883Y-50730082D01*
X73932562Y-50773580D01*
X73947241Y-50812700D01*
X73949641Y-50811921D01*
X74012161Y-51004341D01*
X74013908Y-51007367D01*
X74045387Y-51061890D01*
X74062000Y-51123889D01*
X74062000Y-52500500D01*
X74042315Y-52567539D01*
X73989511Y-52613294D01*
X73938000Y-52624500D01*
X73728052Y-52624500D01*
X73661013Y-52604815D01*
X73640371Y-52588181D01*
X71781819Y-50729628D01*
X71748334Y-50668305D01*
X71745500Y-50641947D01*
X71745500Y-50623765D01*
X71765185Y-50556726D01*
X71804223Y-50518338D01*
X71846562Y-50492124D01*
X72010981Y-50342236D01*
X72145058Y-50164689D01*
X72244229Y-49965528D01*
X72270994Y-49871457D01*
X72308271Y-49812367D01*
X72371580Y-49782809D01*
X72440820Y-49792170D01*
X72494007Y-49837480D01*
X72509525Y-49871459D01*
X72536239Y-49965348D01*
X72635367Y-50164425D01*
X72651137Y-50185308D01*
X72651138Y-50185308D01*
X73306447Y-49530000D01*
X72651138Y-48874691D01*
X72651137Y-48874691D01*
X72635368Y-48895574D01*
X72536238Y-49094653D01*
X72509525Y-49188540D01*
X72472246Y-49247633D01*
X72408936Y-49277190D01*
X72339696Y-49267828D01*
X72286510Y-49222518D01*
X72270994Y-49188544D01*
X72244229Y-49094472D01*
X72145058Y-48895311D01*
X72113522Y-48853551D01*
X72010980Y-48717762D01*
X71846562Y-48567875D01*
X71724233Y-48492133D01*
X71677597Y-48440105D01*
X71666493Y-48371124D01*
X71694446Y-48307089D01*
X71724233Y-48281279D01*
X71846260Y-48205723D01*
X72010609Y-48055899D01*
X72144634Y-47878422D01*
X72243759Y-47679351D01*
X72270473Y-47585461D01*
X72307752Y-47526367D01*
X72371062Y-47496809D01*
X72440301Y-47506171D01*
X72493488Y-47551480D01*
X72509006Y-47585460D01*
X72535769Y-47679526D01*
X72634941Y-47878688D01*
X72769019Y-48056237D01*
X72900919Y-48176479D01*
X72933438Y-48206124D01*
X72974971Y-48231840D01*
X73055766Y-48281866D01*
X73102402Y-48333894D01*
X73113506Y-48402875D01*
X73085553Y-48466910D01*
X73055767Y-48492719D01*
X73006672Y-48523117D01*
X73006671Y-48523119D01*
X73660000Y-49176447D01*
X73660001Y-49176447D01*
X74313327Y-48523119D01*
X74313326Y-48523117D01*
X74264232Y-48492719D01*
X74217596Y-48440691D01*
X74206493Y-48371709D01*
X74234447Y-48307675D01*
X74264230Y-48281867D01*
X74386562Y-48206124D01*
X74550981Y-48056236D01*
X74685058Y-47878689D01*
X74784229Y-47679528D01*
X74784280Y-47679351D01*
X74839768Y-47484327D01*
X74845115Y-47465536D01*
X74865643Y-47244000D01*
X74846869Y-47041398D01*
X74860284Y-46972832D01*
X74908641Y-46922400D01*
X74976587Y-46906117D01*
X75042549Y-46929154D01*
X75043226Y-46929642D01*
X75050728Y-46935092D01*
X75086870Y-46961351D01*
X75086871Y-46961351D01*
X75086872Y-46961352D01*
X75259797Y-47038344D01*
X75444952Y-47077700D01*
X75444954Y-47077700D01*
X75634248Y-47077700D01*
X75764937Y-47049921D01*
X75819403Y-47038344D01*
X75992330Y-46961351D01*
X76026510Y-46936518D01*
X76145470Y-46850089D01*
X76272133Y-46709416D01*
X76366779Y-46545484D01*
X76425865Y-46363636D01*
X76456113Y-46314275D01*
X77124571Y-45645818D01*
X77185894Y-45612333D01*
X77212252Y-45609499D01*
X79011361Y-45609499D01*
X79014672Y-45609499D01*
X79074283Y-45603091D01*
X79209131Y-45552796D01*
X79209132Y-45552795D01*
X79223431Y-45547462D01*
X79293122Y-45542478D01*
X79354445Y-45575963D01*
G37*
%TD.AperFunction*%
%TA.AperFunction,Conductor*%
G36*
X77187133Y-50299969D02*
G01*
X77231480Y-50328470D01*
X77798740Y-50895730D01*
X77832225Y-50957053D01*
X77827241Y-51026745D01*
X77812634Y-51054534D01*
X77754498Y-51137560D01*
X77662025Y-51335868D01*
X77605392Y-51547225D01*
X77586322Y-51765200D01*
X77605392Y-51983174D01*
X77605393Y-51983177D01*
X77662025Y-52194530D01*
X77754498Y-52392839D01*
X77771960Y-52417778D01*
X77794287Y-52483982D01*
X77777277Y-52551750D01*
X77726329Y-52599563D01*
X77670385Y-52612900D01*
X77217039Y-52612900D01*
X77160745Y-52599385D01*
X77150967Y-52594403D01*
X77150966Y-52594402D01*
X77150965Y-52594402D01*
X77073849Y-52577164D01*
X76996731Y-52559926D01*
X76940394Y-52561697D01*
X76872769Y-52544127D01*
X76825379Y-52492786D01*
X76812500Y-52437758D01*
X76812500Y-52154683D01*
X76811970Y-52146610D01*
X76798021Y-52040657D01*
X76741343Y-51903823D01*
X76651180Y-51786319D01*
X76533677Y-51696157D01*
X76389547Y-51636456D01*
X76335144Y-51592615D01*
X76313079Y-51526321D01*
X76313000Y-51521895D01*
X76313000Y-51411826D01*
X76313000Y-51270231D01*
X76315263Y-51249740D01*
X76313061Y-51179644D01*
X76313000Y-51175750D01*
X76313000Y-51152044D01*
X76313000Y-51148150D01*
X76312498Y-51144181D01*
X76311580Y-51132538D01*
X76311452Y-51128452D01*
X76329021Y-51060830D01*
X76347706Y-51036882D01*
X77056122Y-50328467D01*
X77117441Y-50294985D01*
X77187133Y-50299969D01*
G37*
%TD.AperFunction*%
%TA.AperFunction,Conductor*%
G36*
X85029039Y-38184685D02*
G01*
X85074794Y-38237489D01*
X85086000Y-38289000D01*
X85086000Y-44341000D01*
X85066315Y-44408039D01*
X85013511Y-44453794D01*
X84962000Y-44465000D01*
X84710000Y-44465000D01*
X84642961Y-44445315D01*
X84597206Y-44392511D01*
X84586000Y-44341000D01*
X84586000Y-38289000D01*
X84605685Y-38221961D01*
X84658489Y-38176206D01*
X84710000Y-38165000D01*
X84962000Y-38165000D01*
X85029039Y-38184685D01*
G37*
%TD.AperFunction*%
%TA.AperFunction,Conductor*%
G36*
X73006939Y-35961040D02*
G01*
X73030387Y-35988880D01*
X73127087Y-36145654D01*
X73251144Y-36269711D01*
X73400463Y-36361813D01*
X73567002Y-36416999D01*
X73666659Y-36427180D01*
X73666660Y-36427180D01*
X73669792Y-36427500D01*
X73672941Y-36427500D01*
X74691659Y-36427500D01*
X74694808Y-36427500D01*
X74797597Y-36416999D01*
X74884211Y-36388297D01*
X74954036Y-36385896D01*
X75014079Y-36421627D01*
X75045272Y-36484147D01*
X75046534Y-36518964D01*
X75040540Y-36575998D01*
X75060326Y-36764257D01*
X75118820Y-36944284D01*
X75213464Y-37108213D01*
X75213467Y-37108216D01*
X75340129Y-37248888D01*
X75340132Y-37248890D01*
X75345657Y-37255026D01*
X75375887Y-37318018D01*
X75367262Y-37387353D01*
X75345658Y-37420970D01*
X75333502Y-37434471D01*
X75274016Y-37471120D01*
X75241351Y-37475500D01*
X74559700Y-37475500D01*
X74542457Y-37477678D01*
X74533979Y-37478749D01*
X74475108Y-37471908D01*
X74380666Y-37436683D01*
X74324733Y-37394811D01*
X74300316Y-37329347D01*
X74300000Y-37320501D01*
X74300000Y-37171481D01*
X74299645Y-37164867D01*
X74293599Y-37108628D01*
X74243352Y-36973910D01*
X74157188Y-36858811D01*
X74042089Y-36772647D01*
X73907371Y-36722400D01*
X73851132Y-36716354D01*
X73844518Y-36716000D01*
X73800000Y-36716000D01*
X73800000Y-37582000D01*
X73780315Y-37649039D01*
X73727511Y-37694794D01*
X73676000Y-37706000D01*
X73644000Y-37706000D01*
X73586737Y-37689185D01*
X73910000Y-38012447D01*
X73921386Y-38023833D01*
X73954871Y-38085156D01*
X73957460Y-38103728D01*
X73965120Y-38225478D01*
X73929746Y-38216000D01*
X73890254Y-38216000D01*
X73832355Y-38231514D01*
X73775514Y-38288354D01*
X73754709Y-38366000D01*
X73775514Y-38443645D01*
X73832355Y-38500486D01*
X73890254Y-38516000D01*
X73929746Y-38516000D01*
X73969033Y-38505472D01*
X73955682Y-38575465D01*
X73965843Y-38736971D01*
X73993414Y-38821825D01*
X73995409Y-38891666D01*
X73987683Y-38912938D01*
X73986005Y-38916502D01*
X73955682Y-39075465D01*
X73965843Y-39236971D01*
X73993414Y-39321825D01*
X73995409Y-39391666D01*
X73987683Y-39412938D01*
X73986005Y-39416502D01*
X73955682Y-39575465D01*
X73965119Y-39725478D01*
X73929746Y-39716000D01*
X73890254Y-39716000D01*
X73832355Y-39731514D01*
X73775514Y-39788354D01*
X73754709Y-39866000D01*
X73775514Y-39943645D01*
X73832355Y-40000486D01*
X73890254Y-40016000D01*
X73929746Y-40016000D01*
X73969033Y-40005472D01*
X73955682Y-40075466D01*
X73957991Y-40112169D01*
X73942554Y-40180312D01*
X73921917Y-40207634D01*
X73580487Y-40549064D01*
X73519164Y-40582549D01*
X73449472Y-40577565D01*
X73412710Y-40553939D01*
X73405948Y-40553939D01*
X73353551Y-40582550D01*
X73283859Y-40577566D01*
X73239512Y-40549065D01*
X72790645Y-40100198D01*
X72757160Y-40038875D01*
X72762144Y-39969183D01*
X72766122Y-39959732D01*
X72774853Y-39941179D01*
X72775514Y-39943645D01*
X72832355Y-40000486D01*
X72890254Y-40016000D01*
X72929746Y-40016000D01*
X72985727Y-40001000D01*
X73398554Y-40001000D01*
X73410000Y-40012446D01*
X73421446Y-40001000D01*
X73398554Y-40001000D01*
X72985727Y-40001000D01*
X72987645Y-40000486D01*
X73044486Y-39943646D01*
X73065291Y-39866000D01*
X73044486Y-39788355D01*
X72987645Y-39731514D01*
X72929746Y-39716000D01*
X72890254Y-39716000D01*
X72850965Y-39726527D01*
X72864317Y-39656537D01*
X72854156Y-39495028D01*
X72826584Y-39410173D01*
X72824590Y-39340334D01*
X72832316Y-39319064D01*
X72833994Y-39315499D01*
X72864317Y-39156537D01*
X72861767Y-39116000D01*
X73254709Y-39116000D01*
X73275514Y-39193645D01*
X73332355Y-39250486D01*
X73390254Y-39266000D01*
X73429746Y-39266000D01*
X73487645Y-39250486D01*
X73544486Y-39193646D01*
X73565291Y-39116000D01*
X73544486Y-39038355D01*
X73487645Y-38981514D01*
X73429746Y-38966000D01*
X73390254Y-38966000D01*
X73332355Y-38981514D01*
X73275514Y-39038354D01*
X73254709Y-39116000D01*
X72861767Y-39116000D01*
X72854156Y-38995028D01*
X72826584Y-38910173D01*
X72824590Y-38840334D01*
X72832316Y-38819064D01*
X72833994Y-38815499D01*
X72864317Y-38656537D01*
X72854879Y-38506521D01*
X72890254Y-38516000D01*
X72929746Y-38516000D01*
X72987645Y-38500486D01*
X73044486Y-38443646D01*
X73065291Y-38366000D01*
X73044486Y-38288355D01*
X72987645Y-38231514D01*
X72985727Y-38231000D01*
X73398554Y-38231000D01*
X73421446Y-38231000D01*
X73410000Y-38219553D01*
X73398554Y-38231000D01*
X72985727Y-38231000D01*
X72929746Y-38216000D01*
X72890254Y-38216000D01*
X72850965Y-38226527D01*
X72864317Y-38156537D01*
X72862007Y-38119830D01*
X72877442Y-38051690D01*
X72898088Y-38024356D01*
X72910006Y-38012440D01*
X73228574Y-37693872D01*
X73227511Y-37694794D01*
X73176000Y-37706000D01*
X73144000Y-37706000D01*
X73076961Y-37686315D01*
X73071876Y-37680447D01*
X73244068Y-37680447D01*
X73300835Y-37649450D01*
X73370527Y-37654434D01*
X73407290Y-37678060D01*
X73414053Y-37678060D01*
X73466448Y-37649450D01*
X73536140Y-37654434D01*
X73565920Y-37673573D01*
X73531206Y-37633511D01*
X73520000Y-37582000D01*
X73520000Y-36716000D01*
X73475482Y-36716000D01*
X73468885Y-36716353D01*
X73423255Y-36721259D01*
X73396745Y-36721259D01*
X73351114Y-36716353D01*
X73344518Y-36716000D01*
X73300000Y-36716000D01*
X73300000Y-37582000D01*
X73280315Y-37649039D01*
X73244068Y-37680447D01*
X73071876Y-37680447D01*
X73031206Y-37633511D01*
X73020000Y-37582000D01*
X73020000Y-36716000D01*
X72975482Y-36716000D01*
X72968867Y-36716354D01*
X72912628Y-36722400D01*
X72777910Y-36772647D01*
X72662811Y-36858811D01*
X72576647Y-36973910D01*
X72526400Y-37108628D01*
X72520354Y-37164867D01*
X72520000Y-37171481D01*
X72520000Y-37320501D01*
X72500315Y-37387540D01*
X72447511Y-37433295D01*
X72439335Y-37436682D01*
X72356226Y-37467681D01*
X72312891Y-37475500D01*
X71465439Y-37475500D01*
X71465420Y-37475500D01*
X71462128Y-37475501D01*
X71458848Y-37475853D01*
X71458840Y-37475854D01*
X71402516Y-37481909D01*
X71401180Y-37482407D01*
X71400443Y-37482682D01*
X71357112Y-37490500D01*
X71116313Y-37490500D01*
X71049274Y-37470815D01*
X71003519Y-37418011D01*
X70993575Y-37348853D01*
X71022600Y-37285297D01*
X71024163Y-37283528D01*
X71090533Y-37209816D01*
X71185179Y-37045884D01*
X71218191Y-36944284D01*
X71243674Y-36865856D01*
X71261321Y-36697946D01*
X71287905Y-36633333D01*
X71296951Y-36623238D01*
X71456372Y-36463816D01*
X71517694Y-36430334D01*
X71544052Y-36427500D01*
X71716659Y-36427500D01*
X71719808Y-36427500D01*
X71822597Y-36416999D01*
X71989134Y-36361814D01*
X72073439Y-36309814D01*
X72138455Y-36269711D01*
X72262509Y-36145657D01*
X72262508Y-36145656D01*
X72262511Y-36145655D01*
X72315747Y-36059345D01*
X72367694Y-36012623D01*
X72436657Y-36001400D01*
X72447067Y-36003154D01*
X72447754Y-36003300D01*
X72637048Y-36003300D01*
X72822200Y-35963945D01*
X72822201Y-35963944D01*
X72822203Y-35963944D01*
X72874414Y-35940697D01*
X72943662Y-35931412D01*
X73006939Y-35961040D01*
G37*
%TD.AperFunction*%
%TD*%
M02*
