%TF.GenerationSoftware,KiCad,Pcbnew,7.0.2*%
%TF.CreationDate,2024-02-22T17:54:16+01:00*%
%TF.ProjectId,flowsense,666c6f77-7365-46e7-9365-2e6b69636164,rev?*%
%TF.SameCoordinates,Original*%
%TF.FileFunction,Soldermask,Bot*%
%TF.FilePolarity,Negative*%
%FSLAX46Y46*%
G04 Gerber Fmt 4.6, Leading zero omitted, Abs format (unit mm)*
G04 Created by KiCad (PCBNEW 7.0.2) date 2024-02-22 17:54:16*
%MOMM*%
%LPD*%
G01*
G04 APERTURE LIST*
G04 Aperture macros list*
%AMRoundRect*
0 Rectangle with rounded corners*
0 $1 Rounding radius*
0 $2 $3 $4 $5 $6 $7 $8 $9 X,Y pos of 4 corners*
0 Add a 4 corners polygon primitive as box body*
4,1,4,$2,$3,$4,$5,$6,$7,$8,$9,$2,$3,0*
0 Add four circle primitives for the rounded corners*
1,1,$1+$1,$2,$3*
1,1,$1+$1,$4,$5*
1,1,$1+$1,$6,$7*
1,1,$1+$1,$8,$9*
0 Add four rect primitives between the rounded corners*
20,1,$1+$1,$2,$3,$4,$5,0*
20,1,$1+$1,$4,$5,$6,$7,0*
20,1,$1+$1,$6,$7,$8,$9,0*
20,1,$1+$1,$8,$9,$2,$3,0*%
G04 Aperture macros list end*
%ADD10R,1.700000X1.700000*%
%ADD11O,1.700000X1.700000*%
%ADD12C,1.400000*%
%ADD13O,1.400000X1.400000*%
%ADD14RoundRect,0.250001X-0.462499X-0.624999X0.462499X-0.624999X0.462499X0.624999X-0.462499X0.624999X0*%
%ADD15R,1.350000X0.400000*%
%ADD16O,1.900000X1.200000*%
%ADD17R,1.900000X1.200000*%
%ADD18C,1.450000*%
%ADD19R,1.900000X1.500000*%
%ADD20RoundRect,0.062500X-0.062500X0.375000X-0.062500X-0.375000X0.062500X-0.375000X0.062500X0.375000X0*%
%ADD21RoundRect,0.062500X-0.375000X0.062500X-0.375000X-0.062500X0.375000X-0.062500X0.375000X0.062500X0*%
%ADD22R,1.600000X1.600000*%
%ADD23C,1.500000*%
%ADD24RoundRect,0.250001X0.462499X0.624999X-0.462499X0.624999X-0.462499X-0.624999X0.462499X-0.624999X0*%
%ADD25RoundRect,0.250000X-0.625000X0.350000X-0.625000X-0.350000X0.625000X-0.350000X0.625000X0.350000X0*%
%ADD26O,1.750000X1.200000*%
%ADD27R,3.400000X0.980000*%
%ADD28R,1.200000X1.200000*%
%ADD29C,1.200000*%
%ADD30RoundRect,0.070000X0.140000X0.140000X-0.140000X0.140000X-0.140000X-0.140000X0.140000X-0.140000X0*%
%ADD31O,0.990000X0.420000*%
%ADD32C,0.600000*%
%ADD33R,0.680000X1.050000*%
%ADD34R,0.260000X0.500000*%
%ADD35R,0.280000X0.700000*%
%ADD36R,1.650000X2.400000*%
G04 APERTURE END LIST*
D10*
%TO.C,J1*%
X64008000Y-39624000D03*
D11*
X66548000Y-39624000D03*
X64008000Y-42164000D03*
X66548000Y-42164000D03*
X64008000Y-44704000D03*
X66548000Y-44704000D03*
X64008000Y-47244000D03*
X66548000Y-47244000D03*
X64008000Y-49784000D03*
X66548000Y-49784000D03*
X64008000Y-52324000D03*
X66548000Y-52324000D03*
X64008000Y-54864000D03*
X66548000Y-54864000D03*
X64008000Y-57404000D03*
X66548000Y-57404000D03*
X64008000Y-59944000D03*
X66548000Y-59944000D03*
X64008000Y-62484000D03*
X66548000Y-62484000D03*
X64008000Y-65024000D03*
X66548000Y-65024000D03*
X64008000Y-67564000D03*
X66548000Y-67564000D03*
X64008000Y-70104000D03*
X66548000Y-70104000D03*
X64008000Y-72644000D03*
X66548000Y-72644000D03*
X64008000Y-75184000D03*
X66548000Y-75184000D03*
X64008000Y-77724000D03*
X66548000Y-77724000D03*
X64008000Y-80264000D03*
X66548000Y-80264000D03*
X64008000Y-82804000D03*
X66548000Y-82804000D03*
X64008000Y-85344000D03*
X66548000Y-85344000D03*
X64008000Y-87884000D03*
X66548000Y-87884000D03*
%TD*%
D12*
%TO.C,R8*%
X73660000Y-45000000D03*
D13*
X71120000Y-45000000D03*
%TD*%
D14*
%TO.C,D2*%
X76490500Y-35052000D03*
X79465500Y-35052000D03*
%TD*%
D12*
%TO.C,R6*%
X73660000Y-42672000D03*
D13*
X71120000Y-42672000D03*
%TD*%
D14*
%TO.C,D1*%
X71207300Y-35052000D03*
X74182300Y-35052000D03*
%TD*%
D12*
%TO.C,R4*%
X69850000Y-58420000D03*
D13*
X69850000Y-55880000D03*
%TD*%
D15*
%TO.C,J3*%
X82136000Y-40015000D03*
X82136000Y-40665000D03*
X82136000Y-41315000D03*
X82136000Y-41965000D03*
X82136000Y-42615000D03*
D16*
X84836000Y-37815000D03*
D17*
X84836000Y-38415000D03*
D18*
X82136000Y-38815000D03*
D19*
X84836000Y-40315000D03*
X84836000Y-42315000D03*
D18*
X82136000Y-43815000D03*
D17*
X84836000Y-44215000D03*
D16*
X84836000Y-44815000D03*
%TD*%
D20*
%TO.C,U1*%
X74687500Y-52562500D03*
X75187500Y-52562500D03*
X75687500Y-52562500D03*
X76187500Y-52562500D03*
D21*
X76875000Y-53250000D03*
X76875000Y-53750000D03*
X76875000Y-54250000D03*
X76875000Y-54750000D03*
D20*
X76187500Y-55437500D03*
X75687500Y-55437500D03*
X75187500Y-55437500D03*
X74687500Y-55437500D03*
D21*
X74000000Y-54750000D03*
X74000000Y-54250000D03*
X74000000Y-53750000D03*
X74000000Y-53250000D03*
D22*
X75437500Y-54000000D03*
%TD*%
D12*
%TO.C,R2*%
X73660000Y-49530000D03*
D13*
X71120000Y-49530000D03*
%TD*%
D23*
%TO.C,TP4*%
X78841600Y-51765200D03*
%TD*%
D12*
%TO.C,R3*%
X69723000Y-60833000D03*
D13*
X72263000Y-60833000D03*
%TD*%
D12*
%TO.C,R1*%
X72136000Y-58420000D03*
D13*
X72136000Y-55880000D03*
%TD*%
D12*
%TO.C,R5*%
X73660000Y-47244000D03*
D13*
X71120000Y-47244000D03*
%TD*%
D24*
%TO.C,D_REC*%
X84975000Y-35000000D03*
X82000000Y-35000000D03*
%TD*%
D25*
%TO.C,BATT*%
X82804000Y-48292000D03*
D26*
X82804000Y-50292000D03*
%TD*%
D25*
%TO.C,SOLAR*%
X82804000Y-55302400D03*
D26*
X82804000Y-57302400D03*
%TD*%
D12*
%TO.C,R7*%
X69747600Y-53695600D03*
D13*
X72287600Y-53695600D03*
%TD*%
D27*
%TO.C,L1*%
X77266800Y-44619000D03*
X77266800Y-42249000D03*
%TD*%
D28*
%TO.C,C1*%
X77165200Y-48260000D03*
D29*
X79165200Y-48260000D03*
%TD*%
D23*
%TO.C,+5v*%
X77250000Y-38500000D03*
%TD*%
D30*
%TO.C,U2*%
X75170000Y-38116000D03*
D31*
X74885000Y-38116000D03*
D30*
X75170000Y-38616000D03*
D31*
X74885000Y-38616000D03*
D30*
X75170000Y-39116000D03*
D31*
X74885000Y-39116000D03*
D30*
X75170000Y-39616000D03*
D31*
X74885000Y-39616000D03*
D30*
X75170000Y-40116000D03*
D31*
X74885000Y-40116000D03*
X71935000Y-40116000D03*
D30*
X71650000Y-40116000D03*
D31*
X71935000Y-39616000D03*
D30*
X71650000Y-39616000D03*
D31*
X71935000Y-39116000D03*
D30*
X71650000Y-39116000D03*
D31*
X71935000Y-38616000D03*
D30*
X71650000Y-38616000D03*
D31*
X71935000Y-38116000D03*
D30*
X71650000Y-38116000D03*
D32*
X73910000Y-39866000D03*
X73910000Y-38366000D03*
D33*
X73860000Y-39751000D03*
X73860000Y-38481000D03*
D34*
X73660000Y-40746000D03*
D35*
X73660000Y-40666000D03*
X73660000Y-37566000D03*
D34*
X73660000Y-37486000D03*
D32*
X73410000Y-39116000D03*
D36*
X73410000Y-39116000D03*
D34*
X73160000Y-40746000D03*
D35*
X73160000Y-40666000D03*
X73160000Y-37566000D03*
D34*
X73160000Y-37486000D03*
D33*
X72960000Y-39751000D03*
X72960000Y-38481000D03*
D32*
X72910000Y-39866000D03*
X72910000Y-38366000D03*
%TD*%
D23*
%TO.C,GND*%
X78994000Y-61061600D03*
%TD*%
%TO.C,VDD*%
X74777600Y-60858400D03*
%TD*%
M02*
