M48
; DRILL file {KiCad 7.0.2} date Thu Feb 22 18:02:54 2024
; FORMAT={-:-/ absolute / inch / decimal}
; #@! TF.CreationDate,2024-02-22T18:02:54+01:00
; #@! TF.GenerationSoftware,Kicad,Pcbnew,7.0.2
; #@! TF.FileFunction,Plated,1,2,PTH
FMAT,2
INCH
; #@! TA.AperFunction,Plated,PTH,ComponentDrill
T1C0.0118
; #@! TA.AperFunction,Plated,PTH,ViaDrill
T2C0.0157
; #@! TA.AperFunction,Plated,PTH,ComponentDrill
T3C0.0236
; #@! TA.AperFunction,Plated,PTH,ComponentDrill
T4C0.0276
; #@! TA.AperFunction,Plated,PTH,ComponentDrill
T5C0.0295
; #@! TA.AperFunction,Plated,PTH,ComponentDrill
T6C0.0335
; #@! TA.AperFunction,Plated,PTH,ComponentDrill
T7C0.0394
%
G90
G05
T1
X2.8705Y-1.5105
X2.8705Y-1.5695
X2.8902Y-1.54
X2.9098Y-1.5105
X2.9098Y-1.5695
T2
X2.77Y-1.444
X2.7715Y-1.56
X2.856Y-1.382
X2.886Y-2.24
X2.9464Y-1.9935
X2.96Y-2.25
X2.974Y-1.818
X2.99Y-1.44
X2.99Y-1.5
X3.0265Y-2.026
X3.0422Y-2.3404
X3.06Y-1.6
X3.072Y-2.17
X3.13Y-1.53
X3.1402Y-2.1438
X3.1491Y-2.1055
X3.15Y-1.77
X3.1694Y-1.53
X3.1852Y-1.7524
T3
X3.038Y-1.9
X3.1167Y-1.9
T4
X2.745Y-2.395
X2.746Y-2.114
X2.75Y-2.2
X2.75Y-2.3
X2.8Y-1.68
X2.8Y-1.7717
X2.8Y-1.86
X2.8Y-1.95
X2.84Y-2.2
X2.84Y-2.3
X2.845Y-2.395
X2.846Y-2.114
X2.9Y-1.68
X2.9Y-1.7717
X2.9Y-1.86
X2.9Y-1.95
T5
X3.26Y-1.9013
X3.26Y-1.98
X3.26Y-2.1773
X3.26Y-2.256
T6
X3.2337Y-1.5281
X3.2337Y-1.725
T7
X2.52Y-1.56
X2.52Y-1.66
X2.52Y-1.76
X2.52Y-1.86
X2.52Y-1.96
X2.52Y-2.06
X2.52Y-2.16
X2.52Y-2.26
X2.52Y-2.36
X2.52Y-2.46
X2.52Y-2.56
X2.52Y-2.66
X2.52Y-2.76
X2.52Y-2.86
X2.52Y-2.96
X2.52Y-3.06
X2.52Y-3.16
X2.52Y-3.26
X2.52Y-3.36
X2.52Y-3.46
X2.62Y-1.56
X2.62Y-1.66
X2.62Y-1.76
X2.62Y-1.86
X2.62Y-1.96
X2.62Y-2.06
X2.62Y-2.16
X2.62Y-2.26
X2.62Y-2.36
X2.62Y-2.46
X2.62Y-2.56
X2.62Y-2.66
X2.62Y-2.76
X2.62Y-2.86
X2.62Y-2.96
X2.62Y-3.06
X2.62Y-3.16
X2.62Y-3.26
X2.62Y-3.36
X2.62Y-3.46
T3
G00X3.3262Y-1.4888
M15
G01X3.3538Y-1.4888
M16
G05
G00X3.3538Y-1.7644
M15
G01X3.3262Y-1.7644
M16
G05
T0
M30
