%TF.GenerationSoftware,KiCad,Pcbnew,7.0.2*%
%TF.CreationDate,2024-02-22T17:54:16+01:00*%
%TF.ProjectId,flowsense,666c6f77-7365-46e7-9365-2e6b69636164,rev?*%
%TF.SameCoordinates,Original*%
%TF.FileFunction,Legend,Bot*%
%TF.FilePolarity,Positive*%
%FSLAX46Y46*%
G04 Gerber Fmt 4.6, Leading zero omitted, Abs format (unit mm)*
G04 Created by KiCad (PCBNEW 7.0.2) date 2024-02-22 17:54:16*
%MOMM*%
%LPD*%
G01*
G04 APERTURE LIST*
%ADD10C,0.150000*%
%ADD11C,0.120000*%
G04 APERTURE END LIST*
D10*
X84528614Y-67074419D02*
X85004804Y-67074419D01*
X85004804Y-67074419D02*
X85004804Y-66074419D01*
X84195280Y-67074419D02*
X84195280Y-66407752D01*
X84195280Y-66074419D02*
X84242899Y-66122038D01*
X84242899Y-66122038D02*
X84195280Y-66169657D01*
X84195280Y-66169657D02*
X84147661Y-66122038D01*
X84147661Y-66122038D02*
X84195280Y-66074419D01*
X84195280Y-66074419D02*
X84195280Y-66169657D01*
X83719090Y-66407752D02*
X83719090Y-67407752D01*
X83719090Y-66455371D02*
X83623852Y-66407752D01*
X83623852Y-66407752D02*
X83433376Y-66407752D01*
X83433376Y-66407752D02*
X83338138Y-66455371D01*
X83338138Y-66455371D02*
X83290519Y-66502990D01*
X83290519Y-66502990D02*
X83242900Y-66598228D01*
X83242900Y-66598228D02*
X83242900Y-66883942D01*
X83242900Y-66883942D02*
X83290519Y-66979180D01*
X83290519Y-66979180D02*
X83338138Y-67026800D01*
X83338138Y-67026800D02*
X83433376Y-67074419D01*
X83433376Y-67074419D02*
X83623852Y-67074419D01*
X83623852Y-67074419D02*
X83719090Y-67026800D01*
X82671471Y-67074419D02*
X82766709Y-67026800D01*
X82766709Y-67026800D02*
X82814328Y-66979180D01*
X82814328Y-66979180D02*
X82861947Y-66883942D01*
X82861947Y-66883942D02*
X82861947Y-66598228D01*
X82861947Y-66598228D02*
X82814328Y-66502990D01*
X82814328Y-66502990D02*
X82766709Y-66455371D01*
X82766709Y-66455371D02*
X82671471Y-66407752D01*
X82671471Y-66407752D02*
X82528614Y-66407752D01*
X82528614Y-66407752D02*
X82433376Y-66455371D01*
X82433376Y-66455371D02*
X82385757Y-66502990D01*
X82385757Y-66502990D02*
X82338138Y-66598228D01*
X82338138Y-66598228D02*
X82338138Y-66883942D01*
X82338138Y-66883942D02*
X82385757Y-66979180D01*
X82385757Y-66979180D02*
X82433376Y-67026800D01*
X82433376Y-67026800D02*
X82528614Y-67074419D01*
X82528614Y-67074419D02*
X82671471Y-67074419D01*
X81195280Y-67026800D02*
X81052423Y-67074419D01*
X81052423Y-67074419D02*
X80814328Y-67074419D01*
X80814328Y-67074419D02*
X80719090Y-67026800D01*
X80719090Y-67026800D02*
X80671471Y-66979180D01*
X80671471Y-66979180D02*
X80623852Y-66883942D01*
X80623852Y-66883942D02*
X80623852Y-66788704D01*
X80623852Y-66788704D02*
X80671471Y-66693466D01*
X80671471Y-66693466D02*
X80719090Y-66645847D01*
X80719090Y-66645847D02*
X80814328Y-66598228D01*
X80814328Y-66598228D02*
X81004804Y-66550609D01*
X81004804Y-66550609D02*
X81100042Y-66502990D01*
X81100042Y-66502990D02*
X81147661Y-66455371D01*
X81147661Y-66455371D02*
X81195280Y-66360133D01*
X81195280Y-66360133D02*
X81195280Y-66264895D01*
X81195280Y-66264895D02*
X81147661Y-66169657D01*
X81147661Y-66169657D02*
X81100042Y-66122038D01*
X81100042Y-66122038D02*
X81004804Y-66074419D01*
X81004804Y-66074419D02*
X80766709Y-66074419D01*
X80766709Y-66074419D02*
X80623852Y-66122038D01*
X80052423Y-67074419D02*
X80147661Y-67026800D01*
X80147661Y-67026800D02*
X80195280Y-66979180D01*
X80195280Y-66979180D02*
X80242899Y-66883942D01*
X80242899Y-66883942D02*
X80242899Y-66598228D01*
X80242899Y-66598228D02*
X80195280Y-66502990D01*
X80195280Y-66502990D02*
X80147661Y-66455371D01*
X80147661Y-66455371D02*
X80052423Y-66407752D01*
X80052423Y-66407752D02*
X79909566Y-66407752D01*
X79909566Y-66407752D02*
X79814328Y-66455371D01*
X79814328Y-66455371D02*
X79766709Y-66502990D01*
X79766709Y-66502990D02*
X79719090Y-66598228D01*
X79719090Y-66598228D02*
X79719090Y-66883942D01*
X79719090Y-66883942D02*
X79766709Y-66979180D01*
X79766709Y-66979180D02*
X79814328Y-67026800D01*
X79814328Y-67026800D02*
X79909566Y-67074419D01*
X79909566Y-67074419D02*
X80052423Y-67074419D01*
X79147661Y-67074419D02*
X79242899Y-67026800D01*
X79242899Y-67026800D02*
X79290518Y-66931561D01*
X79290518Y-66931561D02*
X79290518Y-66074419D01*
X78338137Y-67074419D02*
X78338137Y-66550609D01*
X78338137Y-66550609D02*
X78385756Y-66455371D01*
X78385756Y-66455371D02*
X78480994Y-66407752D01*
X78480994Y-66407752D02*
X78671470Y-66407752D01*
X78671470Y-66407752D02*
X78766708Y-66455371D01*
X78338137Y-67026800D02*
X78433375Y-67074419D01*
X78433375Y-67074419D02*
X78671470Y-67074419D01*
X78671470Y-67074419D02*
X78766708Y-67026800D01*
X78766708Y-67026800D02*
X78814327Y-66931561D01*
X78814327Y-66931561D02*
X78814327Y-66836323D01*
X78814327Y-66836323D02*
X78766708Y-66741085D01*
X78766708Y-66741085D02*
X78671470Y-66693466D01*
X78671470Y-66693466D02*
X78433375Y-66693466D01*
X78433375Y-66693466D02*
X78338137Y-66645847D01*
X77861946Y-67074419D02*
X77861946Y-66407752D01*
X77861946Y-66598228D02*
X77814327Y-66502990D01*
X77814327Y-66502990D02*
X77766708Y-66455371D01*
X77766708Y-66455371D02*
X77671470Y-66407752D01*
X77671470Y-66407752D02*
X77576232Y-66407752D01*
X75909565Y-66979180D02*
X75957184Y-67026800D01*
X75957184Y-67026800D02*
X76100041Y-67074419D01*
X76100041Y-67074419D02*
X76195279Y-67074419D01*
X76195279Y-67074419D02*
X76338136Y-67026800D01*
X76338136Y-67026800D02*
X76433374Y-66931561D01*
X76433374Y-66931561D02*
X76480993Y-66836323D01*
X76480993Y-66836323D02*
X76528612Y-66645847D01*
X76528612Y-66645847D02*
X76528612Y-66502990D01*
X76528612Y-66502990D02*
X76480993Y-66312514D01*
X76480993Y-66312514D02*
X76433374Y-66217276D01*
X76433374Y-66217276D02*
X76338136Y-66122038D01*
X76338136Y-66122038D02*
X76195279Y-66074419D01*
X76195279Y-66074419D02*
X76100041Y-66074419D01*
X76100041Y-66074419D02*
X75957184Y-66122038D01*
X75957184Y-66122038D02*
X75909565Y-66169657D01*
X75480993Y-67074419D02*
X75480993Y-66074419D01*
X75052422Y-67074419D02*
X75052422Y-66550609D01*
X75052422Y-66550609D02*
X75100041Y-66455371D01*
X75100041Y-66455371D02*
X75195279Y-66407752D01*
X75195279Y-66407752D02*
X75338136Y-66407752D01*
X75338136Y-66407752D02*
X75433374Y-66455371D01*
X75433374Y-66455371D02*
X75480993Y-66502990D01*
X74147660Y-67074419D02*
X74147660Y-66550609D01*
X74147660Y-66550609D02*
X74195279Y-66455371D01*
X74195279Y-66455371D02*
X74290517Y-66407752D01*
X74290517Y-66407752D02*
X74480993Y-66407752D01*
X74480993Y-66407752D02*
X74576231Y-66455371D01*
X74147660Y-67026800D02*
X74242898Y-67074419D01*
X74242898Y-67074419D02*
X74480993Y-67074419D01*
X74480993Y-67074419D02*
X74576231Y-67026800D01*
X74576231Y-67026800D02*
X74623850Y-66931561D01*
X74623850Y-66931561D02*
X74623850Y-66836323D01*
X74623850Y-66836323D02*
X74576231Y-66741085D01*
X74576231Y-66741085D02*
X74480993Y-66693466D01*
X74480993Y-66693466D02*
X74242898Y-66693466D01*
X74242898Y-66693466D02*
X74147660Y-66645847D01*
X73671469Y-67074419D02*
X73671469Y-66407752D01*
X73671469Y-66598228D02*
X73623850Y-66502990D01*
X73623850Y-66502990D02*
X73576231Y-66455371D01*
X73576231Y-66455371D02*
X73480993Y-66407752D01*
X73480993Y-66407752D02*
X73385755Y-66407752D01*
X72623850Y-66407752D02*
X72623850Y-67217276D01*
X72623850Y-67217276D02*
X72671469Y-67312514D01*
X72671469Y-67312514D02*
X72719088Y-67360133D01*
X72719088Y-67360133D02*
X72814326Y-67407752D01*
X72814326Y-67407752D02*
X72957183Y-67407752D01*
X72957183Y-67407752D02*
X73052421Y-67360133D01*
X72623850Y-67026800D02*
X72719088Y-67074419D01*
X72719088Y-67074419D02*
X72909564Y-67074419D01*
X72909564Y-67074419D02*
X73004802Y-67026800D01*
X73004802Y-67026800D02*
X73052421Y-66979180D01*
X73052421Y-66979180D02*
X73100040Y-66883942D01*
X73100040Y-66883942D02*
X73100040Y-66598228D01*
X73100040Y-66598228D02*
X73052421Y-66502990D01*
X73052421Y-66502990D02*
X73004802Y-66455371D01*
X73004802Y-66455371D02*
X72909564Y-66407752D01*
X72909564Y-66407752D02*
X72719088Y-66407752D01*
X72719088Y-66407752D02*
X72623850Y-66455371D01*
X71766707Y-67026800D02*
X71861945Y-67074419D01*
X71861945Y-67074419D02*
X72052421Y-67074419D01*
X72052421Y-67074419D02*
X72147659Y-67026800D01*
X72147659Y-67026800D02*
X72195278Y-66931561D01*
X72195278Y-66931561D02*
X72195278Y-66550609D01*
X72195278Y-66550609D02*
X72147659Y-66455371D01*
X72147659Y-66455371D02*
X72052421Y-66407752D01*
X72052421Y-66407752D02*
X71861945Y-66407752D01*
X71861945Y-66407752D02*
X71766707Y-66455371D01*
X71766707Y-66455371D02*
X71719088Y-66550609D01*
X71719088Y-66550609D02*
X71719088Y-66645847D01*
X71719088Y-66645847D02*
X72195278Y-66741085D01*
X84814328Y-67694419D02*
X84623852Y-67694419D01*
X84623852Y-67694419D02*
X84528614Y-67742038D01*
X84528614Y-67742038D02*
X84433376Y-67837276D01*
X84433376Y-67837276D02*
X84385757Y-68027752D01*
X84385757Y-68027752D02*
X84385757Y-68361085D01*
X84385757Y-68361085D02*
X84433376Y-68551561D01*
X84433376Y-68551561D02*
X84528614Y-68646800D01*
X84528614Y-68646800D02*
X84623852Y-68694419D01*
X84623852Y-68694419D02*
X84814328Y-68694419D01*
X84814328Y-68694419D02*
X84909566Y-68646800D01*
X84909566Y-68646800D02*
X85004804Y-68551561D01*
X85004804Y-68551561D02*
X85052423Y-68361085D01*
X85052423Y-68361085D02*
X85052423Y-68027752D01*
X85052423Y-68027752D02*
X85004804Y-67837276D01*
X85004804Y-67837276D02*
X84909566Y-67742038D01*
X84909566Y-67742038D02*
X84814328Y-67694419D01*
X83957185Y-68694419D02*
X83957185Y-68027752D01*
X83957185Y-68218228D02*
X83909566Y-68122990D01*
X83909566Y-68122990D02*
X83861947Y-68075371D01*
X83861947Y-68075371D02*
X83766709Y-68027752D01*
X83766709Y-68027752D02*
X83671471Y-68027752D01*
X83338137Y-68694419D02*
X83338137Y-68027752D01*
X83338137Y-67694419D02*
X83385756Y-67742038D01*
X83385756Y-67742038D02*
X83338137Y-67789657D01*
X83338137Y-67789657D02*
X83290518Y-67742038D01*
X83290518Y-67742038D02*
X83338137Y-67694419D01*
X83338137Y-67694419D02*
X83338137Y-67789657D01*
X82433376Y-68027752D02*
X82433376Y-68837276D01*
X82433376Y-68837276D02*
X82480995Y-68932514D01*
X82480995Y-68932514D02*
X82528614Y-68980133D01*
X82528614Y-68980133D02*
X82623852Y-69027752D01*
X82623852Y-69027752D02*
X82766709Y-69027752D01*
X82766709Y-69027752D02*
X82861947Y-68980133D01*
X82433376Y-68646800D02*
X82528614Y-68694419D01*
X82528614Y-68694419D02*
X82719090Y-68694419D01*
X82719090Y-68694419D02*
X82814328Y-68646800D01*
X82814328Y-68646800D02*
X82861947Y-68599180D01*
X82861947Y-68599180D02*
X82909566Y-68503942D01*
X82909566Y-68503942D02*
X82909566Y-68218228D01*
X82909566Y-68218228D02*
X82861947Y-68122990D01*
X82861947Y-68122990D02*
X82814328Y-68075371D01*
X82814328Y-68075371D02*
X82719090Y-68027752D01*
X82719090Y-68027752D02*
X82528614Y-68027752D01*
X82528614Y-68027752D02*
X82433376Y-68075371D01*
X81957185Y-68694419D02*
X81957185Y-68027752D01*
X81957185Y-67694419D02*
X82004804Y-67742038D01*
X82004804Y-67742038D02*
X81957185Y-67789657D01*
X81957185Y-67789657D02*
X81909566Y-67742038D01*
X81909566Y-67742038D02*
X81957185Y-67694419D01*
X81957185Y-67694419D02*
X81957185Y-67789657D01*
X81480995Y-68027752D02*
X81480995Y-68694419D01*
X81480995Y-68122990D02*
X81433376Y-68075371D01*
X81433376Y-68075371D02*
X81338138Y-68027752D01*
X81338138Y-68027752D02*
X81195281Y-68027752D01*
X81195281Y-68027752D02*
X81100043Y-68075371D01*
X81100043Y-68075371D02*
X81052424Y-68170609D01*
X81052424Y-68170609D02*
X81052424Y-68694419D01*
X80147662Y-68694419D02*
X80147662Y-68170609D01*
X80147662Y-68170609D02*
X80195281Y-68075371D01*
X80195281Y-68075371D02*
X80290519Y-68027752D01*
X80290519Y-68027752D02*
X80480995Y-68027752D01*
X80480995Y-68027752D02*
X80576233Y-68075371D01*
X80147662Y-68646800D02*
X80242900Y-68694419D01*
X80242900Y-68694419D02*
X80480995Y-68694419D01*
X80480995Y-68694419D02*
X80576233Y-68646800D01*
X80576233Y-68646800D02*
X80623852Y-68551561D01*
X80623852Y-68551561D02*
X80623852Y-68456323D01*
X80623852Y-68456323D02*
X80576233Y-68361085D01*
X80576233Y-68361085D02*
X80480995Y-68313466D01*
X80480995Y-68313466D02*
X80242900Y-68313466D01*
X80242900Y-68313466D02*
X80147662Y-68265847D01*
X79528614Y-68694419D02*
X79623852Y-68646800D01*
X79623852Y-68646800D02*
X79671471Y-68551561D01*
X79671471Y-68551561D02*
X79671471Y-67694419D01*
X79004804Y-68694419D02*
X79100042Y-68646800D01*
X79100042Y-68646800D02*
X79147661Y-68551561D01*
X79147661Y-68551561D02*
X79147661Y-67694419D01*
X78719089Y-68027752D02*
X78480994Y-68694419D01*
X78242899Y-68027752D02*
X78480994Y-68694419D01*
X78480994Y-68694419D02*
X78576232Y-68932514D01*
X78576232Y-68932514D02*
X78623851Y-68980133D01*
X78623851Y-68980133D02*
X78719089Y-69027752D01*
X77100041Y-68694419D02*
X77100041Y-68027752D01*
X77100041Y-68122990D02*
X77052422Y-68075371D01*
X77052422Y-68075371D02*
X76957184Y-68027752D01*
X76957184Y-68027752D02*
X76814327Y-68027752D01*
X76814327Y-68027752D02*
X76719089Y-68075371D01*
X76719089Y-68075371D02*
X76671470Y-68170609D01*
X76671470Y-68170609D02*
X76671470Y-68694419D01*
X76671470Y-68170609D02*
X76623851Y-68075371D01*
X76623851Y-68075371D02*
X76528613Y-68027752D01*
X76528613Y-68027752D02*
X76385756Y-68027752D01*
X76385756Y-68027752D02*
X76290517Y-68075371D01*
X76290517Y-68075371D02*
X76242898Y-68170609D01*
X76242898Y-68170609D02*
X76242898Y-68694419D01*
X75338137Y-68694419D02*
X75338137Y-68170609D01*
X75338137Y-68170609D02*
X75385756Y-68075371D01*
X75385756Y-68075371D02*
X75480994Y-68027752D01*
X75480994Y-68027752D02*
X75671470Y-68027752D01*
X75671470Y-68027752D02*
X75766708Y-68075371D01*
X75338137Y-68646800D02*
X75433375Y-68694419D01*
X75433375Y-68694419D02*
X75671470Y-68694419D01*
X75671470Y-68694419D02*
X75766708Y-68646800D01*
X75766708Y-68646800D02*
X75814327Y-68551561D01*
X75814327Y-68551561D02*
X75814327Y-68456323D01*
X75814327Y-68456323D02*
X75766708Y-68361085D01*
X75766708Y-68361085D02*
X75671470Y-68313466D01*
X75671470Y-68313466D02*
X75433375Y-68313466D01*
X75433375Y-68313466D02*
X75338137Y-68265847D01*
X74433375Y-68694419D02*
X74433375Y-67694419D01*
X74433375Y-68646800D02*
X74528613Y-68694419D01*
X74528613Y-68694419D02*
X74719089Y-68694419D01*
X74719089Y-68694419D02*
X74814327Y-68646800D01*
X74814327Y-68646800D02*
X74861946Y-68599180D01*
X74861946Y-68599180D02*
X74909565Y-68503942D01*
X74909565Y-68503942D02*
X74909565Y-68218228D01*
X74909565Y-68218228D02*
X74861946Y-68122990D01*
X74861946Y-68122990D02*
X74814327Y-68075371D01*
X74814327Y-68075371D02*
X74719089Y-68027752D01*
X74719089Y-68027752D02*
X74528613Y-68027752D01*
X74528613Y-68027752D02*
X74433375Y-68075371D01*
X73576232Y-68646800D02*
X73671470Y-68694419D01*
X73671470Y-68694419D02*
X73861946Y-68694419D01*
X73861946Y-68694419D02*
X73957184Y-68646800D01*
X73957184Y-68646800D02*
X74004803Y-68551561D01*
X74004803Y-68551561D02*
X74004803Y-68170609D01*
X74004803Y-68170609D02*
X73957184Y-68075371D01*
X73957184Y-68075371D02*
X73861946Y-68027752D01*
X73861946Y-68027752D02*
X73671470Y-68027752D01*
X73671470Y-68027752D02*
X73576232Y-68075371D01*
X73576232Y-68075371D02*
X73528613Y-68170609D01*
X73528613Y-68170609D02*
X73528613Y-68265847D01*
X73528613Y-68265847D02*
X74004803Y-68361085D01*
X72338136Y-68694419D02*
X72338136Y-67694419D01*
X72338136Y-68075371D02*
X72242898Y-68027752D01*
X72242898Y-68027752D02*
X72052422Y-68027752D01*
X72052422Y-68027752D02*
X71957184Y-68075371D01*
X71957184Y-68075371D02*
X71909565Y-68122990D01*
X71909565Y-68122990D02*
X71861946Y-68218228D01*
X71861946Y-68218228D02*
X71861946Y-68503942D01*
X71861946Y-68503942D02*
X71909565Y-68599180D01*
X71909565Y-68599180D02*
X71957184Y-68646800D01*
X71957184Y-68646800D02*
X72052422Y-68694419D01*
X72052422Y-68694419D02*
X72242898Y-68694419D01*
X72242898Y-68694419D02*
X72338136Y-68646800D01*
X71528612Y-68027752D02*
X71290517Y-68694419D01*
X71052422Y-68027752D02*
X71290517Y-68694419D01*
X71290517Y-68694419D02*
X71385755Y-68932514D01*
X71385755Y-68932514D02*
X71433374Y-68980133D01*
X71433374Y-68980133D02*
X71528612Y-69027752D01*
X84433376Y-70219180D02*
X84480995Y-70266800D01*
X84480995Y-70266800D02*
X84623852Y-70314419D01*
X84623852Y-70314419D02*
X84719090Y-70314419D01*
X84719090Y-70314419D02*
X84861947Y-70266800D01*
X84861947Y-70266800D02*
X84957185Y-70171561D01*
X84957185Y-70171561D02*
X85004804Y-70076323D01*
X85004804Y-70076323D02*
X85052423Y-69885847D01*
X85052423Y-69885847D02*
X85052423Y-69742990D01*
X85052423Y-69742990D02*
X85004804Y-69552514D01*
X85004804Y-69552514D02*
X84957185Y-69457276D01*
X84957185Y-69457276D02*
X84861947Y-69362038D01*
X84861947Y-69362038D02*
X84719090Y-69314419D01*
X84719090Y-69314419D02*
X84623852Y-69314419D01*
X84623852Y-69314419D02*
X84480995Y-69362038D01*
X84480995Y-69362038D02*
X84433376Y-69409657D01*
X84004804Y-70314419D02*
X84004804Y-69647752D01*
X84004804Y-69314419D02*
X84052423Y-69362038D01*
X84052423Y-69362038D02*
X84004804Y-69409657D01*
X84004804Y-69409657D02*
X83957185Y-69362038D01*
X83957185Y-69362038D02*
X84004804Y-69314419D01*
X84004804Y-69314419D02*
X84004804Y-69409657D01*
X83671471Y-69647752D02*
X83290519Y-69647752D01*
X83528614Y-69314419D02*
X83528614Y-70171561D01*
X83528614Y-70171561D02*
X83480995Y-70266800D01*
X83480995Y-70266800D02*
X83385757Y-70314419D01*
X83385757Y-70314419D02*
X83290519Y-70314419D01*
X83052423Y-69647752D02*
X82814328Y-70314419D01*
X82576233Y-69647752D02*
X82814328Y-70314419D01*
X82814328Y-70314419D02*
X82909566Y-70552514D01*
X82909566Y-70552514D02*
X82957185Y-70600133D01*
X82957185Y-70600133D02*
X83052423Y-70647752D01*
X82242899Y-70266800D02*
X82100042Y-70314419D01*
X82100042Y-70314419D02*
X81861947Y-70314419D01*
X81861947Y-70314419D02*
X81766709Y-70266800D01*
X81766709Y-70266800D02*
X81719090Y-70219180D01*
X81719090Y-70219180D02*
X81671471Y-70123942D01*
X81671471Y-70123942D02*
X81671471Y-70028704D01*
X81671471Y-70028704D02*
X81719090Y-69933466D01*
X81719090Y-69933466D02*
X81766709Y-69885847D01*
X81766709Y-69885847D02*
X81861947Y-69838228D01*
X81861947Y-69838228D02*
X82052423Y-69790609D01*
X82052423Y-69790609D02*
X82147661Y-69742990D01*
X82147661Y-69742990D02*
X82195280Y-69695371D01*
X82195280Y-69695371D02*
X82242899Y-69600133D01*
X82242899Y-69600133D02*
X82242899Y-69504895D01*
X82242899Y-69504895D02*
X82195280Y-69409657D01*
X82195280Y-69409657D02*
X82147661Y-69362038D01*
X82147661Y-69362038D02*
X82052423Y-69314419D01*
X82052423Y-69314419D02*
X81814328Y-69314419D01*
X81814328Y-69314419D02*
X81671471Y-69362038D01*
X80861947Y-70266800D02*
X80957185Y-70314419D01*
X80957185Y-70314419D02*
X81147661Y-70314419D01*
X81147661Y-70314419D02*
X81242899Y-70266800D01*
X81242899Y-70266800D02*
X81290518Y-70171561D01*
X81290518Y-70171561D02*
X81290518Y-69790609D01*
X81290518Y-69790609D02*
X81242899Y-69695371D01*
X81242899Y-69695371D02*
X81147661Y-69647752D01*
X81147661Y-69647752D02*
X80957185Y-69647752D01*
X80957185Y-69647752D02*
X80861947Y-69695371D01*
X80861947Y-69695371D02*
X80814328Y-69790609D01*
X80814328Y-69790609D02*
X80814328Y-69885847D01*
X80814328Y-69885847D02*
X81290518Y-69981085D01*
X80385756Y-69647752D02*
X80385756Y-70314419D01*
X80385756Y-69742990D02*
X80338137Y-69695371D01*
X80338137Y-69695371D02*
X80242899Y-69647752D01*
X80242899Y-69647752D02*
X80100042Y-69647752D01*
X80100042Y-69647752D02*
X80004804Y-69695371D01*
X80004804Y-69695371D02*
X79957185Y-69790609D01*
X79957185Y-69790609D02*
X79957185Y-70314419D01*
X79528613Y-70266800D02*
X79433375Y-70314419D01*
X79433375Y-70314419D02*
X79242899Y-70314419D01*
X79242899Y-70314419D02*
X79147661Y-70266800D01*
X79147661Y-70266800D02*
X79100042Y-70171561D01*
X79100042Y-70171561D02*
X79100042Y-70123942D01*
X79100042Y-70123942D02*
X79147661Y-70028704D01*
X79147661Y-70028704D02*
X79242899Y-69981085D01*
X79242899Y-69981085D02*
X79385756Y-69981085D01*
X79385756Y-69981085D02*
X79480994Y-69933466D01*
X79480994Y-69933466D02*
X79528613Y-69838228D01*
X79528613Y-69838228D02*
X79528613Y-69790609D01*
X79528613Y-69790609D02*
X79480994Y-69695371D01*
X79480994Y-69695371D02*
X79385756Y-69647752D01*
X79385756Y-69647752D02*
X79242899Y-69647752D01*
X79242899Y-69647752D02*
X79147661Y-69695371D01*
X78290518Y-70266800D02*
X78385756Y-70314419D01*
X78385756Y-70314419D02*
X78576232Y-70314419D01*
X78576232Y-70314419D02*
X78671470Y-70266800D01*
X78671470Y-70266800D02*
X78719089Y-70171561D01*
X78719089Y-70171561D02*
X78719089Y-69790609D01*
X78719089Y-69790609D02*
X78671470Y-69695371D01*
X78671470Y-69695371D02*
X78576232Y-69647752D01*
X78576232Y-69647752D02*
X78385756Y-69647752D01*
X78385756Y-69647752D02*
X78290518Y-69695371D01*
X78290518Y-69695371D02*
X78242899Y-69790609D01*
X78242899Y-69790609D02*
X78242899Y-69885847D01*
X78242899Y-69885847D02*
X78719089Y-69981085D01*
X84671471Y-71410609D02*
X85004804Y-71410609D01*
X85004804Y-71934419D02*
X85004804Y-70934419D01*
X85004804Y-70934419D02*
X84528614Y-70934419D01*
X84004804Y-71934419D02*
X84100042Y-71886800D01*
X84100042Y-71886800D02*
X84147661Y-71839180D01*
X84147661Y-71839180D02*
X84195280Y-71743942D01*
X84195280Y-71743942D02*
X84195280Y-71458228D01*
X84195280Y-71458228D02*
X84147661Y-71362990D01*
X84147661Y-71362990D02*
X84100042Y-71315371D01*
X84100042Y-71315371D02*
X84004804Y-71267752D01*
X84004804Y-71267752D02*
X83861947Y-71267752D01*
X83861947Y-71267752D02*
X83766709Y-71315371D01*
X83766709Y-71315371D02*
X83719090Y-71362990D01*
X83719090Y-71362990D02*
X83671471Y-71458228D01*
X83671471Y-71458228D02*
X83671471Y-71743942D01*
X83671471Y-71743942D02*
X83719090Y-71839180D01*
X83719090Y-71839180D02*
X83766709Y-71886800D01*
X83766709Y-71886800D02*
X83861947Y-71934419D01*
X83861947Y-71934419D02*
X84004804Y-71934419D01*
X83242899Y-71934419D02*
X83242899Y-71267752D01*
X83242899Y-71458228D02*
X83195280Y-71362990D01*
X83195280Y-71362990D02*
X83147661Y-71315371D01*
X83147661Y-71315371D02*
X83052423Y-71267752D01*
X83052423Y-71267752D02*
X82957185Y-71267752D01*
X82004803Y-71267752D02*
X81623851Y-71267752D01*
X81861946Y-70934419D02*
X81861946Y-71791561D01*
X81861946Y-71791561D02*
X81814327Y-71886800D01*
X81814327Y-71886800D02*
X81719089Y-71934419D01*
X81719089Y-71934419D02*
X81623851Y-71934419D01*
X81290517Y-71934419D02*
X81290517Y-70934419D01*
X80861946Y-71934419D02*
X80861946Y-71410609D01*
X80861946Y-71410609D02*
X80909565Y-71315371D01*
X80909565Y-71315371D02*
X81004803Y-71267752D01*
X81004803Y-71267752D02*
X81147660Y-71267752D01*
X81147660Y-71267752D02*
X81242898Y-71315371D01*
X81242898Y-71315371D02*
X81290517Y-71362990D01*
X80004803Y-71886800D02*
X80100041Y-71934419D01*
X80100041Y-71934419D02*
X80290517Y-71934419D01*
X80290517Y-71934419D02*
X80385755Y-71886800D01*
X80385755Y-71886800D02*
X80433374Y-71791561D01*
X80433374Y-71791561D02*
X80433374Y-71410609D01*
X80433374Y-71410609D02*
X80385755Y-71315371D01*
X80385755Y-71315371D02*
X80290517Y-71267752D01*
X80290517Y-71267752D02*
X80100041Y-71267752D01*
X80100041Y-71267752D02*
X80004803Y-71315371D01*
X80004803Y-71315371D02*
X79957184Y-71410609D01*
X79957184Y-71410609D02*
X79957184Y-71505847D01*
X79957184Y-71505847D02*
X80433374Y-71601085D01*
X78433374Y-71410609D02*
X78766707Y-71410609D01*
X78766707Y-71934419D02*
X78766707Y-70934419D01*
X78766707Y-70934419D02*
X78290517Y-70934419D01*
X77766707Y-71934419D02*
X77861945Y-71886800D01*
X77861945Y-71886800D02*
X77909564Y-71791561D01*
X77909564Y-71791561D02*
X77909564Y-70934419D01*
X77242897Y-71934419D02*
X77338135Y-71886800D01*
X77338135Y-71886800D02*
X77385754Y-71839180D01*
X77385754Y-71839180D02*
X77433373Y-71743942D01*
X77433373Y-71743942D02*
X77433373Y-71458228D01*
X77433373Y-71458228D02*
X77385754Y-71362990D01*
X77385754Y-71362990D02*
X77338135Y-71315371D01*
X77338135Y-71315371D02*
X77242897Y-71267752D01*
X77242897Y-71267752D02*
X77100040Y-71267752D01*
X77100040Y-71267752D02*
X77004802Y-71315371D01*
X77004802Y-71315371D02*
X76957183Y-71362990D01*
X76957183Y-71362990D02*
X76909564Y-71458228D01*
X76909564Y-71458228D02*
X76909564Y-71743942D01*
X76909564Y-71743942D02*
X76957183Y-71839180D01*
X76957183Y-71839180D02*
X77004802Y-71886800D01*
X77004802Y-71886800D02*
X77100040Y-71934419D01*
X77100040Y-71934419D02*
X77242897Y-71934419D01*
X76576230Y-71267752D02*
X76385754Y-71934419D01*
X76385754Y-71934419D02*
X76195278Y-71458228D01*
X76195278Y-71458228D02*
X76004802Y-71934419D01*
X76004802Y-71934419D02*
X75814326Y-71267752D01*
X75480992Y-71886800D02*
X75338135Y-71934419D01*
X75338135Y-71934419D02*
X75100040Y-71934419D01*
X75100040Y-71934419D02*
X75004802Y-71886800D01*
X75004802Y-71886800D02*
X74957183Y-71839180D01*
X74957183Y-71839180D02*
X74909564Y-71743942D01*
X74909564Y-71743942D02*
X74909564Y-71648704D01*
X74909564Y-71648704D02*
X74957183Y-71553466D01*
X74957183Y-71553466D02*
X75004802Y-71505847D01*
X75004802Y-71505847D02*
X75100040Y-71458228D01*
X75100040Y-71458228D02*
X75290516Y-71410609D01*
X75290516Y-71410609D02*
X75385754Y-71362990D01*
X75385754Y-71362990D02*
X75433373Y-71315371D01*
X75433373Y-71315371D02*
X75480992Y-71220133D01*
X75480992Y-71220133D02*
X75480992Y-71124895D01*
X75480992Y-71124895D02*
X75433373Y-71029657D01*
X75433373Y-71029657D02*
X75385754Y-70982038D01*
X75385754Y-70982038D02*
X75290516Y-70934419D01*
X75290516Y-70934419D02*
X75052421Y-70934419D01*
X75052421Y-70934419D02*
X74909564Y-70982038D01*
X74100040Y-71886800D02*
X74195278Y-71934419D01*
X74195278Y-71934419D02*
X74385754Y-71934419D01*
X74385754Y-71934419D02*
X74480992Y-71886800D01*
X74480992Y-71886800D02*
X74528611Y-71791561D01*
X74528611Y-71791561D02*
X74528611Y-71410609D01*
X74528611Y-71410609D02*
X74480992Y-71315371D01*
X74480992Y-71315371D02*
X74385754Y-71267752D01*
X74385754Y-71267752D02*
X74195278Y-71267752D01*
X74195278Y-71267752D02*
X74100040Y-71315371D01*
X74100040Y-71315371D02*
X74052421Y-71410609D01*
X74052421Y-71410609D02*
X74052421Y-71505847D01*
X74052421Y-71505847D02*
X74528611Y-71601085D01*
X73623849Y-71267752D02*
X73623849Y-71934419D01*
X73623849Y-71362990D02*
X73576230Y-71315371D01*
X73576230Y-71315371D02*
X73480992Y-71267752D01*
X73480992Y-71267752D02*
X73338135Y-71267752D01*
X73338135Y-71267752D02*
X73242897Y-71315371D01*
X73242897Y-71315371D02*
X73195278Y-71410609D01*
X73195278Y-71410609D02*
X73195278Y-71934419D01*
X72766706Y-71886800D02*
X72671468Y-71934419D01*
X72671468Y-71934419D02*
X72480992Y-71934419D01*
X72480992Y-71934419D02*
X72385754Y-71886800D01*
X72385754Y-71886800D02*
X72338135Y-71791561D01*
X72338135Y-71791561D02*
X72338135Y-71743942D01*
X72338135Y-71743942D02*
X72385754Y-71648704D01*
X72385754Y-71648704D02*
X72480992Y-71601085D01*
X72480992Y-71601085D02*
X72623849Y-71601085D01*
X72623849Y-71601085D02*
X72719087Y-71553466D01*
X72719087Y-71553466D02*
X72766706Y-71458228D01*
X72766706Y-71458228D02*
X72766706Y-71410609D01*
X72766706Y-71410609D02*
X72719087Y-71315371D01*
X72719087Y-71315371D02*
X72623849Y-71267752D01*
X72623849Y-71267752D02*
X72480992Y-71267752D01*
X72480992Y-71267752D02*
X72385754Y-71315371D01*
X71528611Y-71886800D02*
X71623849Y-71934419D01*
X71623849Y-71934419D02*
X71814325Y-71934419D01*
X71814325Y-71934419D02*
X71909563Y-71886800D01*
X71909563Y-71886800D02*
X71957182Y-71791561D01*
X71957182Y-71791561D02*
X71957182Y-71410609D01*
X71957182Y-71410609D02*
X71909563Y-71315371D01*
X71909563Y-71315371D02*
X71814325Y-71267752D01*
X71814325Y-71267752D02*
X71623849Y-71267752D01*
X71623849Y-71267752D02*
X71528611Y-71315371D01*
X71528611Y-71315371D02*
X71480992Y-71410609D01*
X71480992Y-71410609D02*
X71480992Y-71505847D01*
X71480992Y-71505847D02*
X71957182Y-71601085D01*
X85052423Y-73506800D02*
X84957185Y-73554419D01*
X84957185Y-73554419D02*
X84766709Y-73554419D01*
X84766709Y-73554419D02*
X84671471Y-73506800D01*
X84671471Y-73506800D02*
X84623852Y-73411561D01*
X84623852Y-73411561D02*
X84623852Y-73363942D01*
X84623852Y-73363942D02*
X84671471Y-73268704D01*
X84671471Y-73268704D02*
X84766709Y-73221085D01*
X84766709Y-73221085D02*
X84909566Y-73221085D01*
X84909566Y-73221085D02*
X85004804Y-73173466D01*
X85004804Y-73173466D02*
X85052423Y-73078228D01*
X85052423Y-73078228D02*
X85052423Y-73030609D01*
X85052423Y-73030609D02*
X85004804Y-72935371D01*
X85004804Y-72935371D02*
X84909566Y-72887752D01*
X84909566Y-72887752D02*
X84766709Y-72887752D01*
X84766709Y-72887752D02*
X84671471Y-72935371D01*
X83814328Y-73506800D02*
X83909566Y-73554419D01*
X83909566Y-73554419D02*
X84100042Y-73554419D01*
X84100042Y-73554419D02*
X84195280Y-73506800D01*
X84195280Y-73506800D02*
X84242899Y-73411561D01*
X84242899Y-73411561D02*
X84242899Y-73030609D01*
X84242899Y-73030609D02*
X84195280Y-72935371D01*
X84195280Y-72935371D02*
X84100042Y-72887752D01*
X84100042Y-72887752D02*
X83909566Y-72887752D01*
X83909566Y-72887752D02*
X83814328Y-72935371D01*
X83814328Y-72935371D02*
X83766709Y-73030609D01*
X83766709Y-73030609D02*
X83766709Y-73125847D01*
X83766709Y-73125847D02*
X84242899Y-73221085D01*
X83338137Y-72887752D02*
X83338137Y-73554419D01*
X83338137Y-72982990D02*
X83290518Y-72935371D01*
X83290518Y-72935371D02*
X83195280Y-72887752D01*
X83195280Y-72887752D02*
X83052423Y-72887752D01*
X83052423Y-72887752D02*
X82957185Y-72935371D01*
X82957185Y-72935371D02*
X82909566Y-73030609D01*
X82909566Y-73030609D02*
X82909566Y-73554419D01*
X82480994Y-73506800D02*
X82385756Y-73554419D01*
X82385756Y-73554419D02*
X82195280Y-73554419D01*
X82195280Y-73554419D02*
X82100042Y-73506800D01*
X82100042Y-73506800D02*
X82052423Y-73411561D01*
X82052423Y-73411561D02*
X82052423Y-73363942D01*
X82052423Y-73363942D02*
X82100042Y-73268704D01*
X82100042Y-73268704D02*
X82195280Y-73221085D01*
X82195280Y-73221085D02*
X82338137Y-73221085D01*
X82338137Y-73221085D02*
X82433375Y-73173466D01*
X82433375Y-73173466D02*
X82480994Y-73078228D01*
X82480994Y-73078228D02*
X82480994Y-73030609D01*
X82480994Y-73030609D02*
X82433375Y-72935371D01*
X82433375Y-72935371D02*
X82338137Y-72887752D01*
X82338137Y-72887752D02*
X82195280Y-72887752D01*
X82195280Y-72887752D02*
X82100042Y-72935371D01*
X81480994Y-73554419D02*
X81576232Y-73506800D01*
X81576232Y-73506800D02*
X81623851Y-73459180D01*
X81623851Y-73459180D02*
X81671470Y-73363942D01*
X81671470Y-73363942D02*
X81671470Y-73078228D01*
X81671470Y-73078228D02*
X81623851Y-72982990D01*
X81623851Y-72982990D02*
X81576232Y-72935371D01*
X81576232Y-72935371D02*
X81480994Y-72887752D01*
X81480994Y-72887752D02*
X81338137Y-72887752D01*
X81338137Y-72887752D02*
X81242899Y-72935371D01*
X81242899Y-72935371D02*
X81195280Y-72982990D01*
X81195280Y-72982990D02*
X81147661Y-73078228D01*
X81147661Y-73078228D02*
X81147661Y-73363942D01*
X81147661Y-73363942D02*
X81195280Y-73459180D01*
X81195280Y-73459180D02*
X81242899Y-73506800D01*
X81242899Y-73506800D02*
X81338137Y-73554419D01*
X81338137Y-73554419D02*
X81480994Y-73554419D01*
X80719089Y-73554419D02*
X80719089Y-72887752D01*
X80719089Y-73078228D02*
X80671470Y-72982990D01*
X80671470Y-72982990D02*
X80623851Y-72935371D01*
X80623851Y-72935371D02*
X80528613Y-72887752D01*
X80528613Y-72887752D02*
X80433375Y-72887752D01*
X80100041Y-73459180D02*
X80052422Y-73506800D01*
X80052422Y-73506800D02*
X80100041Y-73554419D01*
X80100041Y-73554419D02*
X80147660Y-73506800D01*
X80147660Y-73506800D02*
X80100041Y-73459180D01*
X80100041Y-73459180D02*
X80100041Y-73554419D01*
X68414900Y-65201800D02*
X86067900Y-65201800D01*
X86067900Y-75946000D01*
X68414900Y-75946000D01*
X68414900Y-65201800D01*
%TO.C,R8*%
X69356266Y-45369819D02*
X69689599Y-44893628D01*
X69927694Y-45369819D02*
X69927694Y-44369819D01*
X69927694Y-44369819D02*
X69546742Y-44369819D01*
X69546742Y-44369819D02*
X69451504Y-44417438D01*
X69451504Y-44417438D02*
X69403885Y-44465057D01*
X69403885Y-44465057D02*
X69356266Y-44560295D01*
X69356266Y-44560295D02*
X69356266Y-44703152D01*
X69356266Y-44703152D02*
X69403885Y-44798390D01*
X69403885Y-44798390D02*
X69451504Y-44846009D01*
X69451504Y-44846009D02*
X69546742Y-44893628D01*
X69546742Y-44893628D02*
X69927694Y-44893628D01*
X68784837Y-44798390D02*
X68880075Y-44750771D01*
X68880075Y-44750771D02*
X68927694Y-44703152D01*
X68927694Y-44703152D02*
X68975313Y-44607914D01*
X68975313Y-44607914D02*
X68975313Y-44560295D01*
X68975313Y-44560295D02*
X68927694Y-44465057D01*
X68927694Y-44465057D02*
X68880075Y-44417438D01*
X68880075Y-44417438D02*
X68784837Y-44369819D01*
X68784837Y-44369819D02*
X68594361Y-44369819D01*
X68594361Y-44369819D02*
X68499123Y-44417438D01*
X68499123Y-44417438D02*
X68451504Y-44465057D01*
X68451504Y-44465057D02*
X68403885Y-44560295D01*
X68403885Y-44560295D02*
X68403885Y-44607914D01*
X68403885Y-44607914D02*
X68451504Y-44703152D01*
X68451504Y-44703152D02*
X68499123Y-44750771D01*
X68499123Y-44750771D02*
X68594361Y-44798390D01*
X68594361Y-44798390D02*
X68784837Y-44798390D01*
X68784837Y-44798390D02*
X68880075Y-44846009D01*
X68880075Y-44846009D02*
X68927694Y-44893628D01*
X68927694Y-44893628D02*
X68975313Y-44988866D01*
X68975313Y-44988866D02*
X68975313Y-45179342D01*
X68975313Y-45179342D02*
X68927694Y-45274580D01*
X68927694Y-45274580D02*
X68880075Y-45322200D01*
X68880075Y-45322200D02*
X68784837Y-45369819D01*
X68784837Y-45369819D02*
X68594361Y-45369819D01*
X68594361Y-45369819D02*
X68499123Y-45322200D01*
X68499123Y-45322200D02*
X68451504Y-45274580D01*
X68451504Y-45274580D02*
X68403885Y-45179342D01*
X68403885Y-45179342D02*
X68403885Y-44988866D01*
X68403885Y-44988866D02*
X68451504Y-44893628D01*
X68451504Y-44893628D02*
X68499123Y-44846009D01*
X68499123Y-44846009D02*
X68594361Y-44798390D01*
%TO.C,D2*%
X78766894Y-33711219D02*
X78766894Y-32711219D01*
X78766894Y-32711219D02*
X78528799Y-32711219D01*
X78528799Y-32711219D02*
X78385942Y-32758838D01*
X78385942Y-32758838D02*
X78290704Y-32854076D01*
X78290704Y-32854076D02*
X78243085Y-32949314D01*
X78243085Y-32949314D02*
X78195466Y-33139790D01*
X78195466Y-33139790D02*
X78195466Y-33282647D01*
X78195466Y-33282647D02*
X78243085Y-33473123D01*
X78243085Y-33473123D02*
X78290704Y-33568361D01*
X78290704Y-33568361D02*
X78385942Y-33663600D01*
X78385942Y-33663600D02*
X78528799Y-33711219D01*
X78528799Y-33711219D02*
X78766894Y-33711219D01*
X77814513Y-32806457D02*
X77766894Y-32758838D01*
X77766894Y-32758838D02*
X77671656Y-32711219D01*
X77671656Y-32711219D02*
X77433561Y-32711219D01*
X77433561Y-32711219D02*
X77338323Y-32758838D01*
X77338323Y-32758838D02*
X77290704Y-32806457D01*
X77290704Y-32806457D02*
X77243085Y-32901695D01*
X77243085Y-32901695D02*
X77243085Y-32996933D01*
X77243085Y-32996933D02*
X77290704Y-33139790D01*
X77290704Y-33139790D02*
X77862132Y-33711219D01*
X77862132Y-33711219D02*
X77243085Y-33711219D01*
%TO.C,R6*%
X69305466Y-43134619D02*
X69638799Y-42658428D01*
X69876894Y-43134619D02*
X69876894Y-42134619D01*
X69876894Y-42134619D02*
X69495942Y-42134619D01*
X69495942Y-42134619D02*
X69400704Y-42182238D01*
X69400704Y-42182238D02*
X69353085Y-42229857D01*
X69353085Y-42229857D02*
X69305466Y-42325095D01*
X69305466Y-42325095D02*
X69305466Y-42467952D01*
X69305466Y-42467952D02*
X69353085Y-42563190D01*
X69353085Y-42563190D02*
X69400704Y-42610809D01*
X69400704Y-42610809D02*
X69495942Y-42658428D01*
X69495942Y-42658428D02*
X69876894Y-42658428D01*
X68448323Y-42134619D02*
X68638799Y-42134619D01*
X68638799Y-42134619D02*
X68734037Y-42182238D01*
X68734037Y-42182238D02*
X68781656Y-42229857D01*
X68781656Y-42229857D02*
X68876894Y-42372714D01*
X68876894Y-42372714D02*
X68924513Y-42563190D01*
X68924513Y-42563190D02*
X68924513Y-42944142D01*
X68924513Y-42944142D02*
X68876894Y-43039380D01*
X68876894Y-43039380D02*
X68829275Y-43087000D01*
X68829275Y-43087000D02*
X68734037Y-43134619D01*
X68734037Y-43134619D02*
X68543561Y-43134619D01*
X68543561Y-43134619D02*
X68448323Y-43087000D01*
X68448323Y-43087000D02*
X68400704Y-43039380D01*
X68400704Y-43039380D02*
X68353085Y-42944142D01*
X68353085Y-42944142D02*
X68353085Y-42706047D01*
X68353085Y-42706047D02*
X68400704Y-42610809D01*
X68400704Y-42610809D02*
X68448323Y-42563190D01*
X68448323Y-42563190D02*
X68543561Y-42515571D01*
X68543561Y-42515571D02*
X68734037Y-42515571D01*
X68734037Y-42515571D02*
X68829275Y-42563190D01*
X68829275Y-42563190D02*
X68876894Y-42610809D01*
X68876894Y-42610809D02*
X68924513Y-42706047D01*
%TO.C,R4*%
X70566619Y-60285333D02*
X70090428Y-59952000D01*
X70566619Y-59713905D02*
X69566619Y-59713905D01*
X69566619Y-59713905D02*
X69566619Y-60094857D01*
X69566619Y-60094857D02*
X69614238Y-60190095D01*
X69614238Y-60190095D02*
X69661857Y-60237714D01*
X69661857Y-60237714D02*
X69757095Y-60285333D01*
X69757095Y-60285333D02*
X69899952Y-60285333D01*
X69899952Y-60285333D02*
X69995190Y-60237714D01*
X69995190Y-60237714D02*
X70042809Y-60190095D01*
X70042809Y-60190095D02*
X70090428Y-60094857D01*
X70090428Y-60094857D02*
X70090428Y-59713905D01*
X69899952Y-61142476D02*
X70566619Y-61142476D01*
X69519000Y-60904381D02*
X70233285Y-60666286D01*
X70233285Y-60666286D02*
X70233285Y-61285333D01*
%TO.C,J3*%
X79948619Y-40981666D02*
X80662904Y-40981666D01*
X80662904Y-40981666D02*
X80805761Y-40934047D01*
X80805761Y-40934047D02*
X80901000Y-40838809D01*
X80901000Y-40838809D02*
X80948619Y-40695952D01*
X80948619Y-40695952D02*
X80948619Y-40600714D01*
X79948619Y-41362619D02*
X79948619Y-41981666D01*
X79948619Y-41981666D02*
X80329571Y-41648333D01*
X80329571Y-41648333D02*
X80329571Y-41791190D01*
X80329571Y-41791190D02*
X80377190Y-41886428D01*
X80377190Y-41886428D02*
X80424809Y-41934047D01*
X80424809Y-41934047D02*
X80520047Y-41981666D01*
X80520047Y-41981666D02*
X80758142Y-41981666D01*
X80758142Y-41981666D02*
X80853380Y-41934047D01*
X80853380Y-41934047D02*
X80901000Y-41886428D01*
X80901000Y-41886428D02*
X80948619Y-41791190D01*
X80948619Y-41791190D02*
X80948619Y-41505476D01*
X80948619Y-41505476D02*
X80901000Y-41410238D01*
X80901000Y-41410238D02*
X80853380Y-41362619D01*
%TO.C,U1*%
X79095504Y-55444219D02*
X79095504Y-56253742D01*
X79095504Y-56253742D02*
X79047885Y-56348980D01*
X79047885Y-56348980D02*
X79000266Y-56396600D01*
X79000266Y-56396600D02*
X78905028Y-56444219D01*
X78905028Y-56444219D02*
X78714552Y-56444219D01*
X78714552Y-56444219D02*
X78619314Y-56396600D01*
X78619314Y-56396600D02*
X78571695Y-56348980D01*
X78571695Y-56348980D02*
X78524076Y-56253742D01*
X78524076Y-56253742D02*
X78524076Y-55444219D01*
X77524076Y-56444219D02*
X78095504Y-56444219D01*
X77809790Y-56444219D02*
X77809790Y-55444219D01*
X77809790Y-55444219D02*
X77905028Y-55587076D01*
X77905028Y-55587076D02*
X78000266Y-55682314D01*
X78000266Y-55682314D02*
X78095504Y-55729933D01*
%TO.C,R2*%
X69407066Y-49941819D02*
X69740399Y-49465628D01*
X69978494Y-49941819D02*
X69978494Y-48941819D01*
X69978494Y-48941819D02*
X69597542Y-48941819D01*
X69597542Y-48941819D02*
X69502304Y-48989438D01*
X69502304Y-48989438D02*
X69454685Y-49037057D01*
X69454685Y-49037057D02*
X69407066Y-49132295D01*
X69407066Y-49132295D02*
X69407066Y-49275152D01*
X69407066Y-49275152D02*
X69454685Y-49370390D01*
X69454685Y-49370390D02*
X69502304Y-49418009D01*
X69502304Y-49418009D02*
X69597542Y-49465628D01*
X69597542Y-49465628D02*
X69978494Y-49465628D01*
X69026113Y-49037057D02*
X68978494Y-48989438D01*
X68978494Y-48989438D02*
X68883256Y-48941819D01*
X68883256Y-48941819D02*
X68645161Y-48941819D01*
X68645161Y-48941819D02*
X68549923Y-48989438D01*
X68549923Y-48989438D02*
X68502304Y-49037057D01*
X68502304Y-49037057D02*
X68454685Y-49132295D01*
X68454685Y-49132295D02*
X68454685Y-49227533D01*
X68454685Y-49227533D02*
X68502304Y-49370390D01*
X68502304Y-49370390D02*
X69073732Y-49941819D01*
X69073732Y-49941819D02*
X68454685Y-49941819D01*
%TO.C,TP4*%
X80103504Y-49579819D02*
X79532076Y-49579819D01*
X79817790Y-50579819D02*
X79817790Y-49579819D01*
X79198742Y-50579819D02*
X79198742Y-49579819D01*
X79198742Y-49579819D02*
X78817790Y-49579819D01*
X78817790Y-49579819D02*
X78722552Y-49627438D01*
X78722552Y-49627438D02*
X78674933Y-49675057D01*
X78674933Y-49675057D02*
X78627314Y-49770295D01*
X78627314Y-49770295D02*
X78627314Y-49913152D01*
X78627314Y-49913152D02*
X78674933Y-50008390D01*
X78674933Y-50008390D02*
X78722552Y-50056009D01*
X78722552Y-50056009D02*
X78817790Y-50103628D01*
X78817790Y-50103628D02*
X79198742Y-50103628D01*
X77770171Y-49913152D02*
X77770171Y-50579819D01*
X78008266Y-49532200D02*
X78246361Y-50246485D01*
X78246361Y-50246485D02*
X77627314Y-50246485D01*
%TO.C,R3*%
X67984666Y-61930619D02*
X68317999Y-61454428D01*
X68556094Y-61930619D02*
X68556094Y-60930619D01*
X68556094Y-60930619D02*
X68175142Y-60930619D01*
X68175142Y-60930619D02*
X68079904Y-60978238D01*
X68079904Y-60978238D02*
X68032285Y-61025857D01*
X68032285Y-61025857D02*
X67984666Y-61121095D01*
X67984666Y-61121095D02*
X67984666Y-61263952D01*
X67984666Y-61263952D02*
X68032285Y-61359190D01*
X68032285Y-61359190D02*
X68079904Y-61406809D01*
X68079904Y-61406809D02*
X68175142Y-61454428D01*
X68175142Y-61454428D02*
X68556094Y-61454428D01*
X67651332Y-60930619D02*
X67032285Y-60930619D01*
X67032285Y-60930619D02*
X67365618Y-61311571D01*
X67365618Y-61311571D02*
X67222761Y-61311571D01*
X67222761Y-61311571D02*
X67127523Y-61359190D01*
X67127523Y-61359190D02*
X67079904Y-61406809D01*
X67079904Y-61406809D02*
X67032285Y-61502047D01*
X67032285Y-61502047D02*
X67032285Y-61740142D01*
X67032285Y-61740142D02*
X67079904Y-61835380D01*
X67079904Y-61835380D02*
X67127523Y-61883000D01*
X67127523Y-61883000D02*
X67222761Y-61930619D01*
X67222761Y-61930619D02*
X67508475Y-61930619D01*
X67508475Y-61930619D02*
X67603713Y-61883000D01*
X67603713Y-61883000D02*
X67651332Y-61835380D01*
%TO.C,R1*%
X74283866Y-58781019D02*
X74617199Y-58304828D01*
X74855294Y-58781019D02*
X74855294Y-57781019D01*
X74855294Y-57781019D02*
X74474342Y-57781019D01*
X74474342Y-57781019D02*
X74379104Y-57828638D01*
X74379104Y-57828638D02*
X74331485Y-57876257D01*
X74331485Y-57876257D02*
X74283866Y-57971495D01*
X74283866Y-57971495D02*
X74283866Y-58114352D01*
X74283866Y-58114352D02*
X74331485Y-58209590D01*
X74331485Y-58209590D02*
X74379104Y-58257209D01*
X74379104Y-58257209D02*
X74474342Y-58304828D01*
X74474342Y-58304828D02*
X74855294Y-58304828D01*
X73331485Y-58781019D02*
X73902913Y-58781019D01*
X73617199Y-58781019D02*
X73617199Y-57781019D01*
X73617199Y-57781019D02*
X73712437Y-57923876D01*
X73712437Y-57923876D02*
X73807675Y-58019114D01*
X73807675Y-58019114D02*
X73902913Y-58066733D01*
%TO.C,R5*%
X69356266Y-47706619D02*
X69689599Y-47230428D01*
X69927694Y-47706619D02*
X69927694Y-46706619D01*
X69927694Y-46706619D02*
X69546742Y-46706619D01*
X69546742Y-46706619D02*
X69451504Y-46754238D01*
X69451504Y-46754238D02*
X69403885Y-46801857D01*
X69403885Y-46801857D02*
X69356266Y-46897095D01*
X69356266Y-46897095D02*
X69356266Y-47039952D01*
X69356266Y-47039952D02*
X69403885Y-47135190D01*
X69403885Y-47135190D02*
X69451504Y-47182809D01*
X69451504Y-47182809D02*
X69546742Y-47230428D01*
X69546742Y-47230428D02*
X69927694Y-47230428D01*
X68451504Y-46706619D02*
X68927694Y-46706619D01*
X68927694Y-46706619D02*
X68975313Y-47182809D01*
X68975313Y-47182809D02*
X68927694Y-47135190D01*
X68927694Y-47135190D02*
X68832456Y-47087571D01*
X68832456Y-47087571D02*
X68594361Y-47087571D01*
X68594361Y-47087571D02*
X68499123Y-47135190D01*
X68499123Y-47135190D02*
X68451504Y-47182809D01*
X68451504Y-47182809D02*
X68403885Y-47278047D01*
X68403885Y-47278047D02*
X68403885Y-47516142D01*
X68403885Y-47516142D02*
X68451504Y-47611380D01*
X68451504Y-47611380D02*
X68499123Y-47659000D01*
X68499123Y-47659000D02*
X68594361Y-47706619D01*
X68594361Y-47706619D02*
X68832456Y-47706619D01*
X68832456Y-47706619D02*
X68927694Y-47659000D01*
X68927694Y-47659000D02*
X68975313Y-47611380D01*
%TO.C,D_REC*%
X85483437Y-33482619D02*
X85483437Y-32482619D01*
X85483437Y-32482619D02*
X85245342Y-32482619D01*
X85245342Y-32482619D02*
X85102485Y-32530238D01*
X85102485Y-32530238D02*
X85007247Y-32625476D01*
X85007247Y-32625476D02*
X84959628Y-32720714D01*
X84959628Y-32720714D02*
X84912009Y-32911190D01*
X84912009Y-32911190D02*
X84912009Y-33054047D01*
X84912009Y-33054047D02*
X84959628Y-33244523D01*
X84959628Y-33244523D02*
X85007247Y-33339761D01*
X85007247Y-33339761D02*
X85102485Y-33435000D01*
X85102485Y-33435000D02*
X85245342Y-33482619D01*
X85245342Y-33482619D02*
X85483437Y-33482619D01*
X84721533Y-33577857D02*
X83959628Y-33577857D01*
X83150104Y-33482619D02*
X83483437Y-33006428D01*
X83721532Y-33482619D02*
X83721532Y-32482619D01*
X83721532Y-32482619D02*
X83340580Y-32482619D01*
X83340580Y-32482619D02*
X83245342Y-32530238D01*
X83245342Y-32530238D02*
X83197723Y-32577857D01*
X83197723Y-32577857D02*
X83150104Y-32673095D01*
X83150104Y-32673095D02*
X83150104Y-32815952D01*
X83150104Y-32815952D02*
X83197723Y-32911190D01*
X83197723Y-32911190D02*
X83245342Y-32958809D01*
X83245342Y-32958809D02*
X83340580Y-33006428D01*
X83340580Y-33006428D02*
X83721532Y-33006428D01*
X82721532Y-32958809D02*
X82388199Y-32958809D01*
X82245342Y-33482619D02*
X82721532Y-33482619D01*
X82721532Y-33482619D02*
X82721532Y-32482619D01*
X82721532Y-32482619D02*
X82245342Y-32482619D01*
X81245342Y-33387380D02*
X81292961Y-33435000D01*
X81292961Y-33435000D02*
X81435818Y-33482619D01*
X81435818Y-33482619D02*
X81531056Y-33482619D01*
X81531056Y-33482619D02*
X81673913Y-33435000D01*
X81673913Y-33435000D02*
X81769151Y-33339761D01*
X81769151Y-33339761D02*
X81816770Y-33244523D01*
X81816770Y-33244523D02*
X81864389Y-33054047D01*
X81864389Y-33054047D02*
X81864389Y-32911190D01*
X81864389Y-32911190D02*
X81816770Y-32720714D01*
X81816770Y-32720714D02*
X81769151Y-32625476D01*
X81769151Y-32625476D02*
X81673913Y-32530238D01*
X81673913Y-32530238D02*
X81531056Y-32482619D01*
X81531056Y-32482619D02*
X81435818Y-32482619D01*
X81435818Y-32482619D02*
X81292961Y-32530238D01*
X81292961Y-32530238D02*
X81245342Y-32577857D01*
%TO.C,BATT*%
X85042809Y-48072952D02*
X85090428Y-48215809D01*
X85090428Y-48215809D02*
X85138047Y-48263428D01*
X85138047Y-48263428D02*
X85233285Y-48311047D01*
X85233285Y-48311047D02*
X85376142Y-48311047D01*
X85376142Y-48311047D02*
X85471380Y-48263428D01*
X85471380Y-48263428D02*
X85519000Y-48215809D01*
X85519000Y-48215809D02*
X85566619Y-48120571D01*
X85566619Y-48120571D02*
X85566619Y-47739619D01*
X85566619Y-47739619D02*
X84566619Y-47739619D01*
X84566619Y-47739619D02*
X84566619Y-48072952D01*
X84566619Y-48072952D02*
X84614238Y-48168190D01*
X84614238Y-48168190D02*
X84661857Y-48215809D01*
X84661857Y-48215809D02*
X84757095Y-48263428D01*
X84757095Y-48263428D02*
X84852333Y-48263428D01*
X84852333Y-48263428D02*
X84947571Y-48215809D01*
X84947571Y-48215809D02*
X84995190Y-48168190D01*
X84995190Y-48168190D02*
X85042809Y-48072952D01*
X85042809Y-48072952D02*
X85042809Y-47739619D01*
X85280904Y-48692000D02*
X85280904Y-49168190D01*
X85566619Y-48596762D02*
X84566619Y-48930095D01*
X84566619Y-48930095D02*
X85566619Y-49263428D01*
X84566619Y-49453905D02*
X84566619Y-50025333D01*
X85566619Y-49739619D02*
X84566619Y-49739619D01*
X84566619Y-50215810D02*
X84566619Y-50787238D01*
X85566619Y-50501524D02*
X84566619Y-50501524D01*
%TO.C,SOLAR*%
X85519000Y-54059543D02*
X85566619Y-54202400D01*
X85566619Y-54202400D02*
X85566619Y-54440495D01*
X85566619Y-54440495D02*
X85519000Y-54535733D01*
X85519000Y-54535733D02*
X85471380Y-54583352D01*
X85471380Y-54583352D02*
X85376142Y-54630971D01*
X85376142Y-54630971D02*
X85280904Y-54630971D01*
X85280904Y-54630971D02*
X85185666Y-54583352D01*
X85185666Y-54583352D02*
X85138047Y-54535733D01*
X85138047Y-54535733D02*
X85090428Y-54440495D01*
X85090428Y-54440495D02*
X85042809Y-54250019D01*
X85042809Y-54250019D02*
X84995190Y-54154781D01*
X84995190Y-54154781D02*
X84947571Y-54107162D01*
X84947571Y-54107162D02*
X84852333Y-54059543D01*
X84852333Y-54059543D02*
X84757095Y-54059543D01*
X84757095Y-54059543D02*
X84661857Y-54107162D01*
X84661857Y-54107162D02*
X84614238Y-54154781D01*
X84614238Y-54154781D02*
X84566619Y-54250019D01*
X84566619Y-54250019D02*
X84566619Y-54488114D01*
X84566619Y-54488114D02*
X84614238Y-54630971D01*
X84566619Y-55250019D02*
X84566619Y-55440495D01*
X84566619Y-55440495D02*
X84614238Y-55535733D01*
X84614238Y-55535733D02*
X84709476Y-55630971D01*
X84709476Y-55630971D02*
X84899952Y-55678590D01*
X84899952Y-55678590D02*
X85233285Y-55678590D01*
X85233285Y-55678590D02*
X85423761Y-55630971D01*
X85423761Y-55630971D02*
X85519000Y-55535733D01*
X85519000Y-55535733D02*
X85566619Y-55440495D01*
X85566619Y-55440495D02*
X85566619Y-55250019D01*
X85566619Y-55250019D02*
X85519000Y-55154781D01*
X85519000Y-55154781D02*
X85423761Y-55059543D01*
X85423761Y-55059543D02*
X85233285Y-55011924D01*
X85233285Y-55011924D02*
X84899952Y-55011924D01*
X84899952Y-55011924D02*
X84709476Y-55059543D01*
X84709476Y-55059543D02*
X84614238Y-55154781D01*
X84614238Y-55154781D02*
X84566619Y-55250019D01*
X85566619Y-56583352D02*
X85566619Y-56107162D01*
X85566619Y-56107162D02*
X84566619Y-56107162D01*
X85280904Y-56869067D02*
X85280904Y-57345257D01*
X85566619Y-56773829D02*
X84566619Y-57107162D01*
X84566619Y-57107162D02*
X85566619Y-57440495D01*
X85566619Y-58345257D02*
X85090428Y-58011924D01*
X85566619Y-57773829D02*
X84566619Y-57773829D01*
X84566619Y-57773829D02*
X84566619Y-58154781D01*
X84566619Y-58154781D02*
X84614238Y-58250019D01*
X84614238Y-58250019D02*
X84661857Y-58297638D01*
X84661857Y-58297638D02*
X84757095Y-58345257D01*
X84757095Y-58345257D02*
X84899952Y-58345257D01*
X84899952Y-58345257D02*
X84995190Y-58297638D01*
X84995190Y-58297638D02*
X85042809Y-58250019D01*
X85042809Y-58250019D02*
X85090428Y-58154781D01*
X85090428Y-58154781D02*
X85090428Y-57773829D01*
%TO.C,R7*%
X71083466Y-52583419D02*
X71416799Y-52107228D01*
X71654894Y-52583419D02*
X71654894Y-51583419D01*
X71654894Y-51583419D02*
X71273942Y-51583419D01*
X71273942Y-51583419D02*
X71178704Y-51631038D01*
X71178704Y-51631038D02*
X71131085Y-51678657D01*
X71131085Y-51678657D02*
X71083466Y-51773895D01*
X71083466Y-51773895D02*
X71083466Y-51916752D01*
X71083466Y-51916752D02*
X71131085Y-52011990D01*
X71131085Y-52011990D02*
X71178704Y-52059609D01*
X71178704Y-52059609D02*
X71273942Y-52107228D01*
X71273942Y-52107228D02*
X71654894Y-52107228D01*
X70750132Y-51583419D02*
X70083466Y-51583419D01*
X70083466Y-51583419D02*
X70512037Y-52583419D01*
%TO.C,L1*%
X80729419Y-43267333D02*
X80729419Y-42791143D01*
X80729419Y-42791143D02*
X79729419Y-42791143D01*
X80729419Y-44124476D02*
X80729419Y-43553048D01*
X80729419Y-43838762D02*
X79729419Y-43838762D01*
X79729419Y-43838762D02*
X79872276Y-43743524D01*
X79872276Y-43743524D02*
X79967514Y-43648286D01*
X79967514Y-43648286D02*
X80015133Y-43553048D01*
%TO.C,C1*%
X78531866Y-47171880D02*
X78579485Y-47219500D01*
X78579485Y-47219500D02*
X78722342Y-47267119D01*
X78722342Y-47267119D02*
X78817580Y-47267119D01*
X78817580Y-47267119D02*
X78960437Y-47219500D01*
X78960437Y-47219500D02*
X79055675Y-47124261D01*
X79055675Y-47124261D02*
X79103294Y-47029023D01*
X79103294Y-47029023D02*
X79150913Y-46838547D01*
X79150913Y-46838547D02*
X79150913Y-46695690D01*
X79150913Y-46695690D02*
X79103294Y-46505214D01*
X79103294Y-46505214D02*
X79055675Y-46409976D01*
X79055675Y-46409976D02*
X78960437Y-46314738D01*
X78960437Y-46314738D02*
X78817580Y-46267119D01*
X78817580Y-46267119D02*
X78722342Y-46267119D01*
X78722342Y-46267119D02*
X78579485Y-46314738D01*
X78579485Y-46314738D02*
X78531866Y-46362357D01*
X77579485Y-47267119D02*
X78150913Y-47267119D01*
X77865199Y-47267119D02*
X77865199Y-46267119D01*
X77865199Y-46267119D02*
X77960437Y-46409976D01*
X77960437Y-46409976D02*
X78055675Y-46505214D01*
X78055675Y-46505214D02*
X78150913Y-46552833D01*
%TO.C,+5v*%
X78488094Y-40486666D02*
X77726190Y-40486666D01*
X78107142Y-40867619D02*
X78107142Y-40105714D01*
X76773809Y-39867619D02*
X77249999Y-39867619D01*
X77249999Y-39867619D02*
X77297618Y-40343809D01*
X77297618Y-40343809D02*
X77249999Y-40296190D01*
X77249999Y-40296190D02*
X77154761Y-40248571D01*
X77154761Y-40248571D02*
X76916666Y-40248571D01*
X76916666Y-40248571D02*
X76821428Y-40296190D01*
X76821428Y-40296190D02*
X76773809Y-40343809D01*
X76773809Y-40343809D02*
X76726190Y-40439047D01*
X76726190Y-40439047D02*
X76726190Y-40677142D01*
X76726190Y-40677142D02*
X76773809Y-40772380D01*
X76773809Y-40772380D02*
X76821428Y-40820000D01*
X76821428Y-40820000D02*
X76916666Y-40867619D01*
X76916666Y-40867619D02*
X77154761Y-40867619D01*
X77154761Y-40867619D02*
X77249999Y-40820000D01*
X77249999Y-40820000D02*
X77297618Y-40772380D01*
X76392856Y-40200952D02*
X76154761Y-40867619D01*
X76154761Y-40867619D02*
X75916666Y-40200952D01*
%TO.C,U2*%
X70992904Y-37359419D02*
X70992904Y-38168942D01*
X70992904Y-38168942D02*
X70945285Y-38264180D01*
X70945285Y-38264180D02*
X70897666Y-38311800D01*
X70897666Y-38311800D02*
X70802428Y-38359419D01*
X70802428Y-38359419D02*
X70611952Y-38359419D01*
X70611952Y-38359419D02*
X70516714Y-38311800D01*
X70516714Y-38311800D02*
X70469095Y-38264180D01*
X70469095Y-38264180D02*
X70421476Y-38168942D01*
X70421476Y-38168942D02*
X70421476Y-37359419D01*
X69992904Y-37454657D02*
X69945285Y-37407038D01*
X69945285Y-37407038D02*
X69850047Y-37359419D01*
X69850047Y-37359419D02*
X69611952Y-37359419D01*
X69611952Y-37359419D02*
X69516714Y-37407038D01*
X69516714Y-37407038D02*
X69469095Y-37454657D01*
X69469095Y-37454657D02*
X69421476Y-37549895D01*
X69421476Y-37549895D02*
X69421476Y-37645133D01*
X69421476Y-37645133D02*
X69469095Y-37787990D01*
X69469095Y-37787990D02*
X70040523Y-38359419D01*
X70040523Y-38359419D02*
X69421476Y-38359419D01*
%TO.C,GND*%
X79705104Y-62603838D02*
X79800342Y-62556219D01*
X79800342Y-62556219D02*
X79943199Y-62556219D01*
X79943199Y-62556219D02*
X80086056Y-62603838D01*
X80086056Y-62603838D02*
X80181294Y-62699076D01*
X80181294Y-62699076D02*
X80228913Y-62794314D01*
X80228913Y-62794314D02*
X80276532Y-62984790D01*
X80276532Y-62984790D02*
X80276532Y-63127647D01*
X80276532Y-63127647D02*
X80228913Y-63318123D01*
X80228913Y-63318123D02*
X80181294Y-63413361D01*
X80181294Y-63413361D02*
X80086056Y-63508600D01*
X80086056Y-63508600D02*
X79943199Y-63556219D01*
X79943199Y-63556219D02*
X79847961Y-63556219D01*
X79847961Y-63556219D02*
X79705104Y-63508600D01*
X79705104Y-63508600D02*
X79657485Y-63460980D01*
X79657485Y-63460980D02*
X79657485Y-63127647D01*
X79657485Y-63127647D02*
X79847961Y-63127647D01*
X79228913Y-63556219D02*
X79228913Y-62556219D01*
X79228913Y-62556219D02*
X78657485Y-63556219D01*
X78657485Y-63556219D02*
X78657485Y-62556219D01*
X78181294Y-63556219D02*
X78181294Y-62556219D01*
X78181294Y-62556219D02*
X77943199Y-62556219D01*
X77943199Y-62556219D02*
X77800342Y-62603838D01*
X77800342Y-62603838D02*
X77705104Y-62699076D01*
X77705104Y-62699076D02*
X77657485Y-62794314D01*
X77657485Y-62794314D02*
X77609866Y-62984790D01*
X77609866Y-62984790D02*
X77609866Y-63127647D01*
X77609866Y-63127647D02*
X77657485Y-63318123D01*
X77657485Y-63318123D02*
X77705104Y-63413361D01*
X77705104Y-63413361D02*
X77800342Y-63508600D01*
X77800342Y-63508600D02*
X77943199Y-63556219D01*
X77943199Y-63556219D02*
X78181294Y-63556219D01*
%TO.C,VDD*%
X76110932Y-62505419D02*
X75777599Y-63505419D01*
X75777599Y-63505419D02*
X75444266Y-62505419D01*
X75110932Y-63505419D02*
X75110932Y-62505419D01*
X75110932Y-62505419D02*
X74872837Y-62505419D01*
X74872837Y-62505419D02*
X74729980Y-62553038D01*
X74729980Y-62553038D02*
X74634742Y-62648276D01*
X74634742Y-62648276D02*
X74587123Y-62743514D01*
X74587123Y-62743514D02*
X74539504Y-62933990D01*
X74539504Y-62933990D02*
X74539504Y-63076847D01*
X74539504Y-63076847D02*
X74587123Y-63267323D01*
X74587123Y-63267323D02*
X74634742Y-63362561D01*
X74634742Y-63362561D02*
X74729980Y-63457800D01*
X74729980Y-63457800D02*
X74872837Y-63505419D01*
X74872837Y-63505419D02*
X75110932Y-63505419D01*
X74110932Y-63505419D02*
X74110932Y-62505419D01*
X74110932Y-62505419D02*
X73872837Y-62505419D01*
X73872837Y-62505419D02*
X73729980Y-62553038D01*
X73729980Y-62553038D02*
X73634742Y-62648276D01*
X73634742Y-62648276D02*
X73587123Y-62743514D01*
X73587123Y-62743514D02*
X73539504Y-62933990D01*
X73539504Y-62933990D02*
X73539504Y-63076847D01*
X73539504Y-63076847D02*
X73587123Y-63267323D01*
X73587123Y-63267323D02*
X73634742Y-63362561D01*
X73634742Y-63362561D02*
X73729980Y-63457800D01*
X73729980Y-63457800D02*
X73872837Y-63505419D01*
X73872837Y-63505419D02*
X74110932Y-63505419D01*
D11*
%TO.C,R8*%
X72740000Y-45000000D02*
X72120000Y-45000000D01*
X74580000Y-45000000D02*
G75*
G03*
X74580000Y-45000000I-920000J0D01*
G01*
%TO.C,D2*%
X75518000Y-33917000D02*
X79578000Y-33917000D01*
X75518000Y-36187000D02*
X75518000Y-33917000D01*
X79578000Y-36187000D02*
X75518000Y-36187000D01*
%TO.C,R6*%
X72740000Y-42672000D02*
X72120000Y-42672000D01*
X74580000Y-42672000D02*
G75*
G03*
X74580000Y-42672000I-920000J0D01*
G01*
%TO.C,D1*%
X70234800Y-33917000D02*
X74294800Y-33917000D01*
X70234800Y-36187000D02*
X70234800Y-33917000D01*
X74294800Y-36187000D02*
X70234800Y-36187000D01*
%TO.C,R4*%
X69850000Y-57500000D02*
X69850000Y-56880000D01*
X70770000Y-58420000D02*
G75*
G03*
X70770000Y-58420000I-920000J0D01*
G01*
%TO.C,J3*%
X86236000Y-37415000D02*
X85986000Y-37415000D01*
X83686000Y-37415000D02*
X81836000Y-37415000D01*
X81836000Y-37415000D02*
X81836000Y-37865000D01*
X81286000Y-39615000D02*
X81736000Y-39615000D01*
X81286000Y-39615000D02*
X81286000Y-40065000D01*
X86236000Y-45215000D02*
X85986000Y-45215000D01*
X83686000Y-45215000D02*
X81836000Y-45215000D01*
X81836000Y-45215000D02*
X81836000Y-44765000D01*
%TO.C,U1*%
X77047500Y-52390000D02*
X76572500Y-52390000D01*
X77047500Y-52865000D02*
X77047500Y-52390000D01*
X73827500Y-52865000D02*
X73827500Y-52390000D01*
X77047500Y-55135000D02*
X77047500Y-55610000D01*
X73827500Y-55135000D02*
X73827500Y-55610000D01*
X77047500Y-55610000D02*
X76572500Y-55610000D01*
X73827500Y-55610000D02*
X74302500Y-55610000D01*
%TO.C,R2*%
X72740000Y-49530000D02*
X72120000Y-49530000D01*
X74580000Y-49530000D02*
G75*
G03*
X74580000Y-49530000I-920000J0D01*
G01*
%TO.C,TP4*%
X79791600Y-51765200D02*
G75*
G03*
X79791600Y-51765200I-950000J0D01*
G01*
%TO.C,R3*%
X70643000Y-60833000D02*
X71263000Y-60833000D01*
X70643000Y-60833000D02*
G75*
G03*
X70643000Y-60833000I-920000J0D01*
G01*
%TO.C,R1*%
X72136000Y-57500000D02*
X72136000Y-56880000D01*
X73056000Y-58420000D02*
G75*
G03*
X73056000Y-58420000I-920000J0D01*
G01*
%TO.C,R5*%
X72740000Y-47244000D02*
X72120000Y-47244000D01*
X74580000Y-47244000D02*
G75*
G03*
X74580000Y-47244000I-920000J0D01*
G01*
%TO.C,D_REC*%
X85947500Y-36135000D02*
X81887500Y-36135000D01*
X85947500Y-33865000D02*
X85947500Y-36135000D01*
X81887500Y-33865000D02*
X85947500Y-33865000D01*
%TO.C,BATT*%
X80694000Y-45932000D02*
X81944000Y-45932000D01*
X85714000Y-46232000D02*
X85714000Y-52352000D01*
X83604000Y-46232000D02*
X83604000Y-46842000D01*
X82304000Y-46232000D02*
X82304000Y-46842000D01*
X80994000Y-46232000D02*
X85714000Y-46232000D01*
X85104000Y-46842000D02*
X85104000Y-51742000D01*
X81604000Y-46842000D02*
X85104000Y-46842000D01*
X80694000Y-47182000D02*
X80694000Y-45932000D01*
X80794000Y-47692000D02*
X80994000Y-47692000D01*
X80994000Y-47992000D02*
X80794000Y-47992000D01*
X80894000Y-47992000D02*
X80894000Y-47692000D01*
X80794000Y-47992000D02*
X80794000Y-47692000D01*
X81604000Y-48792000D02*
X81604000Y-46842000D01*
X80994000Y-48792000D02*
X81604000Y-48792000D01*
X85104000Y-49192000D02*
X84604000Y-49192000D01*
X84604000Y-49192000D02*
X84604000Y-49392000D01*
X85104000Y-49292000D02*
X84604000Y-49292000D01*
X84604000Y-49392000D02*
X85104000Y-49392000D01*
X81604000Y-49792000D02*
X80994000Y-49792000D01*
X85104000Y-51742000D02*
X81604000Y-51742000D01*
X81604000Y-51742000D02*
X81604000Y-49792000D01*
X85714000Y-52352000D02*
X80994000Y-52352000D01*
X83604000Y-52352000D02*
X83604000Y-51742000D01*
X82304000Y-52352000D02*
X82304000Y-51742000D01*
X80994000Y-52352000D02*
X80994000Y-46232000D01*
%TO.C,SOLAR*%
X80694000Y-52942400D02*
X81944000Y-52942400D01*
X85714000Y-53242400D02*
X85714000Y-59362400D01*
X83604000Y-53242400D02*
X83604000Y-53852400D01*
X82304000Y-53242400D02*
X82304000Y-53852400D01*
X80994000Y-53242400D02*
X85714000Y-53242400D01*
X85104000Y-53852400D02*
X85104000Y-58752400D01*
X81604000Y-53852400D02*
X85104000Y-53852400D01*
X80694000Y-54192400D02*
X80694000Y-52942400D01*
X80794000Y-54702400D02*
X80994000Y-54702400D01*
X80994000Y-55002400D02*
X80794000Y-55002400D01*
X80894000Y-55002400D02*
X80894000Y-54702400D01*
X80794000Y-55002400D02*
X80794000Y-54702400D01*
X81604000Y-55802400D02*
X81604000Y-53852400D01*
X80994000Y-55802400D02*
X81604000Y-55802400D01*
X85104000Y-56202400D02*
X84604000Y-56202400D01*
X84604000Y-56202400D02*
X84604000Y-56402400D01*
X85104000Y-56302400D02*
X84604000Y-56302400D01*
X84604000Y-56402400D02*
X85104000Y-56402400D01*
X81604000Y-56802400D02*
X80994000Y-56802400D01*
X85104000Y-58752400D02*
X81604000Y-58752400D01*
X81604000Y-58752400D02*
X81604000Y-56802400D01*
X85714000Y-59362400D02*
X80994000Y-59362400D01*
X83604000Y-59362400D02*
X83604000Y-58752400D01*
X82304000Y-59362400D02*
X82304000Y-58752400D01*
X80994000Y-59362400D02*
X80994000Y-53242400D01*
%TO.C,R7*%
X70667600Y-53695600D02*
X71287600Y-53695600D01*
X70667600Y-53695600D02*
G75*
G03*
X70667600Y-53695600I-920000J0D01*
G01*
%TO.C,L1*%
X79420800Y-45588000D02*
X79420800Y-41280000D01*
X75112800Y-41280000D02*
X75112800Y-45588000D01*
%TO.C,C1*%
X75895399Y-49455000D02*
X76295399Y-49455000D01*
X76095399Y-49655000D02*
X76095399Y-49255000D01*
X78165200Y-50340000D02*
X78165200Y-46180000D01*
X78205200Y-50340000D02*
X78205200Y-46180000D01*
X78245200Y-50339000D02*
X78245200Y-46181000D01*
X78285200Y-50337000D02*
X78285200Y-46183000D01*
X78325200Y-50334000D02*
X78325200Y-46186000D01*
X78365200Y-47420000D02*
X78365200Y-46189000D01*
X78365200Y-50331000D02*
X78365200Y-49100000D01*
X78405200Y-47420000D02*
X78405200Y-46193000D01*
X78405200Y-50327000D02*
X78405200Y-49100000D01*
X78445200Y-47420000D02*
X78445200Y-46198000D01*
X78445200Y-50322000D02*
X78445200Y-49100000D01*
X78485200Y-47420000D02*
X78485200Y-46204000D01*
X78485200Y-50316000D02*
X78485200Y-49100000D01*
X78525200Y-47420000D02*
X78525200Y-46210000D01*
X78525200Y-50310000D02*
X78525200Y-49100000D01*
X78565200Y-47420000D02*
X78565200Y-46218000D01*
X78565200Y-50302000D02*
X78565200Y-49100000D01*
X78605200Y-47420000D02*
X78605200Y-46226000D01*
X78605200Y-50294000D02*
X78605200Y-49100000D01*
X78645200Y-47420000D02*
X78645200Y-46235000D01*
X78645200Y-50285000D02*
X78645200Y-49100000D01*
X78685200Y-47420000D02*
X78685200Y-46244000D01*
X78685200Y-50276000D02*
X78685200Y-49100000D01*
X78725200Y-47420000D02*
X78725200Y-46255000D01*
X78725200Y-50265000D02*
X78725200Y-49100000D01*
X78765200Y-47420000D02*
X78765200Y-46266000D01*
X78765200Y-50254000D02*
X78765200Y-49100000D01*
X78805200Y-47420000D02*
X78805200Y-46278000D01*
X78805200Y-50242000D02*
X78805200Y-49100000D01*
X78845200Y-47420000D02*
X78845200Y-46292000D01*
X78845200Y-50228000D02*
X78845200Y-49100000D01*
X78886200Y-47420000D02*
X78886200Y-46306000D01*
X78886200Y-50214000D02*
X78886200Y-49100000D01*
X78926200Y-47420000D02*
X78926200Y-46320000D01*
X78926200Y-50200000D02*
X78926200Y-49100000D01*
X78966200Y-47420000D02*
X78966200Y-46336000D01*
X78966200Y-50184000D02*
X78966200Y-49100000D01*
X79006200Y-47420000D02*
X79006200Y-46353000D01*
X79006200Y-50167000D02*
X79006200Y-49100000D01*
X79046200Y-47420000D02*
X79046200Y-46371000D01*
X79046200Y-50149000D02*
X79046200Y-49100000D01*
X79086200Y-47420000D02*
X79086200Y-46390000D01*
X79086200Y-50130000D02*
X79086200Y-49100000D01*
X79126200Y-47420000D02*
X79126200Y-46409000D01*
X79126200Y-50111000D02*
X79126200Y-49100000D01*
X79166200Y-47420000D02*
X79166200Y-46430000D01*
X79166200Y-50090000D02*
X79166200Y-49100000D01*
X79206200Y-47420000D02*
X79206200Y-46452000D01*
X79206200Y-50068000D02*
X79206200Y-49100000D01*
X79246200Y-47420000D02*
X79246200Y-46475000D01*
X79246200Y-50045000D02*
X79246200Y-49100000D01*
X79286200Y-47420000D02*
X79286200Y-46500000D01*
X79286200Y-50020000D02*
X79286200Y-49100000D01*
X79326200Y-47420000D02*
X79326200Y-46525000D01*
X79326200Y-49995000D02*
X79326200Y-49100000D01*
X79366200Y-47420000D02*
X79366200Y-46552000D01*
X79366200Y-49968000D02*
X79366200Y-49100000D01*
X79406200Y-47420000D02*
X79406200Y-46580000D01*
X79406200Y-49940000D02*
X79406200Y-49100000D01*
X79446200Y-47420000D02*
X79446200Y-46610000D01*
X79446200Y-49910000D02*
X79446200Y-49100000D01*
X79486200Y-47420000D02*
X79486200Y-46641000D01*
X79486200Y-49879000D02*
X79486200Y-49100000D01*
X79526200Y-47420000D02*
X79526200Y-46673000D01*
X79526200Y-49847000D02*
X79526200Y-49100000D01*
X79566200Y-47420000D02*
X79566200Y-46708000D01*
X79566200Y-49812000D02*
X79566200Y-49100000D01*
X79606200Y-47420000D02*
X79606200Y-46744000D01*
X79606200Y-49776000D02*
X79606200Y-49100000D01*
X79646200Y-47420000D02*
X79646200Y-46782000D01*
X79646200Y-49738000D02*
X79646200Y-49100000D01*
X79686200Y-47420000D02*
X79686200Y-46822000D01*
X79686200Y-49698000D02*
X79686200Y-49100000D01*
X79726200Y-47420000D02*
X79726200Y-46864000D01*
X79726200Y-49656000D02*
X79726200Y-49100000D01*
X79766200Y-47420000D02*
X79766200Y-46909000D01*
X79766200Y-49611000D02*
X79766200Y-49100000D01*
X79806200Y-47420000D02*
X79806200Y-46956000D01*
X79806200Y-49564000D02*
X79806200Y-49100000D01*
X79846200Y-47420000D02*
X79846200Y-47006000D01*
X79846200Y-49514000D02*
X79846200Y-49100000D01*
X79886200Y-47420000D02*
X79886200Y-47060000D01*
X79886200Y-49460000D02*
X79886200Y-49100000D01*
X79926200Y-47420000D02*
X79926200Y-47118000D01*
X79926200Y-49402000D02*
X79926200Y-49100000D01*
X79966200Y-47420000D02*
X79966200Y-47180000D01*
X79966200Y-49340000D02*
X79966200Y-49100000D01*
X80006200Y-49273000D02*
X80006200Y-47247000D01*
X80046200Y-49200000D02*
X80046200Y-47320000D01*
X80086200Y-49119000D02*
X80086200Y-47401000D01*
X80126200Y-49028000D02*
X80126200Y-47492000D01*
X80166200Y-48924000D02*
X80166200Y-47596000D01*
X80206200Y-48797000D02*
X80206200Y-47723000D01*
X80246200Y-48630000D02*
X80246200Y-47890000D01*
X80285200Y-48260000D02*
G75*
G03*
X80285200Y-48260000I-2120000J0D01*
G01*
%TO.C,+5v*%
X78200000Y-38500000D02*
G75*
G03*
X78200000Y-38500000I-950000J0D01*
G01*
%TO.C,U2*%
X75035000Y-40741000D02*
X75035000Y-40516000D01*
X75035000Y-40741000D02*
X74060000Y-40741000D01*
X75035000Y-37491000D02*
X74060000Y-37491000D01*
X72760000Y-40741000D02*
X71785000Y-40741000D01*
X72760000Y-37491000D02*
X71785000Y-37491000D01*
X71785000Y-40516000D02*
X71785000Y-40741000D01*
X71785000Y-37716000D02*
X71785000Y-37491000D01*
%TO.C,GND*%
X79944000Y-61061600D02*
G75*
G03*
X79944000Y-61061600I-950000J0D01*
G01*
%TO.C,VDD*%
X75727600Y-60858400D02*
G75*
G03*
X75727600Y-60858400I-950000J0D01*
G01*
%TD*%
M02*
