%TF.GenerationSoftware,KiCad,Pcbnew,7.0.2*%
%TF.CreationDate,2024-02-22T17:54:16+01:00*%
%TF.ProjectId,flowsense,666c6f77-7365-46e7-9365-2e6b69636164,rev?*%
%TF.SameCoordinates,Original*%
%TF.FileFunction,Soldermask,Top*%
%TF.FilePolarity,Negative*%
%FSLAX46Y46*%
G04 Gerber Fmt 4.6, Leading zero omitted, Abs format (unit mm)*
G04 Created by KiCad (PCBNEW 7.0.2) date 2024-02-22 17:54:16*
%MOMM*%
%LPD*%
G01*
G04 APERTURE LIST*
G04 Aperture macros list*
%AMRoundRect*
0 Rectangle with rounded corners*
0 $1 Rounding radius*
0 $2 $3 $4 $5 $6 $7 $8 $9 X,Y pos of 4 corners*
0 Add a 4 corners polygon primitive as box body*
4,1,4,$2,$3,$4,$5,$6,$7,$8,$9,$2,$3,0*
0 Add four circle primitives for the rounded corners*
1,1,$1+$1,$2,$3*
1,1,$1+$1,$4,$5*
1,1,$1+$1,$6,$7*
1,1,$1+$1,$8,$9*
0 Add four rect primitives between the rounded corners*
20,1,$1+$1,$2,$3,$4,$5,0*
20,1,$1+$1,$4,$5,$6,$7,0*
20,1,$1+$1,$6,$7,$8,$9,0*
20,1,$1+$1,$8,$9,$2,$3,0*%
G04 Aperture macros list end*
%ADD10R,1.700000X1.700000*%
%ADD11O,1.700000X1.700000*%
%ADD12C,1.400000*%
%ADD13O,1.400000X1.400000*%
%ADD14O,1.900000X1.200000*%
%ADD15C,1.450000*%
%ADD16RoundRect,0.250000X-0.625000X0.350000X-0.625000X-0.350000X0.625000X-0.350000X0.625000X0.350000X0*%
%ADD17O,1.750000X1.200000*%
%ADD18R,1.200000X1.200000*%
%ADD19C,1.200000*%
%ADD20C,0.600000*%
G04 APERTURE END LIST*
D10*
%TO.C,J1*%
X64008000Y-39624000D03*
D11*
X66548000Y-39624000D03*
X64008000Y-42164000D03*
X66548000Y-42164000D03*
X64008000Y-44704000D03*
X66548000Y-44704000D03*
X64008000Y-47244000D03*
X66548000Y-47244000D03*
X64008000Y-49784000D03*
X66548000Y-49784000D03*
X64008000Y-52324000D03*
X66548000Y-52324000D03*
X64008000Y-54864000D03*
X66548000Y-54864000D03*
X64008000Y-57404000D03*
X66548000Y-57404000D03*
X64008000Y-59944000D03*
X66548000Y-59944000D03*
X64008000Y-62484000D03*
X66548000Y-62484000D03*
X64008000Y-65024000D03*
X66548000Y-65024000D03*
X64008000Y-67564000D03*
X66548000Y-67564000D03*
X64008000Y-70104000D03*
X66548000Y-70104000D03*
X64008000Y-72644000D03*
X66548000Y-72644000D03*
X64008000Y-75184000D03*
X66548000Y-75184000D03*
X64008000Y-77724000D03*
X66548000Y-77724000D03*
X64008000Y-80264000D03*
X66548000Y-80264000D03*
X64008000Y-82804000D03*
X66548000Y-82804000D03*
X64008000Y-85344000D03*
X66548000Y-85344000D03*
X64008000Y-87884000D03*
X66548000Y-87884000D03*
%TD*%
D12*
%TO.C,R8*%
X73660000Y-45000000D03*
D13*
X71120000Y-45000000D03*
%TD*%
D12*
%TO.C,R6*%
X73660000Y-42672000D03*
D13*
X71120000Y-42672000D03*
%TD*%
D12*
%TO.C,R4*%
X69850000Y-58420000D03*
D13*
X69850000Y-55880000D03*
%TD*%
D14*
%TO.C,J3*%
X84836000Y-37815000D03*
D15*
X82136000Y-38815000D03*
X82136000Y-43815000D03*
D14*
X84836000Y-44815000D03*
%TD*%
D12*
%TO.C,R2*%
X73660000Y-49530000D03*
D13*
X71120000Y-49530000D03*
%TD*%
D12*
%TO.C,R3*%
X69723000Y-60833000D03*
D13*
X72263000Y-60833000D03*
%TD*%
D12*
%TO.C,R1*%
X72136000Y-58420000D03*
D13*
X72136000Y-55880000D03*
%TD*%
D12*
%TO.C,R5*%
X73660000Y-47244000D03*
D13*
X71120000Y-47244000D03*
%TD*%
D16*
%TO.C,BATT*%
X82804000Y-48292000D03*
D17*
X82804000Y-50292000D03*
%TD*%
D16*
%TO.C,SOLAR*%
X82804000Y-55302400D03*
D17*
X82804000Y-57302400D03*
%TD*%
D12*
%TO.C,R7*%
X69747600Y-53695600D03*
D13*
X72287600Y-53695600D03*
%TD*%
D18*
%TO.C,C1*%
X77165200Y-48260000D03*
D19*
X79165200Y-48260000D03*
%TD*%
D20*
%TO.C,U2*%
X73910000Y-39866000D03*
X73910000Y-38366000D03*
X73410000Y-39116000D03*
X72910000Y-39866000D03*
X72910000Y-38366000D03*
%TD*%
M02*
